<?xml version="1.0" standalone="no"?>
<!DOCTYPE svg PUBLIC "-//W3C//DTD SVG 1.1//EN" "http://www.w3.org/Graphics/SVG/1.1/DTD/svg11.dtd" >
<svg>
<metadata>
Created by FontForge 20090622 at Sun Nov 19 20:22:10 2017
 By deploy user
Copyright (c) 2014 by Tkachev. All rights reserved.
</metadata>
<defs>
<font id="UA-brand-Black" horiz-adv-x="304" >
  <font-face 
    font-family="UA-brand"
    font-weight="900"
    font-stretch="normal"
    units-per-em="1000"
    panose-1="2 0 5 5 4 0 0 2 0 4"
    ascent="800"
    descent="-200"
    x-height="500"
    cap-height="700"
    bbox="-90 -260 1343 969"
    underline-thickness="50"
    underline-position="-50"
    unicode-range="U+0020-U+2122"
  />
<missing-glyph horiz-adv-x="302" 
 />
    <glyph glyph-name=".notdef" horiz-adv-x="302" 
 />
    <glyph glyph-name=".null" horiz-adv-x="0" 
 />
    <glyph glyph-name="nonmarkingreturn" horiz-adv-x="333" 
 />
    <glyph glyph-name="space" unicode=" " horiz-adv-x="302" 
 />
    <glyph glyph-name="exclam" unicode="!" 
d="M83 211l-25 489h186l-25 -489h-136zM246 67q0 -36 -27.5 -61.5t-66.5 -25.5t-66.5 25.5t-27.5 61.5t27.5 61.5t66.5 25.5t66.5 -25.5t27.5 -61.5z" />
    <glyph glyph-name="quotedbl" unicode="&#x22;" horiz-adv-x="422" 
d="M45 442l-12 258h158l-12 -258h-134zM243 442l-12 258h158l-12 -258h-134z" />
    <glyph glyph-name="numbersign" unicode="#" horiz-adv-x="713" 
d="M354 0l34 167h-140l-34 -167h-136l34 167h-97v122h123l25 122h-107v122h132l35 167h136l-35 -167h140l35 167h136l-35 -167h98v-122h-123l-25 -122h107v-122h-133l-34 -167h-136zM299 411l-25 -122h140l25 122h-140z" />
    <glyph glyph-name="dollar" unicode="$" horiz-adv-x="729" 
d="M432 -34h-142v48q-152 14 -214 50l40 146q45 -16 111.5 -28t121.5 -12q51 0 82.5 14t31.5 39q0 39 -137 60q-246 39 -246 198q0 74 58.5 127t151.5 71v52h142v-48q112 -9 194 -40l-50 -154q-38 19 -100 33t-108 14q-106 0 -106 -51q0 -18 19 -31t39.5 -18t59.5 -12
q36 -6 55 -11q96 -25 153 -69.5t57 -127.5q0 -73 -60 -126t-153 -71v-53z" />
    <glyph glyph-name="uni0025" unicode="%" horiz-adv-x="901" 
d="M224 0h-152l616 700h152zM689 359q68 0 117.5 -51t49.5 -130v-7q0 -80 -49.5 -131.5t-117.5 -51.5q-69 0 -118.5 51.5t-49.5 131.5v7q0 80 49.5 130.5t118.5 50.5zM218 712q68 0 117.5 -51t49.5 -130v-7q0 -80 -49.5 -131.5t-117.5 -51.5q-69 0 -118.5 51.5t-49.5 131.5
v7q0 80 49.5 130.5t118.5 50.5zM689 257q-27 0 -45.5 -22.5t-18.5 -56.5v-7q0 -34 18.5 -57.5t45.5 -23.5q26 0 44 23.5t18 57.5v7q0 34 -18 56.5t-44 22.5zM218 610q-27 0 -45.5 -22.5t-18.5 -56.5v-7q0 -34 18.5 -57.5t45.5 -23.5q26 0 44 23.5t18 57.5v7q0 34 -18 56.5
t-44 22.5z" />
    <glyph glyph-name="ampersand" unicode="&#x26;" horiz-adv-x="806" 
d="M780 109l-97 -127l-119 87q-119 -94 -258 -94q-112 0 -181.5 52.5t-69.5 142.5q0 56 35 101.5t95 74.5q-87 76 -87 174q0 84 77.5 144t188.5 60q99 0 165.5 -62.5t66.5 -142.5q0 -112 -133 -188l92 -64q59 71 92 145l144 -38q-57 -114 -117 -191zM435 518q0 24 -22.5 40
t-52.5 16q-35 0 -57.5 -18t-22.5 -46q0 -50 84 -110q35 24 53 57t18 61zM318 124q58 0 119 37l-147 108q-56 -20 -56 -70q0 -30 24.5 -52.5t59.5 -22.5z" />
    <glyph glyph-name="quotesingle" unicode="'" horiz-adv-x="224" 
d="M45 442l-12 258h158l-12 -258h-134z" />
    <glyph glyph-name="parenleft" unicode="(" horiz-adv-x="375" 
d="M214 298q0 -91 27.5 -188t83.5 -177l-76 -81q-90 79 -139.5 205.5t-49.5 240.5t49.5 240.5t139.5 205.5l76 -81q-56 -80 -83.5 -177t-27.5 -188z" />
    <glyph glyph-name="parenright" unicode=")" horiz-adv-x="385" 
d="M171 298q0 91 -27.5 188t-83.5 177l76 81q90 -79 139.5 -205.5t49.5 -240.5t-49.5 -240.5t-139.5 -205.5l-76 81q56 80 83.5 177t27.5 188z" />
    <glyph glyph-name="asterisk" unicode="*" horiz-adv-x="440" 
d="M183 572l-27 128h128l-27 -128l113 65l39 -122l-130 -13l98 -87l-104 -75l-53 119l-53 -119l-104 75l98 87l-130 13l39 122z" />
    <glyph glyph-name="plus" unicode="+" horiz-adv-x="657" 
d="M90 262v122h177v177h122v-177h178v-122h-178v-178h-122v178h-177z" />
    <glyph glyph-name="comma" unicode="," horiz-adv-x="299" 
d="M59 67q0 36 27.5 61.5t66.5 25.5q46 0 71 -33t25 -82q0 -58 -37 -124t-90 -105l-72 81q57 46 62 97q-24 11 -38.5 32t-14.5 47z" />
    <glyph glyph-name="hyphen" unicode="-" horiz-adv-x="596" 
d="M88 194v148h420v-148h-420z" />
    <glyph glyph-name="period" unicode="." 
d="M58 67q0 36 27.5 61.5t66.5 25.5t66.5 -25.5t27.5 -61.5t-27.5 -61.5t-66.5 -25.5t-66.5 25.5t-27.5 61.5z" />
    <glyph glyph-name="slash" unicode="/" horiz-adv-x="334" 
d="M130 0h-132l206 700h132z" />
    <glyph glyph-name="zero" unicode="0" horiz-adv-x="772" 
d="M56 358q0 160 99 261.5t236 101.5t236 -102t99 -261v-14q0 -160 -99.5 -262.5t-235.5 -102.5q-137 0 -236 102.5t-99 262.5v14zM391 566q-69 0 -117 -59t-48 -147v-18q0 -89 48 -149t117 -60q68 0 116 60t48 149v18q0 88 -48 147t-116 59z" />
    <glyph glyph-name="one" unicode="1" horiz-adv-x="386" 
d="M10 506v155l246 44h55v-705h-168v529z" />
    <glyph glyph-name="two" unicode="2" horiz-adv-x="631" 
d="M324 568q-46 0 -97.5 -29t-89.5 -74l-122 110q57 64 142 106t162 42q130 0 203.5 -60.5t73.5 -147.5q0 -151 -212 -275l-139 -80h337v-160h-521l-37 169l277 189q66 45 95 74.5t29 64.5q0 30 -29.5 50.5t-71.5 20.5z" />
    <glyph glyph-name="three" unicode="3" horiz-adv-x="635" 
d="M199 284v145h99q55 0 87.5 19t32.5 52q0 29 -27 47.5t-72 18.5q-54 0 -106.5 -31t-93.5 -79l-122 110q146 155 308 155q134 0 208 -62.5t74 -146.5q0 -87 -86 -147q111 -56 111 -166q0 -90 -77.5 -155t-204.5 -65q-176 0 -331 141l113 117q106 -102 218 -102q51 0 82 20
t31 53q0 36 -38.5 56t-101.5 20h-104z" />
    <glyph glyph-name="four" unicode="4" horiz-adv-x="662" 
d="M10 137v155l339 413h195v-413h108v-155h-108v-137h-167v137h-367zM198 292h179v216z" />
    <glyph glyph-name="five" unicode="5" horiz-adv-x="647" 
d="M0 122l114 115q106 -102 217 -102q51 0 84.5 24.5t33.5 59.5q0 37 -28 61t-75 24h-261l30 396h482v-161h-333l-6 -86q53 8 108 8q104 0 177.5 -68.5t73.5 -172.5q0 -97 -81 -169t-205 -72q-181 0 -331 143z" />
    <glyph glyph-name="six" unicode="6" horiz-adv-x="695" 
d="M645 619l-97 -123q-77 70 -170 70q-65 0 -105 -46t-53 -121q87 47 188 47q99 0 179.5 -62.5t80.5 -166.5q0 -93 -87.5 -165.5t-211.5 -72.5q-143 0 -232 99t-89 245v12q0 98 40 186t115 144t167 56q75 0 152 -27t123 -75zM384 303q-93 0 -162 -50q15 -54 54.5 -87
t92.5 -33q55 0 92.5 24t37.5 62t-33.5 61t-81.5 23z" />
    <glyph glyph-name="seven" unicode="7" horiz-adv-x="572" 
d="M526 700l38 -179l-343 -521h-194l354 534h-376v166h521z" />
    <glyph glyph-name="eight" unicode="8" horiz-adv-x="646" 
d="M591 512q0 -89 -74 -147q99 -57 99 -166q0 -90 -82.5 -156.5t-210.5 -66.5t-210.5 66.5t-82.5 156.5q0 110 99 166q-74 58 -74 147q0 86 67.5 149t200.5 63t200.5 -63t67.5 -149zM323 292q-60 0 -92 -22t-32 -57q0 -34 32.5 -57.5t91.5 -23.5t91.5 23.5t32.5 57.5
q0 35 -32 57t-92 22zM323 421q99 0 99 72q0 33 -24 54.5t-75 21.5t-75 -21.5t-24 -54.5q0 -72 99 -72z" />
    <glyph glyph-name="nine" unicode="9" horiz-adv-x="712" 
d="M71 81l97 123q77 -70 170 -70q65 0 104.5 45.5t53.5 121.5q-84 -47 -188 -47q-99 0 -179.5 62.5t-80.5 166.5q0 93 87.5 165.5t211.5 72.5q143 0 232 -99t89 -245v-12q0 -98 -40 -186t-115 -144t-167 -56q-75 0 -152 27t-123 75zM332 397q94 0 161 49q-15 54 -54 87.5
t-92 33.5q-55 0 -92.5 -24t-37.5 -62t33.5 -61t81.5 -23z" />
    <glyph glyph-name="colon" unicode=":" 
d="M58 67q0 36 27.5 61.5t66.5 25.5t66.5 -25.5t27.5 -61.5t-27.5 -61.5t-66.5 -25.5t-66.5 25.5t-27.5 61.5zM58 433q0 36 27.5 61.5t66.5 25.5t66.5 -25.5t27.5 -61.5t-27.5 -61.5t-66.5 -25.5t-66.5 25.5t-27.5 61.5z" />
    <glyph glyph-name="semicolon" unicode=";" horiz-adv-x="306" 
d="M58 67q0 36 27.5 61.5t66.5 25.5q46 0 71 -33t25 -82q0 -58 -37 -124t-90 -105l-72 81q57 46 62 97q-24 11 -38.5 32t-14.5 47zM58 433q0 36 27.5 61.5t66.5 25.5t66.5 -25.5t27.5 -61.5t-27.5 -61.5t-66.5 -25.5t-66.5 25.5t-27.5 61.5z" />
    <glyph glyph-name="less" unicode="&#x3c;" horiz-adv-x="647" 
d="M80 262v122l477 250v-137l-344 -170l344 -178v-137z" />
    <glyph glyph-name="equal" unicode="=" horiz-adv-x="657" 
d="M90 384v122h477v-122h-477zM90 140v122h477v-122h-477z" />
    <glyph glyph-name="greater" unicode="&#x3e;" horiz-adv-x="647" 
d="M567 384v-122l-477 -250v137l344 170l-344 178v137z" />
    <glyph glyph-name="question" unicode="?" horiz-adv-x="550" 
d="M298 573q-89 0 -182 -97l-118 105q56 60 136 101.5t158 41.5q123 0 189 -60t66 -147q0 -78 -61.5 -138.5t-150.5 -95.5v-72h-136l-5 123q52 26 87.5 47.5t66.5 56t31 68.5q0 28 -23.5 47.5t-57.5 19.5zM173 67q0 36 27.5 61.5t66.5 25.5t66.5 -25.5t27.5 -61.5
t-27.5 -61.5t-66.5 -25.5t-66.5 25.5t-27.5 61.5z" />
    <glyph glyph-name="at" unicode="@" horiz-adv-x="999" 
d="M758 443v-268q0 -12 8.5 -19.5t22.5 -7.5q26 0 42 31t16 88q0 133 -93.5 221.5t-239.5 88.5q-138 0 -237.5 -92t-99.5 -228q0 -135 98.5 -225.5t236.5 -90.5q59 0 134.5 13t134.5 39l27 -113q-135 -64 -296 -64q-123 0 -230 53t-174 155.5t-67 232.5q0 97 39.5 181.5
t105.5 141.5t151.5 89.5t176.5 32.5t175.5 -31t149.5 -86t104 -138t39 -180q0 -109 -71.5 -177.5t-171.5 -68.5q-42 0 -77 23t-48 60q-54 -81 -144 -81q-88 0 -151 70.5t-63 171.5q0 107 80.5 179.5t203.5 72.5q52 0 112.5 -22.5t105.5 -51.5zM531 157q46 0 77 26v194
q-34 9 -68 9q-52 0 -89 -33t-37 -81q0 -51 33.5 -83t83.5 -32zM648 285l-2 -24q2 16 2 24z" />
    <glyph glyph-name="A" unicode="A" horiz-adv-x="805" 
d="M507 700l297 -700h-199l-44 106h-322l-43 -106h-195l297 700h209zM400 497l-94 -228h188z" />
    <glyph glyph-name="B" unicode="B" horiz-adv-x="813" 
d="M88 0v700h356q136 0 209.5 -48t73.5 -145q0 -98 -91 -145q129 -47 129 -164q0 -98 -74.5 -148t-210.5 -50h-392zM480 292h-207v-131h207q90 0 90 66q0 65 -90 65zM444 538h-171v-120h171q88 0 88 60t-88 60z" />
    <glyph glyph-name="C" unicode="C" horiz-adv-x="766" 
d="M714 678l-53 -171q-104 49 -192 49q-98 0 -164.5 -52t-66.5 -143q0 -93 67 -148.5t164 -55.5t210 40l44 -164q-45 -25 -118.5 -41.5t-135.5 -16.5q-197 0 -311.5 108t-114.5 273t118.5 267t307.5 102q121 0 245 -47z" />
    <glyph glyph-name="D" unicode="D" horiz-adv-x="872" 
d="M409 0h-321v700h321q113 0 207.5 -39.5t153.5 -119t59 -183.5q0 -150 -120.5 -254t-299.5 -104zM409 161q96 0 160.5 55t64.5 143q0 87 -63.5 133t-161.5 46h-136v-377h136z" />
    <glyph glyph-name="E" unicode="E" horiz-adv-x="766" 
d="M88 0v700h609v-162h-434v-105h395v-156h-395v-116h450v-161h-625z" />
    <glyph glyph-name="F" unicode="F" horiz-adv-x="752" 
d="M88 0v700h616v-162h-431v-125h392v-156h-392v-257h-185z" />
    <glyph glyph-name="G" unicode="G" horiz-adv-x="843" 
d="M752 678l-53 -171q-107 49 -211 49t-177 -52.5t-73 -144.5q0 -94 70 -150.5t170 -56.5q75 0 142 14v168h185v-271q-59 -36 -152.5 -62t-174.5 -26q-197 0 -316 108.5t-119 272.5q0 166 124 267.5t321 101.5q140 0 264 -47z" />
    <glyph glyph-name="H" unicode="H" horiz-adv-x="903" 
d="M88 0v700h185v-264h357v264h185v-700h-185v273h-357v-273h-185z" />
    <glyph glyph-name="I" unicode="I" horiz-adv-x="371" 
d="M278 700v-700h-185v700h185z" />
    <glyph glyph-name="J" unicode="J" horiz-adv-x="376" 
d="M48 -80l-45 153q57 21 81 56t24 100v471h185v-471q0 -235 -245 -309z" />
    <glyph glyph-name="K" unicode="K" horiz-adv-x="825" 
d="M595 0l-320 353l330 347h210l-326 -338l338 -362h-232zM88 0v700h185v-700h-185z" />
    <glyph glyph-name="L" unicode="L" horiz-adv-x="713" 
d="M88 0v700h185v-539h426v-161h-611z" />
    <glyph glyph-name="M" unicode="M" horiz-adv-x="1098" 
d="M497 66l-214 389l-15 -455h-185l20 700h235l206 -378h10l206 378h235l20 -700h-185l-15 454l-214 -388h-104z" />
    <glyph glyph-name="N" unicode="N" horiz-adv-x="928" 
d="M620 0l-347 474v-474h-185v700h220l347 -475v475h185v-700h-220z" />
    <glyph glyph-name="O" unicode="O" horiz-adv-x="938" 
d="M469 -25q-184 0 -305 111t-121 272q0 111 59 195.5t155 128t212 43.5t212 -43.5t155 -128t59 -195.5q0 -161 -121 -272t-305 -111zM469 143q97 0 164 60t67 156q0 93 -66 146t-165 53t-165 -53t-66 -146q0 -96 67 -156t164 -60z" />
    <glyph glyph-name="P" unicode="P" horiz-adv-x="803" 
d="M88 0v700h392q133 0 209 -69.5t76 -179.5q0 -105 -78 -172t-207 -67h-207v-212h-185zM480 368q44 0 67 24t23 61t-23 61.5t-67 24.5h-207v-171h207z" />
    <glyph glyph-name="Q" unicode="Q" horiz-adv-x="938" 
d="M469 -25q-184 0 -305 111t-121 272q0 111 59 195.5t155 128t212 43.5t212 -43.5t155 -128t59 -195.5q0 -96 -46.5 -178t-128.5 -135l42 -24q45 -30 91 -30q29 0 62 10l15 -146q-72 -29 -126 -29q-72 0 -151 61l-119 92q-42 -4 -65 -4zM469 143q97 0 164 60t67 156
q0 93 -66 146t-165 53t-165 -53t-66 -146q0 -96 67 -156t164 -60z" />
    <glyph glyph-name="R" unicode="R" horiz-adv-x="832" 
d="M88 0v700h392q126 0 203 -67t77 -170q0 -71 -45 -127.5t-121 -83.5l73 -77q33 -36 72 -36q25 0 58 11l15 -146q-74 -28 -129 -28q-88 0 -160 92l-137 171h-113v-239h-185zM273 386h207q40 0 62.5 21.5t22.5 54.5q0 31 -22.5 54t-62.5 23h-207v-153z" />
    <glyph glyph-name="S" unicode="S" horiz-adv-x="729" 
d="M657 681l-52 -163q-42 20 -111.5 35.5t-120.5 15.5q-55 0 -90.5 -15.5t-35.5 -48.5q0 -18 11.5 -31t34.5 -21t44.5 -13t55.5 -11t54 -11q52 -13 89 -28t72.5 -39.5t54 -62.5t18.5 -88q0 -99 -97.5 -163t-231.5 -64q-72 0 -166.5 16.5t-137.5 40.5l43 155q49 -17 123 -30
t137 -13q61 0 98 17.5t37 48.5t-42 47t-118 27q-274 41 -274 219q0 99 93.5 163t226.5 64q161 0 285 -47z" />
    <glyph glyph-name="T" unicode="T" horiz-adv-x="719" 
d="M6 539v161h707v-161h-261v-539h-185v539h-261z" />
    <glyph glyph-name="U" unicode="U" horiz-adv-x="918" 
d="M459 -25q-103 0 -187 33.5t-139 110t-55 185.5v396h185v-396q0 -79 56 -120t140 -41t140 41t56 120v396h185v-396q0 -109 -55 -185.5t-139 -110t-187 -33.5z" />
    <glyph glyph-name="V" unicode="V" horiz-adv-x="805" 
d="M298 0l-297 700h199l204 -497l205 497h195l-297 -700h-209z" />
    <glyph glyph-name="W" unicode="W" horiz-adv-x="1296" 
d="M837 0l-189 486l-189 -486h-174l-277 700h199l174 -477l175 477h188l174 -477l175 477h195l-277 -700h-174z" />
    <glyph glyph-name="X" unicode="X" horiz-adv-x="802" 
d="M1 0l292 357l-287 343h224l175 -218l173 218h218l-287 -343l292 -357h-224l-180 232l-178 -232h-218z" />
    <glyph glyph-name="Y" unicode="Y" horiz-adv-x="780" 
d="M300 0v261l-302 440h216l182 -282l180 282h206l-297 -434v-267h-185z" />
    <glyph glyph-name="Z" unicode="Z" horiz-adv-x="763" 
d="M38 0v176l447 363h-432v161h657v-176l-447 -363h462v-161h-687z" />
    <glyph glyph-name="bracketleft" unicode="[" horiz-adv-x="384" 
d="M334 -5v-128h-259v833h259v-128h-117v-577h117z" />
    <glyph glyph-name="backslash" unicode="\" horiz-adv-x="334" 
d="M336 0h-132l-206 700h132z" />
    <glyph glyph-name="bracketright" unicode="]" horiz-adv-x="384" 
d="M50 -133v128h117v577h-117v128h259v-833h-259z" />
    <glyph glyph-name="asciicircum" unicode="^" horiz-adv-x="460" 
d="M301 700l159 -315h-145l-85 172l-85 -172h-145l159 315h142z" />
    <glyph glyph-name="underscore" unicode="_" horiz-adv-x="577" 
d="M60 -168v122h457v-122h-457z" />
    <glyph glyph-name="grave" unicode="`" horiz-adv-x="229" 
d="M113 556l-133 213h178l71 -166z" />
    <glyph glyph-name="a" unicode="a" horiz-adv-x="637" 
d="M544 310v-150q0 -22 22 -22q23 0 53 18l35 -121q-34 -22 -79 -37.5t-81 -15.5q-53 0 -81.5 33t-30.5 84l-4 1q-25 -51 -73 -84.5t-109 -33.5q-66 0 -114 43t-48 111q0 73 56.5 117t136.5 44q77 0 151 -32v47q0 25 -16.5 40.5t-47.5 15.5q-67 0 -202 -49l-42 155
q146 50 254 50q220 0 220 -214zM261 121q37 0 70.5 23.5t46.5 56.5q-56 13 -95 13q-80 0 -80 -50q0 -20 15.5 -31.5t42.5 -11.5z" />
    <glyph glyph-name="b" unicode="b" horiz-adv-x="701" 
d="M68 48v702h166v-323q65 97 189 97q102 0 174 -78.5t72 -189.5q0 -119 -89 -199.5t-226 -80.5q-180 0 -286 72zM364 371q-58 0 -94 -36t-36 -100v-99q55 -20 120 -20q58 0 99 36.5t41 90.5q0 57 -37.5 92.5t-92.5 35.5z" />
    <glyph glyph-name="c" unicode="c" horiz-adv-x="604" 
d="M339 524q115 0 219 -43l-39 -146q-92 50 -177 50q-57 0 -96.5 -34t-39.5 -91q0 -62 39.5 -93.5t104.5 -31.5q79 0 166 30l38 -145q-102 -44 -215 -44q-134 0 -220.5 79.5t-86.5 200.5t91.5 194.5t215.5 73.5z" />
    <glyph glyph-name="d" unicode="d" horiz-adv-x="701" 
d="M633 750v-750h-136l-18 93q-63 -117 -201 -117q-102 0 -174 78.5t-72 189.5q0 119 89 199.5t226 80.5q64 0 120 -24v250h166zM337 124q58 0 94 36t36 100v99q-60 20 -120 20q-58 0 -99 -36.5t-41 -90.5q0 -57 37.5 -92.5t92.5 -35.5z" />
    <glyph glyph-name="e" unicode="e" horiz-adv-x="622" 
d="M549 174l40 -148q-47 -20 -119 -35t-126 -15q-139 0 -225.5 80t-86.5 200q0 122 91 195t221 73q96 0 168 -49.5t72 -124.5q0 -74 -60 -107.5t-153 -33.5q-80 0 -164 22q15 -97 148 -97q90 0 194 40zM306 296q98 0 98 48q0 19 -16 30t-41 11q-45 0 -81 -22.5t-51 -60.5
q38 -6 91 -6z" />
    <glyph glyph-name="f" unicode="f" horiz-adv-x="510" 
d="M321 764q89 0 191 -27l-39 -146q-80 34 -119 34q-38 0 -57 -22.5t-19 -80.5v-22h203v-134h-199v-366h-166v366h-90v134h90q0 139 47.5 201.5t157.5 62.5z" />
    <glyph glyph-name="g" unicode="g" horiz-adv-x="656" 
d="M27 318q0 88 76 141t202 53q89 0 165 -38q58 70 173 79v-152q-69 -4 -86 -8q26 -26 26 -75q0 -88 -74.5 -140.5t-203.5 -52.5q-41 0 -76 7q-18 -11 -18 -27q0 -15 21 -21t75 -6h14q158 0 232.5 -37.5t74.5 -118.5q0 -79 -82 -125t-225 -46t-220.5 39t-77.5 111
q0 34 25 65.5t61 44.5q-52 26 -52 74q0 40 60 86q-90 53 -90 147zM188 315q0 -66 117 -66t117 66q0 34 -31 53.5t-86 19.5q-53 0 -85 -19.5t-32 -53.5zM321 -136q148 0 148 48q0 21 -34.5 29t-113.5 8h-122q-26 -19 -26 -42q0 -43 148 -43z" />
    <glyph glyph-name="h" unicode="h" horiz-adv-x="698" 
d="M364 371q-54 0 -92 -36.5t-38 -99.5v-235h-166v741h166v-315q67 98 189 98q104 0 160.5 -73.5t56.5 -184.5v-266h-166v253q0 54 -27.5 86t-82.5 32z" />
    <glyph glyph-name="i" unicode="i" 
d="M236 500v-500h-166v500h166zM58 652q0 36 27.5 61.5t66.5 25.5t66.5 -25.5t27.5 -61.5t-27.5 -61.5t-66.5 -25.5t-66.5 25.5t-27.5 61.5z" />
    <glyph glyph-name="j" unicode="j" horiz-adv-x="308" 
d="M34 -250q-24 0 -36 1v138q76 0 76 103v508h166v-486q0 -139 -48 -201.5t-158 -62.5zM62 652q0 36 27.5 61.5t66.5 25.5t66.5 -25.5t27.5 -61.5t-27.5 -61.5t-66.5 -25.5t-66.5 25.5t-27.5 61.5z" />
    <glyph glyph-name="k" unicode="k" horiz-adv-x="672" 
d="M378 78l-53 78q-50 -12 -91 -13v-143h-166v750h166v-513q106 11 157 82t51 181h169q-3 -169 -142 -275l39 -50q26 -35 57 -35q15 0 39 8l18 -138q-52 -19 -94 -19q-92 0 -150 87z" />
    <glyph glyph-name="l" unicode="l" horiz-adv-x="370" 
d="M356 135l29 -136q-57 -23 -108 -23q-106 0 -160 60t-54 168v547h166v-534q0 -49 21 -68.5t66 -19.5q18 0 40 6z" />
    <glyph glyph-name="m" unicode="m" horiz-adv-x="1064" 
d="M354 371q-48 0 -84 -36t-36 -95v-240h-166v500h136l17 -88q28 49 77.5 80.5t114.5 31.5q63 0 110.5 -35.5t72.5 -93.5q29 57 80.5 93t122.5 36q94 0 150.5 -74t56.5 -178v-272h-166v259q0 49 -25 80.5t-75 31.5q-48 0 -84 -36t-36 -95v-240h-166v259q0 49 -25 80.5
t-75 31.5z" />
    <glyph glyph-name="n" unicode="n" horiz-adv-x="698" 
d="M364 371q-54 0 -92 -36.5t-38 -99.5v-235h-166v500h136l17 -94q67 118 202 118q104 0 160.5 -73.5t56.5 -184.5v-266h-166v253q0 54 -27.5 86t-82.5 32z" />
    <glyph glyph-name="o" unicode="o" horiz-adv-x="694" 
d="M347 524q132 0 223.5 -73t91.5 -195q0 -119 -89 -199.5t-226 -80.5t-226 80.5t-89 199.5q0 122 91.5 195t223.5 73zM347 373q-59 0 -99.5 -32.5t-40.5 -85.5q0 -54 41 -91.5t99 -37.5t99 37.5t41 91.5q0 53 -40.5 85.5t-99.5 32.5z" />
    <glyph glyph-name="p" unicode="p" horiz-adv-x="701" 
d="M68 -240v740h136l17 -93q65 117 202 117q102 0 174 -78.5t72 -189.5q0 -119 -89 -199.5t-226 -80.5q-64 0 -120 24v-240h-166zM364 371q-58 0 -94 -36t-36 -100v-99q55 -20 120 -20q58 0 99 36.5t41 90.5q0 57 -37.5 92.5t-92.5 35.5z" />
    <glyph glyph-name="q" unicode="q" horiz-adv-x="701" 
d="M633 453v-693h-166v313q-65 -96 -189 -96q-102 0 -174 78.5t-72 189.5q0 119 89 199.5t226 80.5q179 0 286 -72zM337 130q59 0 94.5 38t35.5 105v92q-60 20 -120 20q-58 0 -99 -36.5t-41 -90.5q0 -57 37.5 -92.5t92.5 -35.5z" />
    <glyph glyph-name="r" unicode="r" horiz-adv-x="545" 
d="M361 371q-54 0 -90.5 -36.5t-36.5 -99.5v-235h-166v500h136l17 -94q30 51 81 84.5t115 33.5q65 0 128 -36l-42 -156q-76 39 -142 39z" />
    <glyph glyph-name="s" unicode="s" horiz-adv-x="608" 
d="M39 359q0 57 38 95.5t97 55t135 16.5q115 0 232 -35l-39 -143q-98 38 -202 38q-86 0 -86 -31q0 -15 24 -23t79 -17q20 -3 31 -5q110 -19 163.5 -55t53.5 -109q0 -57 -44 -97.5t-106 -57.5t-133 -17q-58 0 -135 13t-119 31l40 146q46 -17 111 -28t114 -11q95 0 95 32
q0 15 -24 23t-79 17q-58 9 -97 19t-75.5 28t-55 46.5t-18.5 68.5z" />
    <glyph glyph-name="t" unicode="t" horiz-adv-x="512" 
d="M8 366v110l96 23l54 151h126l-14 -150h193v-134h-199v-126q0 -111 100 -111q46 0 97 23l38 -145q-94 -30 -184 -30q-101 0 -159 67t-58 177v145h-90z" />
    <glyph glyph-name="u" unicode="u" horiz-adv-x="692" 
d="M331 128q53 0 90 36.5t37 99.5v236h166v-500h-136l-18 94q-29 -50 -82.5 -83.5t-121.5 -33.5q-96 0 -152 67t-56 177v279h166v-254q0 -53 27.5 -85.5t79.5 -32.5z" />
    <glyph glyph-name="v" unicode="v" horiz-adv-x="646" 
d="M180 500l145 -342l146 342h171l-225 -500h-188l-225 500h176z" />
    <glyph glyph-name="w" unicode="w" horiz-adv-x="1049" 
d="M655 0l-127 334l-134 -334h-178l-205 500h176l125 -341l126 341h178l125 -341l126 341h171l-205 -500h-178z" />
    <glyph glyph-name="x" unicode="x" horiz-adv-x="681" 
d="M12 500h203l124 -144l122 144h198l-230 -244l240 -256h-203l-129 149l-127 -149h-198l235 250z" />
    <glyph glyph-name="y" unicode="y" horiz-adv-x="643" 
d="M76 -238l12 148q38 -7 69 -7q34 0 56 17t45 63l-254 517h176l157 -330l134 330h171l-213 -493q-22 -50 -38 -82.5t-40.5 -69t-49.5 -57t-60 -34.5t-76 -14t-89 12z" />
    <glyph glyph-name="z" unicode="z" horiz-adv-x="633" 
d="M72 362v138h486v-157l-324 -205h346v-138h-522v158l325 204h-311z" />
    <glyph glyph-name="braceleft" unicode="{" horiz-adv-x="391" 
d="M92 521q0 75 46.5 127t126.5 52h76v-128h-52q-24 0 -39.5 -16.5t-15.5 -42.5v-77q0 -105 -80 -153q38 -22 59 -62.5t21 -89.5v-77q0 -26 15.5 -42.5t39.5 -16.5h52v-128h-76q-80 0 -126.5 52t-46.5 127v117q0 26 -15.5 42.5t-39.5 16.5h-37v123h37q24 0 39.5 16.5
t15.5 42.5v117z" />
    <glyph glyph-name="bar" unicode="|" horiz-adv-x="292" 
d="M217 -133h-142v833h142v-833z" />
    <glyph glyph-name="braceright" unicode="}" horiz-adv-x="391" 
d="M157 436v77q0 26 -15.5 42.5t-39.5 16.5h-52v128h76q80 0 126.5 -52t46.5 -127v-117q0 -26 15.5 -42.5t39.5 -16.5h37v-123h-37q-24 0 -39.5 -16.5t-15.5 -42.5v-117q0 -75 -46.5 -127t-126.5 -52h-76v128h52q24 0 39.5 16.5t15.5 42.5v77q0 106 79 152q-79 47 -79 153z
" />
    <glyph glyph-name="asciitilde" unicode="~" horiz-adv-x="659" 
d="M133 234l-63 99q78 80 153 80q35 0 101 -25.5t94 -25.5q58 0 108 53l63 -99q-78 -80 -153 -80q-34 0 -100 25.5t-95 25.5q-58 0 -108 -53z" />
    <glyph glyph-name="exclamdown" unicode="&#xa1;" 
d="M221 289l25 -489h-186l25 489h136zM58 433q0 36 27.5 61.5t66.5 25.5t66.5 -25.5t27.5 -61.5t-27.5 -61.5t-66.5 -25.5t-66.5 25.5t-27.5 61.5z" />
    <glyph glyph-name="cent" unicode="&#xa2;" horiz-adv-x="607" 
d="M409 -34h-142v67q-105 22 -168.5 96.5t-63.5 176.5t66 170.5t166 89.5v66h142v-61q74 -8 152 -40l-39 -146q-92 50 -177 50q-57 0 -96.5 -34t-39.5 -91q0 -62 39.5 -93.5t104.5 -31.5q79 0 166 30l38 -145q-67 -30 -148 -40v-64z" />
    <glyph glyph-name="sterling" unicode="&#xa3;" horiz-adv-x="669" 
d="M49 276v134h90v50q0 137 48.5 200.5t156.5 63.5q89 0 191 -27l-39 -146q-80 34 -119 34q-36 0 -54 -23t-18 -80v-72h199v-134h-199v-109q10 -3 34.5 -12.5l37 -14t31.5 -8.5t34 -4q69 0 131 64l76 -120q-97 -97 -185 -97q-42 0 -122 31t-115 31q-69 0 -131 -64l-76 120
q62 62 119 84v99h-90z" />
    <glyph glyph-name="currency" unicode="&#xa4;" horiz-adv-x="600" 
d="M471 599l89 -88l-52 -52q36 -55 36 -120t-36 -120l52 -51l-89 -88l-57 56q-52 -26 -114 -26q-63 0 -115 26l-57 -57l-88 89l52 52q-35 54 -35 119q0 66 35 119l-52 53l88 89l57 -58q54 27 115 27q60 0 114 -27zM201 339q0 -42 28.5 -70.5t70.5 -28.5t70.5 28.5t28.5 70.5
t-28.5 71t-70.5 29t-70.5 -29t-28.5 -71z" />
    <glyph glyph-name="yen" unicode="&#xa5;" horiz-adv-x="780" 
d="M141 282v122h55l-189 296h211l182 -292l180 292h193l-186 -296h51v-122h-128l-30 -48h158v-122h-158v-112h-175v112h-164v122h163l-30 48h-133z" />
    <glyph glyph-name="brokenbar" unicode="&#xa6;" horiz-adv-x="292" 
d="M217 360h-142v340h142v-340zM217 -133h-142v340h142v-340z" />
    <glyph glyph-name="section" unicode="&#xa7;" horiz-adv-x="731" 
d="M627 679l-47 -147q-38 18 -99 32t-107 14q-49 0 -81 -14t-32 -43q0 -16 10 -28t31 -19t40.5 -11.5t50 -10.5t48.5 -10q98 -24 154 -67.5t56 -128.5q0 -73 -78 -127q76 -53 76 -139q0 -88 -88 -146t-208 -58q-65 0 -151 15t-124 36l38 140q44 -16 111.5 -27.5t124.5 -11.5
q55 0 88.5 15.5t33.5 43.5q0 20 -23 34t-50 20t-71 13q-247 37 -247 197q0 77 78 129q-76 55 -76 137q0 89 84 146.5t204 57.5q142 0 254 -42zM367 316q-51 0 -82.5 -17t-31.5 -47q0 -29 31.5 -46t82.5 -17t82.5 17t31.5 46q0 30 -31.5 47t-82.5 17z" />
    <glyph glyph-name="dieresis" unicode="&#xa8;" horiz-adv-x="398" 
d="M-3 662q0 33 22 55.5t58 22.5t58 -22.5t22 -55.5t-22 -55.5t-58 -22.5t-58 22.5t-22 55.5zM243 662q0 33 22 55.5t58 22.5t58 -22.5t22 -55.5t-22 -55.5t-58 -22.5t-58 22.5t-22 55.5z" />
    <glyph glyph-name="copyright" unicode="&#xa9;" horiz-adv-x="863" 
d="M563 423l36 117q-83 32 -149 32q-110 0 -180.5 -61.5t-70.5 -160.5q0 -100 68 -165t183 -65q36 0 80 11t73 28l-30 111q-76 -26 -123 -26q-52 0 -85.5 29.5t-33.5 79.5q0 48 33.5 75.5t85.5 27.5q43 0 113 -33zM43 348q0 158 113.5 269t274.5 111t275 -111t114 -269
t-113.5 -268.5t-275.5 -110.5q-161 0 -274.5 110.5t-113.5 268.5zM144 348q0 -119 84 -203t203 -84t203.5 84t84.5 203t-84.5 203.5t-203.5 84.5t-203 -84.5t-84 -203.5z" />
    <glyph glyph-name="ordfeminine" unicode="&#xaa;" horiz-adv-x="528" 
d="M438 535v-123q0 -18 18 -18q19 0 43 14l29 -99q-28 -18 -65 -30.5t-66 -12.5q-44 0 -67 27t-25 69l-3 1q-21 -42 -60 -69.5t-89 -27.5q-55 0 -94 35t-39 91q0 61 46.5 96.5t111.5 35.5q62 0 124 -26v38q0 21 -13.5 33.5t-39.5 12.5q-55 0 -165 -40l-35 127q119 41 209 41
q180 0 180 -175zM206 380q31 0 58 19t38 46q-46 11 -78 11q-66 0 -66 -41q0 -16 13 -25.5t35 -9.5z" />
    <glyph glyph-name="guillemotleft" unicode="&#xab;" horiz-adv-x="556" 
d="M50 183v118l159 132l71 -77l-114 -115l114 -113l-71 -78zM271 183v118l160 132l70 -77l-115 -115l115 -113l-70 -78z" />
    <glyph glyph-name="logicalnot" unicode="&#xac;" horiz-adv-x="657" 
d="M90 384v122h477v-297h-116v175h-361z" />
    <glyph glyph-name="registered" unicode="&#xae;" horiz-adv-x="863" 
d="M252 557v-413h120v128h63l65 -128h127l-73 142q43 17 66.5 50t23.5 75q0 63 -47.5 104.5t-124.5 41.5h-220zM472 376h-100v69h100q18 0 29 -10.5t11 -23.5q0 -16 -10.5 -25.5t-29.5 -9.5zM43 348q0 158 113.5 269t274.5 111t275 -111t114 -269t-113.5 -268.5
t-275.5 -110.5q-161 0 -274.5 110.5t-113.5 268.5zM144 348q0 -119 84 -203t203 -84t203.5 84t84.5 203t-84.5 203.5t-203.5 84.5t-203 -84.5t-84 -203.5z" />
    <glyph glyph-name="degree" unicode="&#xb0;" horiz-adv-x="451" 
d="M57 554q0 68 50 116t121 48t121 -48t50 -116t-50 -116t-121 -48t-121 48t-50 116zM159 554q0 -28 20.5 -48.5t48.5 -20.5t48.5 20.5t20.5 48.5t-20.5 48.5t-48.5 20.5t-48.5 -20.5t-20.5 -48.5z" />
    <glyph glyph-name="plusminus" unicode="&#xb1;" horiz-adv-x="657" 
d="M90 266v118h177v177h122v-177h178v-118h-178v-134h-122v134h-177zM90 0v118h477v-118h-477z" />
    <glyph glyph-name="twosuperior" unicode="&#xb2;" horiz-adv-x="408" 
d="M212 588q-22 0 -52 -18.5t-55 -46.5l-95 87q41 44 95.5 73t99.5 29q81 0 127 -39.5t46 -94.5q0 -48 -42.5 -87t-136.5 -91h171v-127h-323l-26 121l163 111q59 41 59 61q0 22 -31 22z" />
    <glyph glyph-name="threesuperior" unicode="&#xb3;" horiz-adv-x="426" 
d="M139 440v99h64q48 0 48 26q0 9 -9.5 16t-26.5 7q-55 0 -119 -50l-86 86q44 41 98.5 64t108.5 23q76 0 120.5 -37t44.5 -89q0 -25 -18.5 -49.5t-41.5 -37.5q30 -11 52 -36t22 -60q0 -58 -46.5 -99.5t-121.5 -41.5q-122 0 -217 86l86 92q63 -53 124 -53q19 0 32 7.5
t13 18.5q0 28 -60 28h-67z" />
    <glyph glyph-name="acute" unicode="&#xb4;" horiz-adv-x="228" 
d="M229 769l-133 -213l-116 47l71 166h178z" />
    <glyph glyph-name="mu" unicode="&#xb5;" horiz-adv-x="702" 
d="M68 -240v740h166v-254q0 -53 27.5 -85.5t79.5 -32.5q54 0 90.5 38.5t36.5 104.5v229h166v-500h-128l-19 80q-25 -48 -66.5 -72t-90.5 -24q-69 0 -115 55l19 -279h-166z" />
    <glyph glyph-name="paragraph" unicode="&#xb6;" horiz-adv-x="769" 
d="M382 -133h-142v398q-89 0 -152 64t-63 154q0 89 63 153t152 64h469v-132h-80v-701h-142v701h-105v-701z" />
    <glyph glyph-name="periodcentered" unicode="&#xb7;" horiz-adv-x="388" 
d="M100 300q0 36 27.5 61.5t66.5 25.5t66.5 -25.5t27.5 -61.5t-27.5 -61.5t-66.5 -25.5t-66.5 25.5t-27.5 61.5z" />
    <glyph glyph-name="cedilla" unicode="&#xb8;" horiz-adv-x="491" 
d="M124 -198l58 77q16 -9 41 -17t36 -8q24 0 24 17q0 18 -24 18h-93l53 145h105l-26 -77q39 -11 61 -37.5t22 -62.5q0 -41 -35.5 -71.5t-86.5 -30.5q-74 0 -135 47z" />
    <glyph glyph-name="onesuperior" unicode="&#xb9;" horiz-adv-x="264" 
d="M5 548v126l152 26h52v-429h-130v289q-38 -7 -74 -12z" />
    <glyph glyph-name="ordmasculine" unicode="&#xba;" horiz-adv-x="556" 
d="M278 710q108 0 183 -60t75 -160q0 -98 -73 -164t-185 -66t-185 66t-73 164q0 100 75 160t183 60zM278 586q-49 0 -82 -26.5t-33 -70.5t34 -75t81 -31t81 31t34 75t-33 70.5t-82 26.5z" />
    <glyph glyph-name="guillemotright" unicode="&#xbb;" horiz-adv-x="556" 
d="M506 300v-118l-159 -132l-71 77l114 115l-114 113l71 78zM285 300v-118l-160 -132l-70 77l115 115l-115 113l70 78z" />
    <glyph glyph-name="questiondown" unicode="&#xbf;" horiz-adv-x="550" 
d="M252 -73q89 0 182 97l118 -105q-56 -60 -136 -101.5t-158 -41.5q-123 0 -189 60t-66 147q0 78 61.5 138.5t150.5 95.5v72h136l5 -123q-52 -26 -87.5 -47.5t-66.5 -56t-31 -68.5q0 -28 23.5 -47.5t57.5 -19.5zM377 433q0 -36 -27.5 -61.5t-66.5 -25.5t-66.5 25.5
t-27.5 61.5t27.5 61.5t66.5 25.5t66.5 -25.5t27.5 -61.5z" />
    <glyph glyph-name="Agrave" unicode="&#xc0;" horiz-adv-x="805" 
d="M530 700l297 -700h-199l-44 106h-322l-43 -106h-195l297 700h209zM423 497l-94 -228h188zM361 746l-133 213h178l71 -166z" />
    <glyph glyph-name="Aacute" unicode="&#xc1;" horiz-adv-x="805" 
d="M530 700l297 -700h-199l-44 106h-322l-43 -106h-195l297 700h209zM423 497l-94 -228h188zM587 959l-133 -213l-116 47l71 166h178z" />
    <glyph glyph-name="Acircumflex" unicode="&#xc2;" horiz-adv-x="805" 
d="M530 700l297 -700h-199l-44 106h-322l-43 -106h-195l297 700h209zM423 497l-94 -228h188zM486 746l-84 116l-83 -116l-111 57l96 156h197l96 -156z" />
    <glyph glyph-name="Atilde" unicode="&#xc3;" horiz-adv-x="805" 
d="M530 700l297 -700h-199l-44 106h-322l-43 -106h-195l297 700h209zM423 497l-94 -228h188zM546 938l61 -113q-23 -26 -58.5 -43t-69.5 -17q-28 0 -73.5 17t-69.5 17q-45 0 -78 -39l-61 113q23 26 58.5 43t69.5 17q28 0 73.5 -17t69.5 -17q45 0 78 39z" />
    <glyph glyph-name="Adieresis" unicode="&#xc4;" horiz-adv-x="805" 
d="M530 700l297 -700h-199l-44 106h-322l-43 -106h-195l297 700h209zM423 497l-94 -228h188zM199 852q0 33 22 55.5t58 22.5t58 -22.5t22 -55.5t-22 -55.5t-58 -22.5t-58 22.5t-22 55.5zM445 852q0 33 22 55.5t58 22.5t58 -22.5t22 -55.5t-22 -55.5t-58 -22.5t-58 22.5
t-22 55.5z" />
    <glyph glyph-name="Aring" unicode="&#xc5;" horiz-adv-x="805" 
d="M507 700l297 -700h-199l-44 106h-322l-43 -106h-195l297 700h77q-51 8 -85.5 43.5t-34.5 81.5q0 52 43 89.5t104 37.5t104 -37.5t43 -89.5q0 -46 -34.5 -81.5t-86.5 -43.5h79zM400 497l-94 -228h188zM351 825q0 -19 15 -33t36 -14t36 14t15 33t-15 32.5t-36 13.5
t-36 -13.5t-15 -32.5z" />
    <glyph glyph-name="AE" unicode="&#xc6;" horiz-adv-x="1232" 
d="M564 0v115h-298l-81 -115h-205l504 700h679v-162h-424v-105h385v-156h-385v-116h440v-161h-615zM381 278h183v258z" />
    <glyph glyph-name="Ccedilla" unicode="&#xc7;" horiz-adv-x="766" 
d="M714 678l-53 -171q-104 49 -192 49q-98 0 -164.5 -52t-66.5 -143q0 -93 67 -148.5t164 -55.5t210 40l44 -164q-45 -25 -118.5 -41.5t-135.5 -16.5q-197 0 -311.5 108t-114.5 273t118.5 267t307.5 102q121 0 245 -47zM314 -198l58 77q16 -9 41 -17t36 -8q24 0 24 17
q0 18 -24 18h-93l53 145h105l-26 -77q39 -11 61 -37.5t22 -62.5q0 -41 -35.5 -71.5t-86.5 -30.5q-74 0 -135 47z" />
    <glyph glyph-name="Egrave" unicode="&#xc8;" horiz-adv-x="766" 
d="M88 0v700h609v-162h-434v-105h395v-156h-395v-116h450v-161h-625zM351 746l-133 213h178l71 -166z" />
    <glyph glyph-name="Eacute" unicode="&#xc9;" horiz-adv-x="766" 
d="M88 0v700h609v-162h-434v-105h395v-156h-395v-116h450v-161h-625zM567 959l-133 -213l-116 47l71 166h178z" />
    <glyph glyph-name="Ecircumflex" unicode="&#xca;" horiz-adv-x="766" 
d="M88 0v700h609v-162h-434v-105h395v-156h-395v-116h450v-161h-625zM466 746l-84 116l-83 -116l-111 57l96 156h197l96 -156z" />
    <glyph glyph-name="Edieresis" unicode="&#xcb;" horiz-adv-x="766" 
d="M88 0v700h609v-162h-434v-105h395v-156h-395v-116h450v-161h-625zM180 852q0 33 22 55.5t58 22.5t58 -22.5t22 -55.5t-22 -55.5t-58 -22.5t-58 22.5t-22 55.5zM426 852q0 33 22 55.5t58 22.5t58 -22.5t22 -55.5t-22 -55.5t-58 -22.5t-58 22.5t-22 55.5z" />
    <glyph glyph-name="Igrave" unicode="&#xcc;" horiz-adv-x="361" 
d="M278 700v-700h-185v700h185zM129 746l-133 213h178l71 -166z" />
    <glyph glyph-name="Iacute" unicode="&#xcd;" horiz-adv-x="361" 
d="M278 700v-700h-185v700h185zM375 959l-133 -213l-116 47l71 166h178z" />
    <glyph glyph-name="Icircumflex" unicode="&#xce;" horiz-adv-x="361" 
d="M278 700v-700h-185v700h185zM264 737l-84 116l-83 -116l-111 57l96 156h197l96 -156z" />
    <glyph glyph-name="Idieresis" unicode="&#xcf;" horiz-adv-x="361" 
d="M17 848q0 33 21 55.5t55 22.5t55 -22.5t21 -55.5t-21 -55.5t-55 -22.5t-55 22.5t-21 55.5zM193 848q0 33 21 55.5t55 22.5t55 -22.5t21 -55.5t-21 -55.5t-55 -22.5t-55 22.5t-21 55.5zM278 700v-700h-185v700h185z" />
    <glyph glyph-name="Eth" unicode="&#xd0;" horiz-adv-x="882" 
d="M-14 277v148h122v275h311q113 0 207.5 -39.5t153.5 -119t59 -183.5q0 -150 -120.5 -254t-299.5 -104h-311v277h-122zM283 161h136q96 0 160.5 55t64.5 143q0 87 -63.5 133t-161.5 46h-136v-113h123v-148h-123v-116z" />
    <glyph glyph-name="Ntilde" unicode="&#xd1;" horiz-adv-x="928" 
d="M620 0l-347 474v-474h-185v700h220l347 -475v475h185v-700h-220zM608 938l61 -113q-23 -26 -58.5 -43t-69.5 -17q-28 0 -73.5 17t-69.5 17q-45 0 -78 -39l-61 113q23 26 58.5 43t69.5 17q28 0 73.5 -17t69.5 -17q45 0 78 39z" />
    <glyph glyph-name="Ograve" unicode="&#xd2;" horiz-adv-x="938" 
d="M469 -25q184 0 305 111t121 272q0 111 -59 195.5t-155 128t-212 43.5t-212 -43.5t-155 -128t-59 -195.5q0 -161 121 -272t305 -111zM469 143q-97 0 -164 60t-67 156q0 93 66 146t165 53t165 -53t66 -146q0 -96 -67 -156t-164 -60zM417 746l-133 213h178l71 -166z" />
    <glyph glyph-name="Oacute" unicode="&#xd3;" horiz-adv-x="938" 
d="M469 -25q-184 0 -305 111t-121 272q0 111 59 195.5t155 128t212 43.5t212 -43.5t155 -128t59 -195.5q0 -161 -121 -272t-305 -111zM469 143q97 0 164 60t67 156q0 93 -66 146t-165 53t-165 -53t-66 -146q0 -96 67 -156t164 -60zM663 959l-133 -213l-116 47l71 166h178z
" />
    <glyph glyph-name="Ocircumflex" unicode="&#xd4;" horiz-adv-x="938" 
d="M469 -25q184 0 305 111t121 272q0 111 -59 195.5t-155 128t-212 43.5t-212 -43.5t-155 -128t-59 -195.5q0 -161 121 -272t305 -111zM469 143q-97 0 -164 60t-67 156q0 93 66 146t165 53t165 -53t66 -146q0 -96 -67 -156t-164 -60zM552 746l-84 116l-83 -116l-111 57
l96 156h197l96 -156z" />
    <glyph glyph-name="Otilde" unicode="&#xd5;" horiz-adv-x="938" 
d="M469 -25q184 0 305 111t121 272q0 111 -59 195.5t-155 128t-212 43.5t-212 -43.5t-155 -128t-59 -195.5q0 -161 121 -272t305 -111zM469 143q-97 0 -164 60t-67 156q0 93 66 146t165 53t165 -53t66 -146q0 -96 -67 -156t-164 -60zM613 938l61 -113q-23 -26 -58.5 -43
t-69.5 -17q-28 0 -73.5 17t-69.5 17q-45 0 -78 -39l-61 113q23 26 58.5 43t69.5 17q28 0 73.5 -17t69.5 -17q45 0 78 39z" />
    <glyph glyph-name="Odieresis" unicode="&#xd6;" horiz-adv-x="938" 
d="M469 -25q184 0 305 111t121 272q0 111 -59 195.5t-155 128t-212 43.5t-212 -43.5t-155 -128t-59 -195.5q0 -161 121 -272t305 -111zM469 143q-97 0 -164 60t-67 156q0 93 66 146t165 53t165 -53t66 -146q0 -96 -67 -156t-164 -60zM266 852q0 33 22 55.5t58 22.5t58 -22.5
t22 -55.5t-22 -55.5t-58 -22.5t-58 22.5t-22 55.5zM512 852q0 33 22 55.5t58 22.5t58 -22.5t22 -55.5t-22 -55.5t-58 -22.5t-58 22.5t-22 55.5z" />
    <glyph glyph-name="multiply" unicode="&#xd7;" horiz-adv-x="618" 
d="M177 104l-87 86l132 132l-132 133l87 86l132 -132l133 133l86 -87l-133 -133l133 -132l-86 -87l-133 133z" />
    <glyph glyph-name="Oslash" unicode="&#xd8;" horiz-adv-x="938" 
d="M469 -25q-92 0 -177 32l-5 -7h-132l41 59q-73 53 -113 131t-40 168q0 111 59 195.5t155 128t212 43.5q93 0 178 -31l4 6h132l-39 -56q151 -105 151 -286q0 -161 -121 -272t-305 -111zM469 558q-99 0 -165 -53t-66 -146q0 -92 63 -153l243 343q-36 9 -75 9zM469 143
q97 0 164 60t67 156q0 86 -59 140l-246 -346q33 -10 74 -10z" />
    <glyph glyph-name="Ugrave" unicode="&#xd9;" horiz-adv-x="918" 
d="M459 -25q-103 0 -187 33.5t-139 110t-55 185.5v396h185v-396q0 -79 56 -120t140 -41t140 41t56 120v396h185v-396q0 -109 -55 -185.5t-139 -110t-187 -33.5zM410 746l-133 213h178l71 -166z" />
    <glyph glyph-name="Uacute" unicode="&#xda;" horiz-adv-x="918" 
d="M459 -25q-103 0 -187 33.5t-139 110t-55 185.5v396h185v-396q0 -79 56 -120t140 -41t140 41t56 120v396h185v-396q0 -109 -55 -185.5t-139 -110t-187 -33.5zM649 959l-133 -213l-116 47l71 166h178z" />
    <glyph glyph-name="Ucircumflex" unicode="&#xdb;" horiz-adv-x="918" 
d="M459 -25q-103 0 -187 33.5t-139 110t-55 185.5v396h185v-396q0 -79 56 -120t140 -41t140 41t56 120v396h185v-396q0 -109 -55 -185.5t-139 -110t-187 -33.5zM542 746l-84 116l-83 -116l-111 57l96 156h197l96 -156z" />
    <glyph glyph-name="Udieresis" unicode="&#xdc;" horiz-adv-x="918" 
d="M459 -25q-103 0 -187 33.5t-139 110t-55 185.5v396h185v-396q0 -79 56 -120t140 -41t140 41t56 120v396h185v-396q0 -109 -55 -185.5t-139 -110t-187 -33.5zM256 842q0 33 22 55.5t58 22.5t58 -22.5t22 -55.5t-22 -55.5t-58 -22.5t-58 22.5t-22 55.5zM502 842
q0 33 22 55.5t58 22.5t58 -22.5t22 -55.5t-22 -55.5t-58 -22.5t-58 22.5t-22 55.5z" />
    <glyph glyph-name="Yacute" unicode="&#xdd;" horiz-adv-x="780" 
d="M300 0v261l-302 440h216l182 -282l180 282h206l-297 -434v-267h-185zM590 959l-133 -213l-116 47l71 166h178z" />
    <glyph glyph-name="Thorn" unicode="&#xde;" horiz-adv-x="793" 
d="M263 119v-119h-175v700h175v-93h207q133 0 209 -69.5t76 -179.5q0 -105 -78 -172t-207 -67h-207zM263 275h207q44 0 67 24t23 61t-23 61.5t-67 24.5h-207v-171z" />
    <glyph glyph-name="agrave" unicode="&#xe0;" horiz-adv-x="637" 
d="M544 310v-150q0 -22 22 -22q23 0 53 18l35 -121q-34 -22 -79 -37.5t-81 -15.5q-53 0 -81.5 33t-30.5 84l-4 1q-25 -51 -73 -84.5t-109 -33.5q-66 0 -114 43t-48 111q0 73 56.5 117t136.5 44q77 0 151 -32v47q0 25 -16.5 40.5t-47.5 15.5q-67 0 -202 -49l-42 155
q146 50 254 50q220 0 220 -214zM261 121q37 0 70.5 23.5t46.5 56.5q-56 13 -95 13q-80 0 -80 -50q0 -20 15.5 -31.5t42.5 -11.5zM242 556l-133 213h178l71 -166z" />
    <glyph glyph-name="aacute" unicode="&#xe1;" horiz-adv-x="637" 
d="M544 310v-150q0 -22 22 -22q23 0 53 18l35 -121q-34 -22 -79 -37.5t-81 -15.5q-53 0 -81.5 33t-30.5 84l-4 1q-25 -51 -73 -84.5t-109 -33.5q-66 0 -114 43t-48 111q0 73 56.5 117t136.5 44q77 0 151 -32v47q0 25 -16.5 40.5t-47.5 15.5q-67 0 -202 -49l-42 155
q146 50 254 50q220 0 220 -214zM261 121q37 0 70.5 23.5t46.5 56.5q-56 13 -95 13q-80 0 -80 -50q0 -20 15.5 -31.5t42.5 -11.5zM486 769l-133 -213l-116 47l71 166h178z" />
    <glyph glyph-name="acircumflex" unicode="&#xe2;" horiz-adv-x="637" 
d="M544 310v-150q0 -22 22 -22q23 0 53 18l35 -121q-34 -22 -79 -37.5t-81 -15.5q-53 0 -81.5 33t-30.5 84l-4 1q-25 -51 -73 -84.5t-109 -33.5q-66 0 -114 43t-48 111q0 73 56.5 117t136.5 44q77 0 151 -32v47q0 25 -16.5 40.5t-47.5 15.5q-67 0 -202 -49l-42 155
q146 50 254 50q220 0 220 -214zM261 121q37 0 70.5 23.5t46.5 56.5q-56 13 -95 13q-80 0 -80 -50q0 -20 15.5 -31.5t42.5 -11.5zM392 556l-84 116l-83 -116l-111 57l96 156h197l96 -156z" />
    <glyph glyph-name="atilde" unicode="&#xe3;" horiz-adv-x="637" 
d="M544 310v-150q0 -22 22 -22q23 0 53 18l35 -121q-34 -22 -79 -37.5t-81 -15.5q-53 0 -81.5 33t-30.5 84l-4 1q-25 -51 -73 -84.5t-109 -33.5q-66 0 -114 43t-48 111q0 73 56.5 117t136.5 44q77 0 151 -32v47q0 25 -16.5 40.5t-47.5 15.5q-67 0 -202 -49l-42 155
q146 50 254 50q220 0 220 -214zM261 121q37 0 70.5 23.5t46.5 56.5q-56 13 -95 13q-80 0 -80 -50q0 -20 15.5 -31.5t42.5 -11.5zM459 748l61 -113q-23 -26 -58.5 -43t-69.5 -17q-28 0 -73.5 17t-69.5 17q-45 0 -78 -39l-61 113q23 26 58.5 43t69.5 17q28 0 73.5 -17
t69.5 -17q45 0 78 39z" />
    <glyph glyph-name="adieresis" unicode="&#xe4;" horiz-adv-x="637" 
d="M544 310v-150q0 -22 22 -22q23 0 53 18l35 -121q-34 -22 -79 -37.5t-81 -15.5q-53 0 -81.5 33t-30.5 84l-4 1q-25 -51 -73 -84.5t-109 -33.5q-66 0 -114 43t-48 111q0 73 56.5 117t136.5 44q77 0 151 -32v47q0 25 -16.5 40.5t-47.5 15.5q-67 0 -202 -49l-42 155
q146 50 254 50q220 0 220 -214zM261 121q37 0 70.5 23.5t46.5 56.5q-56 13 -95 13q-80 0 -80 -50q0 -20 15.5 -31.5t42.5 -11.5zM115 662q0 33 22 55.5t58 22.5t58 -22.5t22 -55.5t-22 -55.5t-58 -22.5t-58 22.5t-22 55.5zM361 662q0 33 22 55.5t58 22.5t58 -22.5t22 -55.5
t-22 -55.5t-58 -22.5t-58 22.5t-22 55.5z" />
    <glyph glyph-name="aring" unicode="&#xe5;" horiz-adv-x="637" 
d="M170 665q0 52 43 89.5t104 37.5t104 -37.5t43 -89.5t-43 -89.5t-104 -37.5t-104 37.5t-43 89.5zM266 665q0 -19 15 -33t36 -14t36 14t15 33t-15 32.5t-36 13.5t-36 -13.5t-15 -32.5zM544 310v-150q0 -22 22 -22q23 0 53 18l35 -121q-34 -22 -79 -37.5t-81 -15.5
q-53 0 -81.5 33t-30.5 84l-4 1q-25 -51 -73 -84.5t-109 -33.5q-66 0 -114 43t-48 111q0 73 56.5 117t136.5 44q77 0 151 -32v47q0 25 -16.5 40.5t-47.5 15.5q-67 0 -202 -49l-42 155q146 50 254 50q220 0 220 -214zM261 121q37 0 70.5 23.5t46.5 56.5q-56 13 -95 13
q-80 0 -80 -50q0 -20 15.5 -31.5t42.5 -11.5z" />
    <glyph glyph-name="ae" unicode="&#xe6;" horiz-adv-x="967" 
d="M894 174l40 -148q-47 -20 -119 -35t-126 -15q-94 0 -166 38t-110 104q-28 -57 -85.5 -96.5t-131.5 -39.5q-66 0 -114 43t-48 111q0 73 56.5 117t136.5 44q78 0 150 -32q0 11 1 16v31q0 25 -16.5 40.5t-47.5 15.5q-67 0 -202 -49l-42 155q146 50 254 50q113 0 167 -56
q86 56 198 56q96 0 168 -49.5t72 -124.5q0 -74 -60 -107.5t-153 -33.5q-80 0 -164 22q15 -97 148 -97q90 0 194 40zM749 344q0 19 -16 30t-41 11q-45 0 -81 -22.5t-51 -60.5q38 -6 91 -6q98 0 98 48zM261 121q37 0 70.5 23.5t46.5 56.5q-56 13 -95 13q-80 0 -80 -50
q0 -20 15.5 -31.5t42.5 -11.5z" />
    <glyph glyph-name="ccedilla" unicode="&#xe7;" horiz-adv-x="604" 
d="M193 -198l58 77q16 -9 41 -17t36 -8q24 0 24 17q0 18 -24 18h-93l34 94q-107 20 -172 94.5t-65 178.5q0 121 91.5 194.5t215.5 73.5q115 0 219 -43l-39 -146q-92 50 -177 50q-57 0 -96.5 -34t-39.5 -91q0 -62 39.5 -93.5t104.5 -31.5q79 0 166 30l38 -145
q-83 -35 -180 -43l-7 -20q39 -11 61 -37.5t22 -62.5q0 -41 -35.5 -71.5t-86.5 -30.5q-74 0 -135 47z" />
    <glyph glyph-name="egrave" unicode="&#xe8;" horiz-adv-x="622" 
d="M549 174q-104 -40 -194 -40q-133 0 -148 97q84 -22 164 -22q93 0 153 33.5t60 107.5q0 75 -72 124.5t-168 49.5q-130 0 -221 -73t-91 -195q0 -120 86.5 -200t225.5 -80q54 0 126 15t119 35zM306 296q-53 0 -91 6q15 38 51 60.5t81 22.5q25 0 41 -11t16 -30q0 -48 -98 -48
zM289 556l-133 213h178l71 -166z" />
    <glyph glyph-name="eacute" unicode="&#xe9;" horiz-adv-x="622" 
d="M549 174l40 -148q-47 -20 -119 -35t-126 -15q-139 0 -225.5 80t-86.5 200q0 122 91 195t221 73q96 0 168 -49.5t72 -124.5q0 -74 -60 -107.5t-153 -33.5q-80 0 -164 22q15 -97 148 -97q90 0 194 40zM306 296q98 0 98 48q0 19 -16 30t-41 11q-45 0 -81 -22.5t-51 -60.5
q38 -6 91 -6zM520 769l-133 -213l-116 47l71 166h178z" />
    <glyph glyph-name="ecircumflex" unicode="&#xea;" horiz-adv-x="622" 
d="M549 174q-104 -40 -194 -40q-133 0 -148 97q84 -22 164 -22q93 0 153 33.5t60 107.5q0 75 -72 124.5t-168 49.5q-130 0 -221 -73t-91 -195q0 -120 86.5 -200t225.5 -80q54 0 126 15t119 35zM306 296q-53 0 -91 6q15 38 51 60.5t81 22.5q25 0 41 -11t16 -30q0 -48 -98 -48
zM406 556l-84 116l-83 -116l-111 57l96 156h197l96 -156z" />
    <glyph glyph-name="edieresis" unicode="&#xeb;" horiz-adv-x="622" 
d="M549 174q-104 -40 -194 -40q-133 0 -148 97q84 -22 164 -22q93 0 153 33.5t60 107.5q0 75 -72 124.5t-168 49.5q-130 0 -221 -73t-91 -195q0 -120 86.5 -200t225.5 -80q54 0 126 15t119 35zM306 296q-53 0 -91 6q15 38 51 60.5t81 22.5q25 0 41 -11t16 -30q0 -48 -98 -48
zM108 662q0 33 22 55.5t58 22.5t58 -22.5t22 -55.5t-22 -55.5t-58 -22.5t-58 22.5t-22 55.5zM354 662q0 33 22 55.5t58 22.5t58 -22.5t22 -55.5t-22 -55.5t-58 -22.5t-58 22.5t-22 55.5z" />
    <glyph glyph-name="igrave" unicode="&#xec;" 
d="M236 500v-500h-166v500h166zM112 556l-133 213h178l71 -166z" />
    <glyph glyph-name="iacute" unicode="&#xed;" 
d="M236 500v-500h-166v500h166zM328 769l-133 -213l-116 47l71 166h178z" />
    <glyph glyph-name="icircumflex" unicode="&#xee;" 
d="M236 500v-500h-166v500h166zM236 556l-84 116l-83 -116l-111 57l96 156h197l96 -156z" />
    <glyph glyph-name="idieresis" unicode="&#xef;" 
d="M236 500v-500h-166v500h166zM-12 662q0 33 21 55.5t55 22.5t55 -22.5t21 -55.5t-21 -55.5t-55 -22.5t-55 22.5t-21 55.5zM164 662q0 33 21 55.5t55 22.5t55 -22.5t21 -55.5t-21 -55.5t-55 -22.5t-55 22.5t-21 55.5z" />
    <glyph glyph-name="eth" unicode="&#xf0;" horiz-adv-x="714" 
d="M157 475l-37 77l112 53q-32 15 -53 23l72 124q73 -29 141 -71l135 65l35 -78l-87 -42q94 -71 150.5 -153.5t56.5 -166.5v-26q0 -127 -91.5 -215.5t-233.5 -88.5q-136 0 -230.5 82t-94.5 188q0 117 70.5 181.5t178.5 64.5q66 0 128.5 -32.5t106.5 -80.5l9 5
q-45 87 -196 173zM312 345q-50 0 -77.5 -25.5t-27.5 -73.5q0 -46 42.5 -82.5t108.5 -36.5q65 0 111 43t46 94v6q-93 75 -203 75z" />
    <glyph glyph-name="ntilde" unicode="&#xf1;" horiz-adv-x="698" 
d="M364 371q-54 0 -92 -36.5t-38 -99.5v-235h-166v500h136l17 -94q67 118 202 118q104 0 160.5 -73.5t56.5 -184.5v-266h-166v253q0 54 -27.5 86t-82.5 32zM493 748l61 -113q-23 -26 -58.5 -43t-69.5 -17q-28 0 -73.5 17t-69.5 17q-45 0 -78 -39l-61 113q23 26 58.5 43
t69.5 17q28 0 73.5 -17t69.5 -17q45 0 78 39z" />
    <glyph glyph-name="ograve" unicode="&#xf2;" horiz-adv-x="694" 
d="M347 524q-132 0 -223.5 -73t-91.5 -195q0 -119 89 -199.5t226 -80.5t226 80.5t89 199.5q0 122 -91.5 195t-223.5 73zM347 373q59 0 99.5 -32.5t40.5 -85.5q0 -54 -41 -91.5t-99 -37.5t-99 37.5t-41 91.5q0 53 40.5 85.5t99.5 32.5zM301 556l-133 213h178l71 -166z" />
    <glyph glyph-name="oacute" unicode="&#xf3;" horiz-adv-x="694" 
d="M347 524q132 0 223.5 -73t91.5 -195q0 -119 -89 -199.5t-226 -80.5t-226 80.5t-89 199.5q0 122 91.5 195t223.5 73zM347 373q-59 0 -99.5 -32.5t-40.5 -85.5q0 -54 41 -91.5t99 -37.5t99 37.5t41 91.5q0 53 -40.5 85.5t-99.5 32.5zM525 769l-133 -213l-116 47l71 166h178
z" />
    <glyph glyph-name="ocircumflex" unicode="&#xf4;" horiz-adv-x="694" 
d="M347 524q-132 0 -223.5 -73t-91.5 -195q0 -119 89 -199.5t226 -80.5t226 80.5t89 199.5q0 122 -91.5 195t-223.5 73zM347 373q59 0 99.5 -32.5t40.5 -85.5q0 -54 -41 -91.5t-99 -37.5t-99 37.5t-41 91.5q0 53 40.5 85.5t99.5 32.5zM430 556l-84 116l-83 -116l-111 57
l96 156h197l96 -156z" />
    <glyph glyph-name="otilde" unicode="&#xf5;" horiz-adv-x="694" 
d="M347 524q-132 0 -223.5 -73t-91.5 -195q0 -119 89 -199.5t226 -80.5t226 80.5t89 199.5q0 122 -91.5 195t-223.5 73zM347 373q59 0 99.5 -32.5t40.5 -85.5q0 -54 -41 -91.5t-99 -37.5t-99 37.5t-41 91.5q0 53 40.5 85.5t99.5 32.5zM491 748l61 -113q-23 -26 -58.5 -43
t-69.5 -17q-28 0 -73.5 17t-69.5 17q-45 0 -78 -39l-61 113q23 26 58.5 43t69.5 17q28 0 73.5 -17t69.5 -17q45 0 78 39z" />
    <glyph glyph-name="odieresis" unicode="&#xf6;" horiz-adv-x="694" 
d="M347 524q-132 0 -223.5 -73t-91.5 -195q0 -119 89 -199.5t226 -80.5t226 80.5t89 199.5q0 122 -91.5 195t-223.5 73zM347 373q59 0 99.5 -32.5t40.5 -85.5q0 -54 -41 -91.5t-99 -37.5t-99 37.5t-41 91.5q0 53 40.5 85.5t99.5 32.5zM144 662q0 33 22 55.5t58 22.5
t58 -22.5t22 -55.5t-22 -55.5t-58 -22.5t-58 22.5t-22 55.5zM390 662q0 33 22 55.5t58 22.5t58 -22.5t22 -55.5t-22 -55.5t-58 -22.5t-58 22.5t-22 55.5z" />
    <glyph glyph-name="divide" unicode="&#xf7;" horiz-adv-x="657" 
d="M90 262v122h477v-122h-477zM235 139q0 36 27.5 61.5t66.5 25.5t66.5 -25.5t27.5 -61.5t-27.5 -61.5t-66.5 -25.5t-66.5 25.5t-27.5 61.5zM235 505q0 36 27.5 61.5t66.5 25.5t66.5 -25.5t27.5 -61.5t-27.5 -61.5t-66.5 -25.5t-66.5 25.5t-27.5 61.5z" />
    <glyph glyph-name="oslash" unicode="&#xf8;" horiz-adv-x="694" 
d="M214 0h-132l42 53q-92 81 -92 203t91.5 195t223.5 73q70 0 137 -24h129l-40 -51q89 -74 89 -193t-89 -199.5t-226 -80.5q-71 0 -133 24zM347 373q-59 0 -99.5 -32.5t-40.5 -85.5q0 -39 22 -70l148 185q-15 3 -30 3zM347 126q58 0 99 37.5t41 91.5q0 35 -19 63l-151 -189
q13 -3 30 -3z" />
    <glyph glyph-name="ugrave" unicode="&#xf9;" horiz-adv-x="692" 
d="M331 128q53 0 90 36.5t37 99.5v236h166v-500h-136l-18 94q-29 -50 -82.5 -83.5t-121.5 -33.5q-96 0 -152 67t-56 177v279h166v-254q0 -53 27.5 -85.5t79.5 -32.5zM300 556l-133 213h178l71 -166z" />
    <glyph glyph-name="uacute" unicode="&#xfa;" horiz-adv-x="692" 
d="M331 128q53 0 90 36.5t37 99.5v236h166v-500h-136l-18 94q-29 -50 -82.5 -83.5t-121.5 -33.5q-96 0 -152 67t-56 177v279h166v-254q0 -53 27.5 -85.5t79.5 -32.5zM537 769l-133 -213l-116 47l71 166h178z" />
    <glyph glyph-name="ucircumflex" unicode="&#xfb;" horiz-adv-x="692" 
d="M331 128q53 0 90 36.5t37 99.5v236h166v-500h-136l-18 94q-29 -50 -82.5 -83.5t-121.5 -33.5q-96 0 -152 67t-56 177v279h166v-254q0 -53 27.5 -85.5t79.5 -32.5zM429 556l-84 116l-83 -116l-111 57l96 156h197l96 -156z" />
    <glyph glyph-name="udieresis" unicode="&#xfc;" horiz-adv-x="692" 
d="M331 128q53 0 90 36.5t37 99.5v236h166v-500h-136l-18 94q-29 -50 -82.5 -83.5t-121.5 -33.5q-96 0 -152 67t-56 177v279h166v-254q0 -53 27.5 -85.5t79.5 -32.5zM143 662q0 33 22 55.5t58 22.5t58 -22.5t22 -55.5t-22 -55.5t-58 -22.5t-58 22.5t-22 55.5zM389 662
q0 33 22 55.5t58 22.5t58 -22.5t22 -55.5t-22 -55.5t-58 -22.5t-58 22.5t-22 55.5z" />
    <glyph glyph-name="yacute" unicode="&#xfd;" horiz-adv-x="643" 
d="M76 -238l12 148q38 -7 69 -7q34 0 56 17t45 63l-254 517h176l157 -330l134 330h171l-213 -493q-22 -50 -38 -82.5t-40.5 -69t-49.5 -57t-60 -34.5t-76 -14t-89 12zM517 769l-133 -213l-116 47l71 166h178z" />
    <glyph glyph-name="thorn" unicode="&#xfe;" horiz-adv-x="701" 
d="M68 -240v990h166v-323q65 97 189 97q102 0 174 -78.5t72 -189.5q0 -119 -89 -199.5t-226 -80.5q-64 0 -120 24v-240h-166zM364 371q-58 0 -94 -36t-36 -100v-99q55 -20 120 -20q58 0 99 36.5t41 90.5q0 57 -37.5 92.5t-92.5 35.5z" />
    <glyph glyph-name="ydieresis" unicode="&#xff;" horiz-adv-x="643" 
d="M76 -238l12 148q38 -7 69 -7q34 0 56 17t45 63l-254 517h176l157 -330l134 330h171l-213 -493q-22 -50 -38 -82.5t-40.5 -69t-49.5 -57t-60 -34.5t-76 -14t-89 12zM118 662q0 33 22 55.5t58 22.5t58 -22.5t22 -55.5t-22 -55.5t-58 -22.5t-58 22.5t-22 55.5zM364 662
q0 33 22 55.5t58 22.5t58 -22.5t22 -55.5t-22 -55.5t-58 -22.5t-58 22.5t-22 55.5z" />
    <glyph glyph-name="abreve" unicode="&#x103;" horiz-adv-x="637" 
d="M544 310v-150q0 -22 22 -22q23 0 53 18l35 -121q-34 -22 -79 -37.5t-81 -15.5q-53 0 -81.5 33t-30.5 84l-4 1q-25 -51 -73 -84.5t-109 -33.5q-66 0 -114 43t-48 111q0 73 56.5 117t136.5 44q77 0 151 -32v47q0 25 -16.5 40.5t-47.5 15.5q-67 0 -202 -49l-42 155
q146 50 254 50q220 0 220 -214zM261 121q37 0 70.5 23.5t46.5 56.5q-56 13 -95 13q-80 0 -80 -50q0 -20 15.5 -31.5t42.5 -11.5zM425 758l114 -31q-25 -83 -82.5 -127t-138.5 -44t-138.5 44t-82.5 127l114 31q30 -83 107 -83t107 83z" />
    <glyph glyph-name="aogonek" unicode="&#x105;" horiz-adv-x="637" 
d="M622 -114l41 -79q-27 -23 -67 -37t-79 -14q-52 0 -90 32.5t-38 85.5q0 60 59 116q-64 25 -66 109l-4 1q-25 -51 -73 -84.5t-109 -33.5q-66 0 -114 43t-48 111q0 73 56.5 117t136.5 44q77 0 151 -32v47q0 25 -16.5 40.5t-47.5 15.5q-67 0 -202 -49l-42 155q146 50 254 50
q220 0 220 -214v-150q0 -22 22 -22q23 0 53 18l35 -121q-53 -35 -100 -76.5t-47 -67.5q0 -31 35 -31q20 0 43.5 8.5t36.5 17.5zM261 121q37 0 70.5 23.5t46.5 56.5q-56 13 -95 13q-80 0 -80 -50q0 -20 15.5 -31.5t42.5 -11.5z" />
    <glyph glyph-name="OE" unicode="&#x152;" horiz-adv-x="1295" 
d="M469 -25q-184 0 -305 111t-121 272q0 111 59 195.5t155 128t212 43.5q78 0 155 -25h602v-162h-434v-105h395v-156h-395v-116h450v-161h-625q-75 -25 -148 -25zM238 359q0 -96 67 -156t164 -60q85 0 148 47v328q-59 40 -148 40q-99 0 -165 -53t-66 -146z" />
    <glyph glyph-name="oe" unicode="&#x153;" horiz-adv-x="1077" 
d="M1004 174l40 -148q-47 -20 -119 -35t-126 -15q-139 0 -227 80q-88 -80 -225 -80t-226 80.5t-89 199.5q0 122 91.5 195t223.5 73q137 0 227 -76q90 76 225 76q96 0 168 -49.5t72 -124.5q0 -74 -60 -107.5t-153 -33.5q-80 0 -164 22q15 -97 148 -97q90 0 194 40zM347 373
q-59 0 -99.5 -32.5t-40.5 -85.5q0 -54 41 -91.5t99 -37.5t99 37.5t41 91.5q0 53 -40.5 85.5t-99.5 32.5zM761 296q98 0 98 48q0 19 -16 30t-41 11q-45 0 -81 -22.5t-51 -60.5q38 -6 91 -6z" />
    <glyph glyph-name="Scaron" unicode="&#x160;" horiz-adv-x="729" 
d="M605 518l52 163q-124 47 -285 47q-133 0 -226.5 -64t-93.5 -163q0 -178 274 -219q76 -11 118 -27t42 -47t-37 -48.5t-98 -17.5q-63 0 -137 13t-123 30l-43 -155q43 -24 137.5 -40.5t166.5 -16.5q134 0 231.5 64t97.5 163q0 50 -18.5 88t-54 62.5t-72.5 39.5t-89 28
q-20 5 -54 11t-55.5 11t-44.5 13t-34.5 21t-11.5 31q0 33 35.5 48.5t90.5 15.5q51 0 120.5 -15.5t111.5 -35.5zM281 969l83 -116l84 116l111 -57l-96 -156h-197l-96 156z" />
    <glyph glyph-name="scaron" unicode="&#x161;" horiz-adv-x="608" 
d="M39 359q0 -40 18.5 -68.5t55 -46.5t75.5 -28t97 -19q55 -9 79 -17t24 -23q0 -32 -95 -32q-49 0 -114 11t-111 28l-40 -146q42 -18 119 -31t135 -13q71 0 133 17t106 57.5t44 97.5q0 73 -53.5 109t-163.5 55q-100 18 -115 24q-19 8 -19 21q0 31 86 31q104 0 202 -38
l39 143q-117 35 -232 35q-76 0 -135 -16.5t-97 -55t-38 -95.5zM220 779l83 -116l84 116l111 -57l-96 -156h-197l-96 156z" />
    <glyph glyph-name="Ydieresis" unicode="&#x178;" horiz-adv-x="780" 
d="M300 0v261l-302 440h216l182 -282l180 282h206l-297 -434v-267h-185zM192 852q0 33 22 55.5t58 22.5t58 -22.5t22 -55.5t-22 -55.5t-58 -22.5t-58 22.5t-22 55.5zM438 852q0 33 22 55.5t58 22.5t58 -22.5t22 -55.5t-22 -55.5t-58 -22.5t-58 22.5t-22 55.5z" />
    <glyph glyph-name="Zcaron" unicode="&#x17d;" horiz-adv-x="763" 
d="M38 0v176l447 363h-432v161h657v-176l-447 -363h462v-161h-687zM298 960l83 -116l84 116l111 -57l-96 -156h-197l-96 156z" />
    <glyph glyph-name="zcaron" unicode="&#x17e;" horiz-adv-x="633" 
d="M72 362v138h486v-157l-324 -205h346v-138h-522v158l325 204h-311zM233 779l83 -116l84 116l111 -57l-96 -156h-197l-96 156z" />
    <glyph glyph-name="florin" unicode="&#x192;" horiz-adv-x="510" 
d="M321 764q89 0 191 -27l-39 -146q-80 34 -119 34q-38 0 -57 -22.5t-19 -80.5v-22h203v-134h-199v-352q0 -139 -48 -201.5t-158 -62.5q-24 0 -36 1v138q76 0 76 103v374h-90v134h90q0 139 47.5 201.5t157.5 62.5z" />
    <glyph glyph-name="circumflex" unicode="&#x2c6;" horiz-adv-x="391" 
d="M279 556l-84 116l-83 -116l-111 57l96 156h197l96 -156z" />
    <glyph glyph-name="caron" unicode="&#x2c7;" horiz-adv-x="390" 
d="M112 779l83 -116l84 116l111 -57l-96 -156h-197l-96 156z" />
    <glyph glyph-name="breve" unicode="&#x2d8;" horiz-adv-x="443" 
d="M329 758l114 -31q-25 -83 -82.5 -127t-138.5 -44t-138.5 44t-82.5 127l114 31q30 -83 107 -83t107 83z" />
    <glyph glyph-name="ogonek" unicode="&#x2db;" horiz-adv-x="262" 
d="M231 -114l41 -79q-60 -51 -146 -51q-52 0 -90 32.5t-38 85.5q0 27 12 52.5t28 44.5t48.5 43.5t56.5 40l69 42.5l50 -67q-48 -25 -97 -69t-49 -70q0 -31 35 -31q20 0 43.5 8.5t36.5 17.5z" />
    <glyph glyph-name="tilde" unicode="&#x2dc;" horiz-adv-x="384" 
d="M333 748l61 -113q-23 -26 -58.5 -43t-69.5 -17q-28 0 -73.5 17t-69.5 17q-45 0 -78 -39l-61 113q23 26 58.5 43t69.5 17q28 0 73.5 -17t69.5 -17q45 0 78 39z" />
    <glyph glyph-name="afii10023" unicode="&#x401;" horiz-adv-x="766" 
d="M193 838q0 33 21 55.5t55 22.5t55 -22.5t21 -55.5t-21 -55.5t-55 -22.5t-55 22.5t-21 55.5zM439 838q0 33 21 55.5t55 22.5t55 -22.5t21 -55.5t-21 -55.5t-55 -22.5t-55 22.5t-21 55.5zM88 0v700h609v-162h-434v-105h395v-156h-395v-116h450v-161h-625z" />
    <glyph glyph-name="afii10051" unicode="&#x402;" horiz-adv-x="921" 
d="M16 539v161h707v-161h-276v-173q67 98 194 98q106 0 164 -72t58 -186v-192q0 -139 -48 -201.5t-158 -62.5q-24 0 -36 1v138q76 0 76 103v201q0 53 -29.5 85.5t-85.5 32.5q-55 0 -95 -37t-40 -99v-175h-175v539h-256z" />
    <glyph glyph-name="afii10052" unicode="&#x403;" horiz-adv-x="690" 
d="M88 0v700h594v-162h-409v-538h-185zM564 959l-133 -213l-116 47l71 166h178z" />
    <glyph glyph-name="afii10053" unicode="&#x404;" horiz-adv-x="774" 
d="M471 142q96 0 215 48l46 -157q-45 -25 -120 -41.5t-139 -16.5q-199 0 -314.5 108t-115.5 273q0 167 118 268t312 101q125 0 249 -47l-53 -171q-104 49 -198 49q-85 0 -145.5 -30.5t-82.5 -92.5h298v-156h-297q46 -135 227 -135z" />
    <glyph glyph-name="afii10054" unicode="&#x405;" horiz-adv-x="729" 
d="M657 681l-52 -163q-43 20 -111.5 35.5t-123.5 15.5q-52 0 -87.5 -15.5t-35.5 -48.5q0 -18 10 -30t33 -20.5t43 -13t56.5 -11.5t57.5 -12q234 -54 234 -210q0 -106 -96.5 -170.5t-232.5 -64.5q-72 0 -166.5 16.5t-137.5 40.5l43 155q47 -17 122 -30t133 -13q64 0 102 17.5
t38 47.5q0 17 -12 29.5t-38.5 21.5t-48.5 13.5t-61 10.5q-274 44 -274 214q0 105 93.5 168.5t233.5 63.5q66 0 146.5 -13.5t131.5 -33.5z" />
    <glyph glyph-name="uni0406" unicode="&#x406;" horiz-adv-x="356" 
d="M273 700v-700h-185v700h185z" />
    <glyph glyph-name="afii10056" unicode="&#x407;" horiz-adv-x="361" 
d="M17 848q0 33 21 55.5t55 22.5t55 -22.5t21 -55.5t-21 -55.5t-55 -22.5t-55 22.5t-21 55.5zM193 848q0 33 21 55.5t55 22.5t55 -22.5t21 -55.5t-21 -55.5t-55 -22.5t-55 22.5t-21 55.5zM278 700v-700h-185v700h185z" />
    <glyph glyph-name="afii10057" unicode="&#x408;" horiz-adv-x="376" 
d="M48 -80l-45 153q57 21 81 56t24 100v471h185v-471q0 -235 -245 -309z" />
    <glyph glyph-name="afii10058" unicode="&#x409;" horiz-adv-x="1262" 
d="M936 0h-376v537h-212q-8 -207 -41 -330.5t-82 -171t-122 -47.5q-46 0 -94 12l6 171q15 -5 32 -5q33 0 54.5 18t40 72t27 163.5t8.5 280.5h567v-224h192q130 0 205.5 -66.5t75.5 -175.5q0 -101 -77.5 -167.5t-203.5 -66.5zM936 317h-192v-161h192q42 0 64 22.5t22 57.5
q0 37 -22 59t-64 22z" />
    <glyph glyph-name="afii10059" unicode="&#x40a;" horiz-adv-x="1323" 
d="M88 0v700h185v-245h347v245h185v-244h192q129 0 205 -65t76 -167q0 -95 -77.5 -159.5t-203.5 -64.5h-377v292h-347v-292h-185zM997 156q43 0 64.5 19t21.5 51q0 71 -86 71h-192v-141h192z" />
    <glyph glyph-name="afii10060" unicode="&#x40b;" horiz-adv-x="921" 
d="M16 539v161h707v-161h-276v-173q67 98 194 98q106 0 164 -72t58 -186v-206h-166v193q0 53 -29.5 85.5t-85.5 32.5q-55 0 -95 -37t-40 -99v-175h-175v539h-256z" />
    <glyph glyph-name="afii10061" unicode="&#x40c;" horiz-adv-x="825" 
d="M516 68l-241 285l330 347h210l-325 -337l170 -188q33 -36 72 -36q25 0 58 11l15 -146q-74 -28 -129 -28q-82 0 -160 92zM88 0v700h185v-700h-185zM602 959l-133 -213l-116 47l71 166h178z" />
    <glyph glyph-name="afii10062" unicode="&#x40e;" horiz-adv-x="762" 
d="M505 945l128 -35q-16 -82 -73.5 -126.5t-147.5 -44.5t-147.5 44.5t-73.5 126.5l128 35q4 -40 28 -65t65 -25t65 25t28 65zM154 -27l7 161q29 -6 53 -6q59 0 102 29l-315 543h199l219 -389l190 389h195l-267 -507q-59 -112 -129 -171t-169 -59q-42 0 -85 10z" />
    <glyph glyph-name="afii10145" unicode="&#x40f;" horiz-adv-x="887" 
d="M353 -171v171h-265v700h185v-537h341v537h185v-700h-265v-171h-181z" />
    <glyph glyph-name="afii10017" unicode="&#x410;" horiz-adv-x="805" 
d="M507 700l297 -700h-199l-44 106h-322l-43 -106h-195l297 700h209zM400 497l-94 -228h188z" />
    <glyph glyph-name="afii10018" unicode="&#x411;" horiz-adv-x="813" 
d="M88 0v700h604v-162h-419v-86h205q130 0 206 -64t76 -167q0 -97 -79 -159t-203 -62h-390zM273 156h205q40 0 63.5 19.5t23.5 52.5t-23 53t-64 20h-205v-145z" />
    <glyph glyph-name="afii10019" unicode="&#x412;" horiz-adv-x="813" 
d="M88 0v700h356q136 0 209.5 -48t73.5 -145q0 -98 -91 -145q129 -47 129 -164q0 -98 -74.5 -148t-210.5 -50h-392zM480 292h-207v-131h207q90 0 90 66q0 65 -90 65zM444 538h-171v-120h171q88 0 88 60t-88 60z" />
    <glyph glyph-name="afii10020" unicode="&#x413;" horiz-adv-x="690" 
d="M88 0v700h594v-162h-409v-538h-185z" />
    <glyph glyph-name="afii10021" unicode="&#x414;" horiz-adv-x="875" 
d="M-5 -171v334h7q74 0 117.5 130t43.5 407h597v-537h112v-334h-181v171h-515v-171h-181zM332 537q-16 -248 -87 -374h330v374h-243z" />
    <glyph glyph-name="afii10022" unicode="&#x415;" horiz-adv-x="766" 
d="M88 0v700h609v-162h-434v-105h395v-156h-395v-116h450v-161h-625z" />
    <glyph glyph-name="afii10024" unicode="&#x416;" horiz-adv-x="1143" 
d="M921 0l-255 353l260 347h205l-267 -337l279 -363h-222zM222 0l255 353l-260 347h-205l266 -337l-278 -363h222zM479 0v700h185v-700h-185z" />
    <glyph glyph-name="afii10025" unicode="&#x417;" horiz-adv-x="704" 
d="M118 507l-63 167q134 51 260 51q136 0 219.5 -54t83.5 -151q0 -106 -107 -157q68 -23 106.5 -67.5t38.5 -107.5q0 -98 -89 -155.5t-225 -57.5q-66 0 -161 17.5t-138 40.5l49 164q52 -18 124 -33t126 -15q49 0 84 16.5t35 46.5q0 65 -89 65h-139v156h102q88 0 88 62
q0 30 -30.5 45.5t-77.5 15.5q-90 0 -197 -49z" />
    <glyph glyph-name="afii10026" unicode="&#x418;" horiz-adv-x="928" 
d="M273 206l347 494h220v-700h-185v493l-347 -493h-220v700h185v-494z" />
    <glyph glyph-name="afii10027" unicode="&#x419;" horiz-adv-x="928" 
d="M555 945l128 -35q-16 -82 -73.5 -126.5t-147.5 -44.5t-147.5 44.5t-73.5 126.5l128 35q4 -40 28 -65t65 -25t65 25t28 65zM273 206l347 494h220v-700h-185v493l-347 -493h-220v700h185v-494z" />
    <glyph glyph-name="afii10028" unicode="&#x41a;" horiz-adv-x="825" 
d="M516 68l-241 285l330 347h210l-325 -337l170 -188q33 -36 72 -36q25 0 58 11l15 -146q-74 -28 -129 -28q-82 0 -160 92zM88 0v700h185v-700h-185z" />
    <glyph glyph-name="afii10029" unicode="&#x41b;" horiz-adv-x="842" 
d="M9 0l6 171q15 -5 32 -5q33 0 54.5 18t40 72t27 163.5t8.5 280.5h577v-700h-184v537h-222q-8 -207 -41 -330.5t-82 -171t-122 -47.5q-46 0 -94 12z" />
    <glyph glyph-name="afii10030" unicode="&#x41c;" horiz-adv-x="1098" 
d="M497 66l-214 389l-15 -455h-185l20 700h235l206 -378h10l206 378h235l20 -700h-185l-15 454l-214 -388h-104z" />
    <glyph glyph-name="afii10031" unicode="&#x41d;" horiz-adv-x="903" 
d="M88 0v700h185v-274h357v274h185v-700h-185v263h-357v-263h-185z" />
    <glyph glyph-name="afii10032" unicode="&#x41e;" horiz-adv-x="938" 
d="M469 -30q-184 0 -305 113t-121 275q0 111 59 197t155.5 130.5t211.5 44.5t211.5 -44.5t155.5 -130.5t59 -197q0 -162 -121 -275t-305 -113zM469 138q97 0 164 62.5t67 158.5q0 94 -66 149t-165 55t-165 -55t-66 -149q0 -96 67 -158.5t164 -62.5z" />
    <glyph glyph-name="afii10033" unicode="&#x41f;" horiz-adv-x="896" 
d="M88 0v700h720v-700h-185v537h-350v-537h-185z" />
    <glyph glyph-name="afii10034" unicode="&#x420;" horiz-adv-x="803" 
d="M88 0v700h392q133 0 209 -69.5t76 -179.5q0 -105 -78 -172t-207 -67h-207v-212h-185zM480 368q44 0 67 24t23 61t-23 61.5t-67 24.5h-207v-171h207z" />
    <glyph glyph-name="afii10035" unicode="&#x421;" horiz-adv-x="766" 
d="M714 678l-53 -171q-104 49 -192 49q-98 0 -164.5 -52t-66.5 -143q0 -93 67 -148.5t164 -55.5t210 40l44 -164q-45 -25 -118.5 -41.5t-135.5 -16.5q-197 0 -311.5 108t-114.5 273t118.5 267t307.5 102q121 0 245 -47z" />
    <glyph glyph-name="afii10036" unicode="&#x422;" horiz-adv-x="719" 
d="M6 539v161h707v-161h-261v-539h-185v539h-261z" />
    <glyph glyph-name="afii10037" unicode="&#x423;" horiz-adv-x="762" 
d="M154 -27l7 161q29 -6 53 -6q59 0 102 29l-315 543h199l219 -389l190 389h195l-267 -507q-59 -112 -129 -171t-169 -59q-42 0 -85 10z" />
    <glyph glyph-name="afii10038" unicode="&#x424;" horiz-adv-x="985" 
d="M382 74q-148 0 -244.5 88t-96.5 216q0 133 99 212.5t242 79.5h19v69h183v-69h19q143 0 242 -79.5t99 -212.5q0 -128 -96.5 -216t-244.5 -88h-19v-74h-183v74h-19zM603 237q62 0 104 39.5t42 101.5q0 60 -41.5 94.5t-104.5 34.5h-19v-270h19zM382 507q-63 0 -104.5 -34.5
t-41.5 -94.5q0 -62 42 -101.5t104 -39.5h19v270h-19z" />
    <glyph glyph-name="afii10039" unicode="&#x425;" horiz-adv-x="802" 
d="M1 0l292 357l-287 343h224l175 -218l172 218h218l-286 -343l292 -357h-224l-180 232l-178 -232h-218z" />
    <glyph glyph-name="afii10040" unicode="&#x426;" horiz-adv-x="914" 
d="M730 -171v171h-642v700h185v-537h341v537h185v-537h112v-334h-181z" />
    <glyph glyph-name="afii10041" unicode="&#x427;" horiz-adv-x="813" 
d="M540 0v294q-140 -81 -248 -81q-264 0 -264 299v188h185v-168q0 -86 25 -118.5t101 -32.5q48 0 104.5 16t96.5 39v264h185v-700h-185z" />
    <glyph glyph-name="afii10042" unicode="&#x428;" horiz-adv-x="1135" 
d="M1047 700v-700h-959v700h185v-537h202v537h185v-537h202v537h185z" />
    <glyph glyph-name="afii10043" unicode="&#x429;" horiz-adv-x="1162" 
d="M978 -171v171h-890v700h185v-537h202v537h185v-537h202v537h185v-537h112v-334h-181z" />
    <glyph glyph-name="afii10044" unicode="&#x42a;" horiz-adv-x="902" 
d="M0 539v161h376v-222h200q130 0 205.5 -67.5t75.5 -176.5q0 -101 -77.5 -167.5t-203.5 -66.5h-385v539h-191zM376 156h200q42 0 64 22.5t22 57.5q0 37 -22 59t-64 22h-200v-161z" />
    <glyph glyph-name="afii10045" unicode="&#x42b;" horiz-adv-x="1087" 
d="M88 0v700h185v-224h189q130 0 205.5 -66.5t75.5 -175.5q0 -101 -77.5 -167.5t-203.5 -66.5h-374zM999 700v-700h-185v700h185zM273 156h189q42 0 64 22.5t22 57.5q0 37 -22 59t-64 22h-189v-161z" />
    <glyph glyph-name="afii10046" unicode="&#x42c;" horiz-adv-x="801" 
d="M88 0v700h185v-224h202q130 0 205.5 -66.5t75.5 -175.5q0 -101 -77.5 -167.5t-203.5 -66.5h-387zM273 156h202q42 0 64 22.5t22 57.5q0 37 -22 59t-64 22h-202v-161z" />
    <glyph glyph-name="afii10047" unicode="&#x42d;" horiz-adv-x="774" 
d="M105 507l-53 171q124 47 249 47q194 0 312 -101t118 -268q0 -165 -115.5 -273t-314.5 -108q-64 0 -139 16.5t-120 41.5l46 157q119 -48 215 -48q88 0 146 34.5t80 100.5h-296v156h297q-22 62 -82 92.5t-145 30.5q-94 0 -198 -49z" />
    <glyph glyph-name="afii10048" unicode="&#x42e;" horiz-adv-x="1254" 
d="M790 -30q-154 0 -263.5 82t-141.5 211h-112v-263h-185v700h185v-274h107q24 139 138.5 221.5t271.5 82.5q115 0 210.5 -44.5t153 -130.5t57.5 -197q0 -162 -119 -275t-302 -113zM790 138q96 0 161 62.5t65 158.5q0 94 -64 149t-162 55t-162 -55t-64 -149q0 -96 65 -158.5
t161 -62.5z" />
    <glyph glyph-name="afii10049" unicode="&#x42f;" horiz-adv-x="828" 
d="M555 0v239h-152l-161 -239h-212l193 256q-71 28 -113 83t-42 124q0 103 77 170t203 67h392v-700h-185zM348 386h207v153h-207q-40 0 -62.5 -23t-22.5 -54q0 -33 22.5 -54.5t62.5 -21.5z" />
    <glyph glyph-name="afii10065" unicode="&#x430;" horiz-adv-x="637" 
d="M544 310v-150q0 -22 22 -22q23 0 53 18l35 -121q-34 -22 -79 -37.5t-81 -15.5q-53 0 -81.5 33t-30.5 84l-4 1q-26 -51 -73 -84.5t-107 -33.5q-68 0 -116 42.5t-48 111.5q0 73 56.5 117t136.5 44q77 0 151 -32v47q0 26 -16.5 41t-48.5 15q-66 0 -201 -49l-42 155
q148 50 260 50q104 0 159 -54t55 -160zM260 121q39 0 72 24t46 56q-56 13 -95 13q-80 0 -80 -49q0 -20 15 -32t42 -12z" />
    <glyph glyph-name="afii10066" unicode="&#x431;" horiz-adv-x="714" 
d="M32 280v48q0 212 148 317t410 107l13 -165q-185 -2 -290 -49t-125 -156l8 -3q107 122 242 122q101 0 172.5 -69t71.5 -173q0 -119 -93.5 -201t-231.5 -82q-142 0 -233.5 88.5t-91.5 215.5zM396 345q-103 0 -197 -75v-6q0 -51 46 -94t111 -43q66 0 108.5 36t42.5 90
q0 43 -28.5 67.5t-82.5 24.5z" />
    <glyph glyph-name="afii10067" unicode="&#x432;" horiz-adv-x="625" 
d="M337 0h-269v500h341q71 0 118 -28.5t47 -86.5q0 -62 -61 -107q84 -25 84 -104q0 -83 -72 -128.5t-188 -45.5zM424 174q0 36 -57 39h-134v-91h105q86 0 86 52zM414 342q0 36 -57 39h-124v-91h95q86 0 86 52z" />
    <glyph glyph-name="afii10068" unicode="&#x433;" horiz-adv-x="524" 
d="M68 0v500h423v-140h-257v-360h-166z" />
    <glyph glyph-name="afii10069" unicode="&#x434;" horiz-adv-x="712" 
d="M8 -129v269h35q37 0 58.5 28t33.5 108.5t12 223.5h450v-360h97v-269h-156v129h-374v-129h-156zM301 360q-9 -160 -56 -220h186v220h-130z" />
    <glyph glyph-name="afii10070" unicode="&#x435;" horiz-adv-x="622" 
d="M549 175l40 -149q-47 -20 -119 -35t-126 -15q-139 0 -225.5 80t-86.5 200q0 122 91 195t221 73q99 0 170.5 -48t71.5 -125q0 -74 -61 -108t-154 -34q-80 0 -164 22q15 -96 148 -96q90 0 194 40zM306 296q92 0 92 48q0 19 -14.5 30t-36.5 11q-45 0 -81 -22.5t-51 -60.5
q38 -6 91 -6z" />
    <glyph glyph-name="afii10072" unicode="&#x436;" horiz-adv-x="1000" 
d="M61 10l8 138q25 -9 46 -9q45 0 84 79q-134 106 -138 282h169q2 -106 41 -168.5t116 -62.5h30v231h166v-231h30q77 0 116 62.5t41 168.5h169q-4 -176 -138 -282q39 -79 84 -79q21 0 46 9l8 -138q-47 -19 -94 -19q-92 0 -142 87l-53 93h-67v-171h-166v171h-67l-53 -93
q-50 -87 -142 -87q-47 0 -94 19z" />
    <glyph glyph-name="afii10073" unicode="&#x437;" horiz-adv-x="563" 
d="M145 208v86h105q96 0 96 44q0 16 -19.5 25t-49.5 9q-90 0 -196 -42l-38 148q121 43 236 43q100 0 166.5 -35t66.5 -96q0 -33 -23.5 -67.5t-53.5 -50.5q40 -14 70 -46.5t30 -71.5q0 -81 -75.5 -129.5t-183.5 -48.5q-129 0 -231 44l38 140q87 -30 185 -30q88 0 88 43
q0 17 -19.5 26t-47.5 9h-144z" />
    <glyph glyph-name="afii10074" unicode="&#x438;" horiz-adv-x="703" 
d="M635 500v-500h-165v301l-259 -301h-143v500h166v-295l259 295h142z" />
    <glyph glyph-name="afii10075" unicode="&#x439;" horiz-adv-x="703" 
d="M451 743l128 -35q-16 -82 -73.5 -126.5t-147.5 -44.5t-147.5 44.5t-73.5 126.5l128 35q4 -40 28 -65t65 -25t65 25t28 65zM635 500v-500h-165v301l-259 -301h-143v500h166v-295l259 295h142z" />
    <glyph glyph-name="afii10076" unicode="&#x43a;" horiz-adv-x="672" 
d="M378 78l-53 78q-50 -12 -91 -13v-143h-166v500h166v-263q106 11 157 82t51 181h169q-3 -169 -142 -275l39 -50q26 -35 57 -35q15 0 39 8l18 -138q-52 -19 -94 -19q-92 0 -150 87z" />
    <glyph glyph-name="afii10077" unicode="&#x43b;" horiz-adv-x="668" 
d="M23 0l5 148q13 -4 28 -4q36 0 57 27t33.5 101.5t13.5 206.5v21h430l16 -500h-166l-11 360h-120q-19 -371 -205 -371q-38 0 -81 11z" />
    <glyph glyph-name="afii10078" unicode="&#x43c;" horiz-adv-x="850" 
d="M621 0l-1 315l-148 -274h-99l-149 275l-5 -316h-156l20 500h199l153 -271l154 271h181l17 -500h-166z" />
    <glyph glyph-name="afii10079" unicode="&#x43d;" horiz-adv-x="678" 
d="M610 500v-500h-165v184h-211v-184h-166v500h166v-178h211v178h165z" />
    <glyph glyph-name="afii10080" unicode="&#x43e;" horiz-adv-x="694" 
d="M347 524q132 0 223.5 -73t91.5 -195q0 -119 -89 -199.5t-226 -80.5t-226 80.5t-89 199.5q0 122 91.5 195t223.5 73zM347 373q-59 0 -99.5 -32.5t-40.5 -85.5q0 -54 41 -91.5t99 -37.5t99 37.5t41 91.5q0 53 -40.5 85.5t-99.5 32.5z" />
    <glyph glyph-name="afii10081" unicode="&#x43f;" horiz-adv-x="673" 
d="M605 500v-500h-165v360h-206v-360h-166v500h537z" />
    <glyph glyph-name="afii10082" unicode="&#x440;" horiz-adv-x="701" 
d="M68 -240v740h136l17 -93q65 117 202 117q102 0 174 -78.5t72 -189.5q0 -119 -89 -199.5t-226 -80.5q-64 0 -120 24v-240h-166zM364 371q-58 0 -94 -36t-36 -100v-99q55 -20 120 -20q58 0 99 36.5t41 90.5q0 57 -37.5 92.5t-92.5 35.5z" />
    <glyph glyph-name="afii10083" unicode="&#x441;" horiz-adv-x="604" 
d="M339 524q115 0 219 -43l-39 -146q-92 50 -177 50q-57 0 -96.5 -34t-39.5 -91q0 -62 39.5 -93.5t104.5 -31.5q79 0 166 30l38 -145q-102 -44 -215 -44q-134 0 -220.5 79.5t-86.5 200.5t91.5 194.5t215.5 73.5z" />
    <glyph glyph-name="afii10084" unicode="&#x442;" horiz-adv-x="572" 
d="M23 360v140h526v-140h-180v-360h-166v360h-180z" />
    <glyph glyph-name="afii10085" unicode="&#x443;" horiz-adv-x="643" 
d="M76 -238l12 148q38 -7 69 -7q34 0 56 17t45 63l-254 517h176l157 -330l134 330h171l-213 -493q-22 -50 -38 -82.5t-40.5 -69t-49.5 -57t-60 -34.5t-76 -14t-89 12z" />
    <glyph glyph-name="afii10086" unicode="&#x444;" horiz-adv-x="980" 
d="M407 -240v308q-26 -41 -67.5 -66.5t-92.5 -25.5q-87 0 -151 78.5t-64 189.5q0 118 82 199t203 81q46 0 90 -22v239h166v-309q26 41 67.5 66.5t92.5 25.5q87 0 151 -78.5t64 -189.5q0 -118 -82 -199t-203 -81q-48 0 -90 22v-238h-166zM673 371q-47 0 -73.5 -39t-26.5 -104
v-91q47 -21 90 -21q50 0 80 36.5t30 90.5q0 56 -28 92t-72 36zM307 129q47 0 73.5 39t26.5 104v91q-47 21 -90 21q-50 0 -80 -36.5t-30 -90.5q0 -56 28 -92t72 -36z" />
    <glyph glyph-name="afii10087" unicode="&#x445;" horiz-adv-x="681" 
d="M14 500h201l124 -145l122 145h196l-230 -244l240 -256h-201l-129 151l-127 -151h-196l235 250z" />
    <glyph glyph-name="afii10088" unicode="&#x446;" horiz-adv-x="716" 
d="M68 0v500h165v-360h202v360h166v-360h97v-269h-156v129h-474z" />
    <glyph glyph-name="afii10089" unicode="&#x447;" horiz-adv-x="638" 
d="M570 500v-500h-166v202q-27 -31 -79.5 -52.5t-110.5 -21.5q-67 0 -116.5 43t-49.5 111v218h166v-188q1 -24 20 -38t45 -14q28 0 65 13.5t60 32.5v194h166z" />
    <glyph glyph-name="afii10090" unicode="&#x448;" horiz-adv-x="949" 
d="M68 0v500h165v-360h158v360h166v-360h158v360h166v-500h-813z" />
    <glyph glyph-name="afii10091" unicode="&#x449;" horiz-adv-x="996" 
d="M822 -129v129h-754v500h165v-360h158v360h166v-360h158v360h166v-360h97v-269h-156z" />
    <glyph glyph-name="afii10092" unicode="&#x44a;" horiz-adv-x="698" 
d="M13 360v140h325v-165h111q99 0 156.5 -40t57.5 -111q0 -84 -63.5 -129t-163.5 -55h-263v360h-160zM497 188q0 36 -57 39h-102v-91h73q86 0 86 52z" />
    <glyph glyph-name="afii10093" unicode="&#x44b;" horiz-adv-x="846" 
d="M233 500v-165h105q99 0 156.5 -40t57.5 -111q0 -84 -63.5 -129t-163.5 -55h-257v500h165zM386 188q0 36 -57 39h-96v-91h67q86 0 86 52zM778 500v-500h-165v500h165z" />
    <glyph glyph-name="afii10094" unicode="&#x44c;" horiz-adv-x="597" 
d="M233 500v-165h115q99 0 156.5 -40t57.5 -111q0 -84 -63.5 -129t-163.5 -55h-267v500h165zM396 188q0 36 -57 39h-106v-91h77q86 0 86 52z" />
    <glyph glyph-name="afii10095" unicode="&#x44d;" horiz-adv-x="611" 
d="M267 524q130 0 221 -73t91 -195q0 -120 -86.5 -200t-225.5 -80q-118 0 -220 44l38 145q87 -30 171 -30q95 0 131 59h-199v118h205q-16 34 -51 53.5t-78 19.5q-86 0 -190 -53l-39 146q118 46 232 46z" />
    <glyph glyph-name="afii10096" unicode="&#x44e;" horiz-adv-x="948" 
d="M606 524q132 0 221 -72.5t89 -195.5q0 -119 -87 -199.5t-223 -80.5q-114 0 -194 57.5t-104 150.5h-74v-184h-166v500h166v-178h73q23 94 105 148t194 54zM606 373q-59 0 -97 -32t-38 -86t39 -91.5t96 -37.5t96 37.5t39 91.5t-38 86t-97 32z" />
    <glyph glyph-name="afii10097" unicode="&#x44f;" horiz-adv-x="627" 
d="M46 10l8 138q25 -9 46 -9q31 0 62 41q-111 37 -111 136q0 64 40.5 107t99 60t132.5 17h236v-500h-165v165h-67l-45 -87q-54 -87 -142 -87q-46 0 -94 19zM231 304q0 -38 57 -41h106v95h-77q-86 0 -86 -54z" />
    <glyph glyph-name="afii10071" unicode="&#x451;" horiz-adv-x="622" 
d="M131 662q0 33 21 55.5t55 22.5t55 -22.5t21 -55.5t-21 -55.5t-55 -22.5t-55 22.5t-21 55.5zM377 662q0 33 21 55.5t55 22.5t55 -22.5t21 -55.5t-21 -55.5t-55 -22.5t-55 22.5t-21 55.5zM549 175q-104 -40 -194 -40q-133 0 -148 96q84 -22 164 -22q93 0 154 34t61 108
q0 77 -71.5 125t-170.5 48q-130 0 -221 -73t-91 -195q0 -120 86.5 -200t225.5 -80q54 0 126 15t119 35zM306 296q-53 0 -91 6q15 38 51 60.5t81 22.5q22 0 36.5 -11t14.5 -30q0 -48 -92 -48z" />
    <glyph glyph-name="afii10099" unicode="&#x452;" horiz-adv-x="698" 
d="M-22 553v110l97 23l23 55h136v-54h199v-134h-199v-127q67 98 189 98q104 0 160.5 -73.5t56.5 -184.5v-266q0 -130 -49 -190t-157 -60q-24 0 -36 1v138q76 0 76 103v261q0 54 -27.5 86t-82.5 32t-92.5 -38.5t-37.5 -104.5v-228h-166v553h-90z" />
    <glyph glyph-name="afii10100" unicode="&#x453;" horiz-adv-x="524" 
d="M68 0v500h423v-140h-257v-360h-166zM447 769l-133 -213l-116 47l71 166h178z" />
    <glyph glyph-name="afii10101" unicode="&#x454;" horiz-adv-x="608" 
d="M344 524q114 0 232 -46l-39 -146q-104 53 -190 53q-97 0 -130 -70h206v-114h-206q30 -66 138 -66q84 0 171 30l38 -145q-102 -44 -220 -44q-139 0 -225.5 80t-86.5 200q0 122 91 195t221 73z" />
    <glyph glyph-name="afii10102" unicode="&#x455;" horiz-adv-x="608" 
d="M39 359q0 57 38 95.5t97 55t134 16.5q116 0 233 -35l-39 -143q-98 38 -205 38q-83 0 -83 -31q0 -15 24 -23t79 -17q20 -3 31 -5q108 -19 162.5 -54t54.5 -104q0 -61 -44.5 -103t-105 -58.5t-130.5 -16.5q-61 0 -137.5 13t-119.5 31l40 146q110 -39 230 -39q90 0 90 32
q0 15 -22.5 23t-80.5 17q-47 8 -77.5 14.5t-65.5 19.5t-55.5 28.5t-34 41t-13.5 58.5z" />
    <glyph glyph-name="afii10103" unicode="&#x456;" 
d="M236 500v-500h-166v500h166zM58 662q0 36 27.5 61.5t66.5 25.5t66.5 -25.5t27.5 -61.5t-27.5 -61.5t-66.5 -25.5t-66.5 25.5t-27.5 61.5z" />
    <glyph glyph-name="afii10104" unicode="&#x457;" 
d="M236 500v-500h-166v500h166zM-12 662q0 33 21 55.5t55 22.5t55 -22.5t21 -55.5t-21 -55.5t-55 -22.5t-55 22.5t-21 55.5zM164 662q0 33 21 55.5t55 22.5t55 -22.5t21 -55.5t-21 -55.5t-55 -22.5t-55 22.5t-21 55.5z" />
    <glyph glyph-name="afii10105" unicode="&#x458;" horiz-adv-x="308" 
d="M34 -250q-24 0 -36 1v138q76 0 76 103v508h166v-486q0 -139 -48 -201.5t-158 -62.5zM62 652q0 36 27.5 61.5t66.5 25.5t66.5 -25.5t27.5 -61.5t-27.5 -61.5t-66.5 -25.5t-66.5 25.5t-27.5 61.5z" />
    <glyph glyph-name="afii10106" unicode="&#x459;" horiz-adv-x="950" 
d="M23 0l5 148q13 -4 28 -4q36 0 57 27t33.5 101.5t13.5 206.5v21h430v-165h111q99 0 156.5 -40t57.5 -111q0 -84 -63.5 -129t-163.5 -55h-263v360h-116q-19 -371 -205 -371q-38 0 -81 11zM749 188q0 36 -57 39h-102v-91h73q86 0 86 52z" />
    <glyph glyph-name="afii10107" unicode="&#x45a;" horiz-adv-x="964" 
d="M234 500v-170h206v170h165v-168h110q100 0 157 -39t57 -110q0 -84 -63.5 -128.5t-163.5 -54.5h-262v192h-206v-192h-166v500h166zM763 187q0 34 -57 37h-101v-88h72q86 0 86 51z" />
    <glyph glyph-name="afii10108" unicode="&#x45b;" horiz-adv-x="698" 
d="M-22 553v110l97 23l23 55h136v-54h199v-134h-199v-127q67 98 189 98q104 0 160.5 -73.5t56.5 -184.5v-266h-166v253q0 54 -27.5 86t-82.5 32q-54 0 -92 -36.5t-38 -99.5v-235h-166v553h-90z" />
    <glyph glyph-name="afii10109" unicode="&#x45c;" horiz-adv-x="672" 
d="M378 78l-53 78q-50 -12 -91 -13v-143h-166v500h166v-263q106 11 157 82t51 181h169q-3 -169 -142 -275l39 -50q26 -35 57 -35q15 0 39 8l18 -138q-52 -19 -94 -19q-92 0 -150 87zM528 769l-133 -213l-116 47l71 166h178z" />
    <glyph glyph-name="afii10110" unicode="&#x45e;" horiz-adv-x="643" 
d="M425 743l128 -35q-16 -82 -73.5 -126.5t-147.5 -44.5t-147.5 44.5t-73.5 126.5l128 35q4 -40 28 -65t65 -25t65 25t28 65zM76 -238l12 148q38 -7 69 -7q34 0 56 17t45 63l-254 517h176l157 -330l134 330h171l-213 -493q-22 -50 -38 -82.5t-40.5 -69t-49.5 -57t-60 -34.5
t-76 -14t-89 12z" />
    <glyph glyph-name="afii10193" unicode="&#x45f;" horiz-adv-x="669" 
d="M68 0v500h165v-360h202v360h166v-500h-189v-129h-156v129h-188z" />
    <glyph glyph-name="afii10050" unicode="&#x490;" horiz-adv-x="660" 
d="M88 0v700h383v172h181v-334h-379v-538h-185z" />
    <glyph glyph-name="afii10098" unicode="&#x491;" horiz-adv-x="514" 
d="M68 0v500h257v129h156v-269h-247v-360h-166z" />
    <glyph glyph-name="endash" unicode="&#x2013;" horiz-adv-x="617" 
d="M80 232v122h457v-122h-457z" />
    <glyph glyph-name="emdash" unicode="&#x2014;" horiz-adv-x="896" 
d="M31 232v122h834v-122h-834z" />
    <glyph glyph-name="quoteleft" unicode="&#x2018;" horiz-adv-x="299" 
d="M240 512q0 -36 -27.5 -61.5t-66.5 -25.5q-46 0 -71 33t-25 82q0 58 37 124t90 105l72 -81q-57 -46 -62 -97q24 -11 38.5 -32t14.5 -47z" />
    <glyph glyph-name="quoteright" unicode="&#x2019;" horiz-adv-x="299" 
d="M59 673q0 36 27.5 61.5t66.5 25.5q46 0 71 -33t25 -82q0 -58 -37 -124t-90 -105l-72 81q57 46 62 97q-24 11 -38.5 32t-14.5 47z" />
    <glyph glyph-name="quotesinglbase" unicode="&#x201a;" horiz-adv-x="299" 
d="M59 67q0 36 27.5 61.5t66.5 25.5q46 0 71 -33t25 -82q0 -58 -37 -124t-90 -105l-72 81q57 46 62 97q-24 11 -38.5 32t-14.5 47z" />
    <glyph glyph-name="quotedblleft" unicode="&#x201c;" horiz-adv-x="529" 
d="M470 512q0 -36 -27.5 -61.5t-66.5 -25.5q-46 0 -71 33t-25 82q0 58 37 124t90 105l72 -81q-57 -46 -62 -97q24 -11 38.5 -32t14.5 -47zM240 512q0 -36 -27.5 -61.5t-66.5 -25.5q-46 0 -71 33t-25 82q0 58 37 124t90 105l72 -81q-57 -46 -62 -97q24 -11 38.5 -32t14.5 -47
z" />
    <glyph glyph-name="quotedblright" unicode="&#x201d;" horiz-adv-x="529" 
d="M59 673q0 36 27.5 61.5t66.5 25.5q46 0 71 -33t25 -82q0 -58 -37 -124t-90 -105l-72 81q57 46 62 97q-24 11 -38.5 32t-14.5 47zM289 673q0 36 27.5 61.5t66.5 25.5q46 0 71 -33t25 -82q0 -58 -37 -124t-90 -105l-72 81q57 46 62 97q-24 11 -38.5 32t-14.5 47z" />
    <glyph glyph-name="quotedblbase" unicode="&#x201e;" horiz-adv-x="529" 
d="M59 67q0 36 27.5 61.5t66.5 25.5q46 0 71 -33t25 -82q0 -58 -37 -124t-90 -105l-72 81q57 46 62 97q-24 11 -38.5 32t-14.5 47zM289 67q0 36 27.5 61.5t66.5 25.5q46 0 71 -33t25 -82q0 -58 -37 -124t-90 -105l-72 81q57 46 62 97q-24 11 -38.5 32t-14.5 47z" />
    <glyph glyph-name="dagger" unicode="&#x2020;" horiz-adv-x="440" 
d="M183 552l-27 148h128l-27 -148l148 27v-128l-148 27l27 -478h-128l27 478l-148 -27v128z" />
    <glyph glyph-name="daggerdbl" unicode="&#x2021;" horiz-adv-x="440" 
d="M183 552l-27 148h128l-27 -148l148 27v-128l-148 27l27 -128l-27 -128l148 27v-128l-148 27l27 -148h-128l27 148l-148 -27v128l148 -27l-27 127l27 129l-148 -27v128z" />
    <glyph glyph-name="bullet" unicode="&#x2022;" horiz-adv-x="508" 
d="M124 299q0 50 38 85.5t92 35.5t92 -35.5t38 -85.5t-38 -85.5t-92 -35.5t-92 35.5t-38 85.5z" />
    <glyph glyph-name="ellipsis" unicode="&#x2026;" horiz-adv-x="852" 
d="M58 67q0 36 27.5 61.5t66.5 25.5t66.5 -25.5t27.5 -61.5t-27.5 -61.5t-66.5 -25.5t-66.5 25.5t-27.5 61.5zM332 67q0 36 27.5 61.5t66.5 25.5t66.5 -25.5t27.5 -61.5t-27.5 -61.5t-66.5 -25.5t-66.5 25.5t-27.5 61.5zM606 67q0 36 27.5 61.5t66.5 25.5t66.5 -25.5
t27.5 -61.5t-27.5 -61.5t-66.5 -25.5t-66.5 25.5t-27.5 61.5z" />
    <glyph glyph-name="perthousand" unicode="&#x2030;" horiz-adv-x="1281" 
d="M224 0h-152l616 700h152zM1069 359q68 0 117.5 -51t49.5 -130v-7q0 -80 -49.5 -131.5t-117.5 -51.5q-69 0 -118.5 51.5t-49.5 131.5v7q0 80 49.5 130.5t118.5 50.5zM689 359q68 0 117.5 -51t49.5 -130v-7q0 -80 -49.5 -131.5t-117.5 -51.5q-69 0 -118.5 51.5t-49.5 131.5
v7q0 80 49.5 130.5t118.5 50.5zM218 712q68 0 117.5 -51t49.5 -130v-7q0 -80 -49.5 -131.5t-117.5 -51.5q-69 0 -118.5 51.5t-49.5 131.5v7q0 80 49.5 130.5t118.5 50.5zM689 257q-27 0 -45.5 -22.5t-18.5 -56.5v-7q0 -34 18.5 -57.5t45.5 -23.5q26 0 44 23.5t18 57.5v7
q0 34 -18 56.5t-44 22.5zM218 610q-27 0 -45.5 -22.5t-18.5 -56.5v-7q0 -34 18.5 -57.5t45.5 -23.5q26 0 44 23.5t18 57.5v7q0 34 -18 56.5t-44 22.5zM1069 257q-27 0 -45.5 -22.5t-18.5 -56.5v-7q0 -34 18.5 -57.5t45.5 -23.5q26 0 44 23.5t18 57.5v7q0 34 -18 56.5
t-44 22.5z" />
    <glyph glyph-name="guilsinglleft" unicode="&#x2039;" horiz-adv-x="335" 
d="M50 183v118l159 132l71 -77l-114 -115l114 -113l-71 -78z" />
    <glyph glyph-name="guilsinglright" unicode="&#x203a;" horiz-adv-x="335" 
d="M285 300v-118l-159 -132l-71 77l114 115l-114 113l71 78z" />
    <glyph glyph-name="Euro" unicode="&#x20ac;" horiz-adv-x="808" 
d="M754 678l-53 -171q-104 49 -192 49q-150 0 -202 -77h319l-24 -106h-324v-12q0 -19 1 -28h309l-24 -106h-248q56 -72 193 -72q105 0 212 38l42 -160q-45 -25 -118.5 -41.5t-135.5 -16.5q-155 0 -260.5 68.5t-144.5 183.5h-84v106h63v40h-63v106h83q39 114 147 180t259 66
q121 0 245 -47z" />
    <glyph glyph-name="afii61352" unicode="&#x2116;" horiz-adv-x="1393" 
d="M620 0l-347 474v-474h-185v700h220l347 -475v475h185v-700h-220zM1123 551q-92 0 -156.5 -51.5t-64.5 -136.5q0 -83 62.5 -139.5t158.5 -56.5t158 56.5t62 139.5q0 86 -64 137t-156 51zM912 0v122h421v-122h-421zM1123 436q38 0 63 -20t25 -54t-25.5 -57.5t-62.5 -23.5
t-62.5 23.5t-25.5 57.5t25 54t63 20z" />
    <glyph glyph-name="trademark" unicode="&#x2122;" horiz-adv-x="1099" 
d="M702 315l-111 199l-3 -118.5t-4 -118.5h-126l12 423h151l116 -214l116 214h151l11 -423h-126l-6 234l-110 -196h-71zM0 587v113h427v-113h-154v-310h-120v310h-153z" />
    <glyph glyph-name="CR" horiz-adv-x="302" 
 />
    <glyph glyph-name="afii10037.ss01" horiz-adv-x="762" 
d="M89 121q0 64 45.5 104.5t108.5 40.5q37 0 69 -14l-304 448h206l260 -403q76 179 100 403h190q-80 -375 -203.5 -557.5t-295.5 -182.5q-74 0 -125 44t-51 117zM290 100q55 0 94 49q-54 28 -94 28q-18 0 -30.5 -10.5t-12.5 -28.5q0 -17 12.5 -27.5t30.5 -10.5z" />
    <glyph glyph-name="j.ss01" horiz-adv-x="356" 
d="M102 42q14 0 20 -1v459h166v-476q0 -126 -53 -205t-159 -79q-76 0 -121 42t-45 110q0 70 56.5 110t135.5 40zM110 652q0 36 27.5 61.5t66.5 25.5t66.5 -25.5t27.5 -61.5t-27.5 -61.5t-66.5 -25.5t-66.5 25.5t-27.5 61.5zM74 -135q28 0 42.5 26.5t14.5 68.5
q-39 0 -66.5 -16.5t-27.5 -44.5q0 -16 10.5 -25t26.5 -9z" />
    <glyph glyph-name="afii10085.ss01" horiz-adv-x="643" 
d="M191 500l196 -395q33 181 62 395h166q-36 -251 -90 -446q-84 -304 -293 -304q-76 0 -125.5 46t-49.5 114q0 64 50 103.5t123 46.5l-222 440h183zM245 -120q58 0 106 88q-58 8 -86 8q-34 0 -53 -13.5t-19 -36.5q0 -20 15.5 -33t36.5 -13z" />
    <glyph glyph-name="k.ss01" horiz-adv-x="667" 
d="M280 172v102q156 0 156 59q0 20 -22 31.5t-51 11.5q-38 0 -77 -24t-52 -56v-296h-166v749h166v-351q27 49 80 83t115 34q68 0 122 -43t54 -110q0 -99 -125 -151l28 -36q26 -35 57 -35q15 0 39 8l18 -138q-52 -19 -94 -19q-87 0 -150 87l-70 96q-18 -2 -28 -2z" />
    <glyph glyph-name="percent" horiz-adv-x="906" 
d="M224 0h-152l616 700h152zM521 178q0 80 49.5 130.5t118.5 50.5q68 0 117.5 -51t49.5 -130v-7q0 -80 -49.5 -131.5t-117.5 -51.5q-69 0 -118.5 51.5t-49.5 131.5v7zM218 712q68 0 117.5 -51t49.5 -130v-7q0 -80 -49.5 -131.5t-117.5 -51.5q-69 0 -118.5 51.5t-49.5 131.5
v7q0 80 49.5 130.5t118.5 50.5zM689 257q-27 0 -45.5 -22.5t-18.5 -56.5v-7q0 -34 18.5 -57.5t45.5 -23.5q26 0 44 23.5t18 57.5v7q0 34 -18 56.5t-44 22.5zM218 610q-27 0 -45.5 -22.5t-18.5 -56.5v-7q0 -34 18.5 -57.5t45.5 -23.5q26 0 44 23.5t18 57.5v7q0 34 -18 56.5
t-44 22.5z" />
    <glyph glyph-name="f.ss01" horiz-adv-x="510" 
d="M321 764q89 0 191 -27l-39 -146q-80 34 -119 34q-38 0 -57 -22.5t-19 -80.5v-22h203v-134h-199v-352q0 -139 -48 -201.5t-158 -62.5q-24 0 -36 1v138q76 0 76 103v374h-90v134h90q0 139 47.5 201.5t157.5 62.5z" />
    <glyph glyph-name="_0011" horiz-adv-x="643" 
d="M191 500l196 -395q33 181 62 395h166q-36 -251 -90 -446q-84 -304 -293 -304q-76 0 -125.5 46t-49.5 114q0 64 50 103.5t123 46.5l-222 440h183zM245 -120q58 0 106 88q-58 8 -86 8q-34 0 -53 -13.5t-19 -36.5q0 -20 15.5 -33t36.5 -13z" />
    </font>
</defs>
</svg>
