<?xml version="1.0" standalone="no"?>
<!DOCTYPE svg PUBLIC "-//W3C//DTD SVG 1.1//EN" "http://www.w3.org/Graphics/SVG/1.1/DTD/svg11.dtd" >
<svg>
<metadata>
Created by FontForge 20090622 at Sun Nov 19 20:17:35 2017
 By deploy user
Copyright (c) 2014 by Tkachev. All rights reserved.
</metadata>
<defs>
<font id="UA-brand-Bold" horiz-adv-x="671" >
  <font-face 
    font-family="UA-brand"
    font-weight="700"
    font-stretch="normal"
    units-per-em="1000"
    panose-1="2 0 5 5 0 0 0 2 0 4"
    ascent="800"
    descent="-200"
    x-height="500"
    cap-height="700"
    bbox="-38 -253 1324 964"
    underline-thickness="50"
    underline-position="-50"
    unicode-range="U+0020-U+2122"
  />
<missing-glyph horiz-adv-x="283" 
 />
    <glyph glyph-name=".notdef" horiz-adv-x="283" 
 />
    <glyph glyph-name=".null" horiz-adv-x="0" 
 />
    <glyph glyph-name="nonmarkingreturn" horiz-adv-x="333" 
 />
    <glyph glyph-name="space" unicode=" " horiz-adv-x="283" 
 />
    <glyph glyph-name="exclam" unicode="!" horiz-adv-x="252" 
d="M201 699l-18 -498h-114l-18 498h150zM47 65q0 32 23 55t56 23t56 -23t23 -55q0 -33 -23 -56t-56 -23t-56 23t-23 56z" />
    <glyph glyph-name="quotedbl" unicode="&#x22;" horiz-adv-x="389" 
d="M56 458l-11 242h129l-11 -242h-107zM226 458l-11 242h129l-11 -242h-107z" />
    <glyph glyph-name="numbersign" unicode="#" horiz-adv-x="713" 
d="M366 0l36 177h-165l-36 -177h-113l36 177h-99v99h120l30 147h-109v100h130l37 177h113l-37 -177h165l37 177h114l-37 -177h100v-100h-121l-30 -147h110v-99h-131l-36 -177h-114zM289 423l-31 -147h165l31 147h-165z" />
    <glyph glyph-name="dollar" unicode="$" horiz-adv-x="710" 
d="M303 678v53h115v-52q116 -11 197 -41l-38 -121q-114 49 -222 49q-46 0 -86.5 -19.5t-40.5 -50.5q0 -28 29.5 -46.5t74.5 -27.5t96.5 -23.5t96.5 -33t74.5 -57.5t29.5 -94q0 -74 -60 -126t-151 -68v-54h-115v50q-146 11 -225 52q7 27 32 113q115 -46 238 -46
q60 0 101 21.5t41 61.5q0 27 -29.5 44.5t-74 26.5t-96.5 23.5t-96.5 32.5t-74 56.5t-29.5 92.5q0 71 60.5 121.5t152.5 62.5z" />
    <glyph glyph-name="uni0025" unicode="%" horiz-adv-x="916" 
d="M220 0h-129l602 700h129zM692 358q65 0 112.5 -49.5t47.5 -131.5v-7q0 -81 -47.5 -131.5t-112.5 -50.5q-66 0 -113.5 50.5t-47.5 131.5v7q0 82 47 131.5t114 49.5zM218 711q66 0 113.5 -49.5t47.5 -131.5v-7q0 -81 -47.5 -131.5t-113.5 -50.5t-113.5 50.5t-47.5 131.5v7
q0 82 47.5 131.5t113.5 49.5zM692 272q-31 0 -52.5 -26.5t-21.5 -68.5v-7q0 -42 21.5 -69t52.5 -27q30 0 51 27t21 69v7q0 42 -21 68.5t-51 26.5zM218 625q-31 0 -52 -26.5t-21 -68.5v-7q0 -43 21 -69.5t52 -26.5q30 0 51 27t21 69v7q0 42 -21 68.5t-51 26.5z" />
    <glyph glyph-name="ampersand" unicode="&#x26;" horiz-adv-x="769" 
d="M623 173l120 -92l-77 -95l-126 98q-122 -108 -254 -108q-100 0 -163 50.5t-63 133.5q0 112 134 190q-92 80 -92 174q0 81 65.5 139.5t166.5 58.5q102 0 163.5 -55.5t61.5 -132.5q0 -57 -42 -108t-109 -90l125 -97q65 78 99 160l115 -24q-57 -118 -124 -202zM295 94
q80 4 150 61l-170 133q-76 -46 -76 -108q0 -38 26.5 -62t69.5 -24zM431 530q0 33 -25.5 54.5t-64.5 21.5q-41 0 -69.5 -23.5t-28.5 -60.5q0 -67 87 -128q46 29 73.5 65t27.5 71z" />
    <glyph glyph-name="quotesingle" unicode="'" horiz-adv-x="209" 
d="M51 458l-11 242h129l-11 -242h-107z" />
    <glyph glyph-name="parenleft" unicode="(" horiz-adv-x="361" 
d="M197 308q0 -111 33.5 -210t90.5 -165l-78 -78q-87 92 -135 208t-48 245t48 245t135 208l78 -78q-57 -66 -90.5 -165t-33.5 -210z" />
    <glyph glyph-name="parenright" unicode=")" horiz-adv-x="361" 
d="M164 308q0 111 -33.5 210t-90.5 165l78 78q87 -92 135 -208t48 -245t-48 -245t-135 -208l-78 78q57 66 90.5 165t33.5 210z" />
    <glyph glyph-name="asterisk" unicode="*" horiz-adv-x="442" 
d="M194 562l-27 138h108l-27 -138l123 68l33 -103l-140 -16l104 -96l-88 -63l-59 127l-60 -127l-88 63l104 96l-139 16l33 103z" />
    <glyph glyph-name="plus" unicode="+" horiz-adv-x="667" 
d="M95 273v100h188v188h100v-188h189v-100h-189v-189h-100v189h-188z" />
    <glyph glyph-name="comma" unicode="," horiz-adv-x="264" 
d="M49 62q0 34 24 57.5t58 23.5q43 0 63 -31t20 -76q0 -53 -30 -112.5t-84 -102.5l-58 73q57 50 66 91q-26 8 -42.5 29t-16.5 48z" />
    <glyph glyph-name="hyphen" unicode="-" horiz-adv-x="572" 
d="M90 217v116h392v-116h-392z" />
    <glyph glyph-name="period" unicode="." horiz-adv-x="258" 
d="M50 65q0 32 23 55t56 23t56 -23t23 -55q0 -33 -23 -56t-56 -23t-56 23t-23 56z" />
    <glyph glyph-name="slash" unicode="/" horiz-adv-x="326" 
d="M113 0h-114l214 700h114z" />
    <glyph glyph-name="zero" unicode="0" horiz-adv-x="772" 
d="M386 720q132 0 229 -100t97 -262v-16q0 -162 -97 -262t-229 -100q-133 0 -229.5 100t-96.5 262v16q0 162 96.5 262t229.5 100zM386 600q-78 0 -133.5 -67t-55.5 -173v-20q0 -107 55.5 -173.5t133.5 -66.5q77 0 132.5 66.5t55.5 173.5v20q0 106 -55.5 173t-132.5 67z" />
    <glyph glyph-name="one" unicode="1" horiz-adv-x="371" 
d="M20 544v121l231 41h30v-706h-135v566z" />
    <glyph glyph-name="two" unicode="2" horiz-adv-x="619" 
d="M323 600q-105 0 -202 -114l-96 87q56 63 132 105t155 42q126 0 194 -59t68 -145q0 -81 -55 -147.5t-148 -131.5l-152 -105h347v-132h-506l-29 139l258 185q71 51 109 96.5t38 92.5q0 38 -29.5 62.5t-83.5 24.5z" />
    <glyph glyph-name="three" unicode="3" horiz-adv-x="635" 
d="M199 300v123h96q60 0 95 26t35 70q0 35 -30.5 58t-80.5 23q-103 0 -200 -114l-96 87q56 63 131 105t154 42q124 0 191 -57.5t67 -138.5q0 -96 -93 -156q115 -60 115 -175q0 -89 -71 -151t-189 -62q-157 0 -303 132l90 92q106 -102 213 -102q55 0 89.5 30t34.5 69
q0 43 -42.5 71t-109.5 28h-96z" />
    <glyph glyph-name="four" unicode="4" horiz-adv-x="652" 
d="M30 151v123l341 431l1 -4q-1 1 -1 4h154v-434h97v-120h-97v-151h-134v151h-361zM175 271h216v273z" />
    <glyph glyph-name="five" unicode="5" horiz-adv-x="618" 
d="M10 113l90 91q106 -102 213 -102q58 0 94 31.5t36 77.5q0 49 -37.5 79.5t-100.5 30.5h-218l28 379h443v-127h-324l-10 -136q56 7 103 7q105 0 178 -64.5t73 -166.5q0 -94 -73 -163.5t-192 -69.5q-165 0 -303 133z" />
    <glyph glyph-name="six" unicode="6" horiz-adv-x="687" 
d="M621 619l-82 -97q-81 78 -169 78q-71 0 -118.5 -63t-56.5 -159q95 63 202 63q97 0 171 -61.5t74 -165.5q0 -92 -81.5 -163t-197.5 -71q-135 0 -219 100.5t-84 249.5v13q0 153 88.5 265t214.5 112q69 0 138 -27t120 -74zM379 323q-96 0 -180 -65q15 -71 58.5 -114.5
t105.5 -43.5q61 0 102 31.5t41 79.5q0 49 -37 80.5t-90 31.5z" />
    <glyph glyph-name="seven" unicode="7" horiz-adv-x="558" 
d="M505 700l38 -143l-336 -557h-155l349 568h-381v132h485z" />
    <glyph glyph-name="eight" unicode="8" horiz-adv-x="640" 
d="M582 524q0 -101 -103 -158q57 -26 89 -70t32 -102q0 -87 -81.5 -152t-198.5 -65t-198.5 65t-81.5 152q0 58 32 102t89 70q-103 56 -103 158q0 80 70 139.5t192 59.5q123 0 192.5 -59.5t69.5 -139.5zM315 305q-63 -2 -100.5 -30.5t-37.5 -72.5t40 -73t103 -29t103 29
t40 73q0 46 -40.5 74.5t-107.5 28.5zM445 519q0 38 -34 61t-91 23t-91 -23t-34 -61q0 -43 34 -71t89 -28q58 0 92.5 27.5t34.5 71.5z" />
    <glyph glyph-name="nine" unicode="9" horiz-adv-x="687" 
d="M66 81l82 97q81 -78 169 -78q71 0 118.5 63t56.5 159q-94 -63 -202 -63q-97 0 -171 61.5t-74 165.5q0 92 81.5 163t197.5 71q135 0 219 -100.5t84 -249.5v-13q0 -153 -88.5 -265t-214.5 -112q-69 0 -138 27t-120 74zM308 377q97 0 180 64q-15 71 -58.5 115t-105.5 44
q-61 0 -102 -31.5t-41 -79.5q0 -49 37 -80.5t90 -31.5z" />
    <glyph glyph-name="colon" unicode=":" horiz-adv-x="258" 
d="M50 65q0 32 23 55t56 23t56 -23t23 -55q0 -33 -23 -56t-56 -23t-56 23t-23 56zM50 424q0 32 23 55t56 23t56 -23t23 -55q0 -33 -23 -56t-56 -23t-56 23t-23 56z" />
    <glyph glyph-name="semicolon" unicode=";" horiz-adv-x="258" 
d="M50 424q0 32 23 55t56 23t56 -23t23 -55q0 -33 -23 -56t-56 -23t-56 23t-23 56zM49 62q0 34 24 57.5t58 23.5q43 0 63 -31t20 -76q0 -53 -30 -112.5t-84 -102.5l-58 73q57 50 66 91q-26 8 -42.5 29t-16.5 48z" />
    <glyph glyph-name="less" unicode="&#x3c;" horiz-adv-x="662" 
d="M90 273v100l477 249v-113l-364 -184l364 -188v-113z" />
    <glyph glyph-name="equal" unicode="=" horiz-adv-x="667" 
d="M95 388v100h477v-100h-477zM95 158v100h477v-100h-477z" />
    <glyph glyph-name="greater" unicode="&#x3e;" horiz-adv-x="662" 
d="M572 373v-100l-477 -249v113l364 184l-364 188v113z" />
    <glyph glyph-name="question" unicode="?" horiz-adv-x="540" 
d="M286 600q-50 0 -91.5 -26.5t-95.5 -79.5l-94 86q129 140 277 140q115 0 182.5 -58t67.5 -146q0 -129 -198 -266v-49h-115l-4 105q89 64 134 110.5t45 96.5q0 37 -29.5 62t-78.5 25zM193 65q0 32 23 55t56 23t56 -23t23 -55q0 -33 -23 -56t-56 -23t-56 23t-23 56z" />
    <glyph glyph-name="at" unicode="@" horiz-adv-x="1009" 
d="M753 446v-286q0 -15 9 -24t24 -9q34 0 55 38t21 103q0 142 -99.5 236t-251.5 94q-146 0 -250 -99t-104 -242q0 -142 103.5 -240t249.5 -98q135 0 255 53q2 -6 12 -43t12 -48q-132 -64 -279 -64q-125 0 -231.5 55.5t-171 157.5t-64.5 227q0 124 64.5 227t172 160t231.5 57
q125 0 230.5 -54.5t169.5 -154.5t64 -224q0 -108 -67.5 -177t-156.5 -69q-42 0 -75 24.5t-41 63.5q-25 -38 -70 -62t-99 -24q-92 0 -157.5 67t-65.5 171q0 105 78.5 177t196.5 72q94 0 235 -65zM508 132q46 0 81 24.5t42 67.5v164q-60 19 -114 19q-61 0 -104.5 -42
t-43.5 -100q0 -62 39 -97.5t100 -35.5z" />
    <glyph glyph-name="A" unicode="A" horiz-adv-x="805" 
d="M650 0l-58 129h-384l-58 -129h-140l314 700h157l314 -700h-145zM400 557l-137 -305h274z" />
    <glyph glyph-name="B" unicode="B" horiz-adv-x="780" 
d="M454 700q105 0 179 -51t74 -136q0 -77 -70 -134q114 -53 114 -163q0 -96 -79 -156t-198 -60h-384v700h364zM485 298h-257v-175h236q67 0 107.5 25.5t40.5 71.5q0 37 -35 57.5t-92 20.5zM450 577h-222v-164h203q65 0 101 24t36 68q0 34 -31.5 53t-86.5 19z" />
    <glyph glyph-name="C" unicode="C" horiz-adv-x="829" 
d="M770 664l-39 -127q-141 60 -255 60t-194.5 -65t-80.5 -174q0 -110 80.5 -180t194.5 -70q128 0 264 59l34 -122q-144 -65 -298 -65q-184 0 -300 110t-116 267q0 167 119.5 265t296.5 98q70 0 152.5 -16.5t141.5 -39.5z" />
    <glyph glyph-name="D" unicode="D" horiz-adv-x="894" 
d="M90 0v700h330q116 0 208 -37.5t149 -117t57 -188.5q0 -153 -114.5 -255t-299.5 -102h-330zM420 577h-192v-454h192q115 0 194 64t79 171q0 105 -78.5 162t-194.5 57z" />
    <glyph glyph-name="E" unicode="E" horiz-adv-x="749" 
d="M90 0v700h600v-123h-462v-160h415v-123h-415v-171h471v-123h-609z" />
    <glyph glyph-name="F" unicode="F" horiz-adv-x="730" 
d="M90 0v701h590v-123h-452v-175h411v-123h-411v-280h-138z" />
    <glyph glyph-name="G" unicode="G" horiz-adv-x="860" 
d="M779 664l-39 -127q-141 60 -259 60q-115 0 -197.5 -65t-82.5 -174q0 -111 82 -183t198 -72q83 0 171 25v183h138v-266q-63 -29 -147.5 -47t-161.5 -18q-187 0 -304 110t-117 267q0 111 58.5 195t153 126t209.5 42q70 0 154.5 -16.5t143.5 -39.5z" />
    <glyph glyph-name="H" unicode="H" horiz-adv-x="871" 
d="M781 700v-700h-138v304h-415v-304h-138v700h138v-273h415v273h138z" />
    <glyph glyph-name="I" unicode="I" horiz-adv-x="318" 
d="M228 700v-700h-138v700h138z" />
    <glyph glyph-name="J" unicode="J" horiz-adv-x="318" 
d="M29 -67l-35 121q96 34 96 130v516h138v-516q0 -96 -54.5 -158.5t-144.5 -92.5z" />
    <glyph glyph-name="K" unicode="K" horiz-adv-x="772" 
d="M228 700v-356l360 356h175l-364 -351l368 -349h-189l-350 338v-338h-138v700h138z" />
    <glyph glyph-name="L" unicode="L" horiz-adv-x="700" 
d="M90 0v700h138v-577h450v-123h-588z" />
    <glyph glyph-name="M" unicode="M" horiz-adv-x="1076" 
d="M857 0l-21 517l-246 -456h-98l-253 455l-21 -516h-138l30 700h177l258 -469l250 469h171l30 -700h-139z" />
    <glyph glyph-name="N" unicode="N" horiz-adv-x="901" 
d="M228 527v-527h-138v700h161l422 -527v527h138v-700h-161z" />
    <glyph glyph-name="O" unicode="O" horiz-adv-x="952" 
d="M476 720q177 0 296.5 -98t119.5 -265q0 -157 -116 -267t-300 -110t-300 110t-116 267q0 167 119.5 265t296.5 98zM476 597q-114 0 -194.5 -65t-80.5 -174q0 -111 80.5 -183t194.5 -72t194.5 72t80.5 183q0 109 -80.5 174t-194.5 65z" />
    <glyph glyph-name="P" unicode="P" horiz-adv-x="782" 
d="M732 475q0 -104 -84.5 -171.5t-212.5 -67.5h-207v-236h-138v700h368q115 0 194.5 -63t79.5 -162zM458 577h-230v-218h207q72 0 115.5 32.5t43.5 86.5q0 43 -38 71t-98 28z" />
    <glyph glyph-name="Q" unicode="Q" horiz-adv-x="952" 
d="M935 -121q-27 -19 -74 -33.5t-80 -14.5q-77 0 -139 57l-106 96q-25 -4 -60 -4q-184 0 -300 110t-116 267q0 167 119.5 265t296.5 98t296.5 -98t119.5 -265q0 -105 -54.5 -192.5t-151.5 -136.5l33 -28q46 -39 90 -39q28 0 84 28zM476 597q-114 0 -194.5 -65t-80.5 -174
q0 -111 80.5 -183t194.5 -72t194.5 72t80.5 183q0 109 -80.5 174t-194.5 65z" />
    <glyph glyph-name="R" unicode="R" horiz-adv-x="824" 
d="M814 35q-62 -49 -130 -49q-92 0 -156 81q-24 30 -67 95t-62 90h-171v-252h-138v700h356q114 0 193.5 -61t79.5 -158q0 -75 -46.5 -130.5t-125.5 -80.5l87 -120q24 -34 64 -34q28 0 74 29zM446 577h-218v-207h195q75 0 116.5 28t41.5 83q0 45 -36.5 70.5t-98.5 25.5z" />
    <glyph glyph-name="S" unicode="S" horiz-adv-x="704" 
d="M638 666l-39 -127q-141 60 -252 60q-68 0 -114 -18.5t-46 -56.5q0 -14 5.5 -25.5t19 -20.5t26 -16t36.5 -14t39.5 -11t46.5 -11t47 -11q43 -11 74.5 -21.5t67 -28.5t58 -39t37.5 -53.5t15 -71.5q0 -100 -93 -162.5t-222 -62.5q-155 0 -299 65l34 122q145 -63 259 -63
q80 0 131.5 22.5t51.5 74.5q0 14 -6 25.5t-21 21t-27.5 16t-39.5 14.5t-41.5 11.5l-49.5 11.5q-49 12 -81.5 21t-75 27.5t-68 40t-43.5 55t-18 75.5q0 92 88.5 149t208.5 57q69 0 150 -16t141 -40z" />
    <glyph glyph-name="T" unicode="T" horiz-adv-x="700" 
d="M7 577v123h686v-123h-274v-577h-138v577h-274z" />
    <glyph glyph-name="U" unicode="U" horiz-adv-x="892" 
d="M446 96q99 0 163.5 54t64.5 144v406h138v-403q0 -152 -105.5 -238.5t-260.5 -86.5t-260.5 86.5t-105.5 238.5v403h138v-406q0 -90 64.5 -144t163.5 -54z" />
    <glyph glyph-name="V" unicode="V" horiz-adv-x="805" 
d="M155 700l250 -558l250 558h140l-314 -700h-157l-314 700h145z" />
    <glyph glyph-name="W" unicode="W" horiz-adv-x="1300" 
d="M849 0l-200 534l-198 -534h-157l-274 700h145l209 -540l201 540h155l201 -540l209 540h140l-274 -700h-157z" />
    <glyph glyph-name="X" unicode="X" horiz-adv-x="795" 
d="M193 700l205 -251l202 251h177l-285 -345l298 -355h-184l-213 261l-210 -261h-178l293 355l-289 345h184z" />
    <glyph glyph-name="Y" unicode="Y" horiz-adv-x="768" 
d="M179 700l210 -291l207 291h172l-311 -417v-283h-139v281l-318 419h179z" />
    <glyph glyph-name="Z" unicode="Z" horiz-adv-x="703" 
d="M39 579v123h644v-143l-503 -436h513v-123h-683v143l502 436h-473z" />
    <glyph glyph-name="bracketleft" unicode="[" horiz-adv-x="372" 
d="M87 -133v833h230v-102h-114v-629h114v-102h-230z" />
    <glyph glyph-name="backslash" unicode="\" horiz-adv-x="326" 
d="M327 0h-114l-214 700h114z" />
    <glyph glyph-name="bracketright" unicode="]" horiz-adv-x="372" 
d="M285 700v-833h-230v102h114v629h-114v102h230z" />
    <glyph glyph-name="asciicircum" unicode="^" horiz-adv-x="421" 
d="M302 397l-92 185l-91 -185h-119l152 303h117l152 -303h-119z" />
    <glyph glyph-name="underscore" unicode="_" horiz-adv-x="587" 
d="M65 -152v100h457v-100h-457z" />
    <glyph glyph-name="grave" unicode="`" horiz-adv-x="255" 
d="M117 565l-121 204h142l71 -166z" />
    <glyph glyph-name="a" unicode="a" 
d="M250 285q79 0 168 -31v58q0 40 -25.5 63.5t-71.5 23.5q-66 0 -201 -50l-33 120q158 51 246 51q104 0 160.5 -54t56.5 -156v-180q0 -24 24 -24q20 0 70 26l27 -102q-92 -50 -156 -50q-47 0 -71 28.5t-26 74.5q-38 -46 -93 -74.5t-116 -28.5q-71 0 -117.5 42.5t-46.5 109.5
q0 75 60 114t145 39zM252 93q39 0 85.5 20t80.5 53v19q-82 15 -161 15q-34 0 -55.5 -15.5t-21.5 -41.5q0 -24 19.5 -37t52.5 -13z" />
    <glyph glyph-name="b" unicode="b" horiz-adv-x="708" 
d="M418 517q103 0 175.5 -72t72.5 -190q0 -113 -84 -193t-206 -80q-69 0 -157 21.5t-144 46.5v700h132v-361q26 55 83 91.5t128 36.5zM379 394q-67 0 -119.5 -40t-52.5 -106v-121q89 -29 171 -29q62 0 108.5 47t46.5 110q0 66 -43 102.5t-111 36.5z" />
    <glyph glyph-name="c" unicode="c" horiz-adv-x="615" 
d="M351 517q105 0 219 -40l-32 -118q-103 42 -195 42q-74 0 -121 -39.5t-47 -106.5q0 -70 52 -112t132 -42q50 0 91.5 12t100.5 38l39 -104q-123 -65 -248 -65q-136 0 -218 76.5t-82 191.5q0 121 89.5 194t219.5 73z" />
    <glyph glyph-name="d" unicode="d" horiz-adv-x="716" 
d="M294 -17q-106 0 -179 72t-73 190q0 114 84.5 193.5t209.5 79.5q60 0 173 -36v268h132v-750h-132v111q-26 -55 -84 -91.5t-131 -36.5zM333 106q69 0 122.5 44.5t53.5 113.5v108q-102 30 -175 30q-67 0 -113 -45t-46 -111t44.5 -103t113.5 -37z" />
    <glyph glyph-name="e" unicode="e" horiz-adv-x="653" 
d="M364 101q105 0 201 50l39 -104q-128 -65 -253 -65q-137 0 -223 76.5t-86 191.5q0 121 89.5 194t219.5 73q114 0 190 -66.5t76 -167.5q0 -33 -9 -68h-430q14 -54 64 -84t122 -30zM343 406q-131 0 -162 -94h303q-10 45 -46.5 69.5t-94.5 24.5z" />
    <glyph glyph-name="f" unicode="f" horiz-adv-x="463" 
d="M306 643q-78 0 -78 -79v-64h227v-115h-222v-385h-130v385h-83v115h82v70q0 86 57.5 138t150.5 52q76 0 164 -30l-32 -121q-78 34 -136 34z" />
    <glyph glyph-name="g" unicode="g" horiz-adv-x="631" 
d="M253 66h68q135 0 216 -37t81 -112q0 -83 -81.5 -126.5t-215.5 -43.5q-139 0 -219.5 41.5t-80.5 118.5q0 38 31.5 71.5t71.5 43.5q-20 10 -34 33t-14 47q0 40 54 75q-37 24 -63 62.5t-26 76.5q0 95 75.5 148t184.5 53q83 0 149 -32q62 51 152 66l24 -123q-53 -6 -87 -23
q23 -41 23 -89q0 -86 -74 -143t-187 -57q-39 0 -73 6q-25 -6 -25 -27q0 -29 50 -29zM300 408q-56 0 -91 -23t-35 -65q0 -37 36 -61.5t90 -24.5q56 0 90.5 25t34.5 61q0 42 -35 65t-90 23zM319 -46q-113 0 -130 -1q-41 -17 -41 -46q0 -52 171 -52t171 51q0 48 -171 48z" />
    <glyph glyph-name="h" unicode="h" horiz-adv-x="695" 
d="M373 393q-68 0 -117 -37.5t-49 -107.5v-248h-132v741h132v-352q29 53 83 89.5t121 36.5q101 0 157.5 -61.5t56.5 -164.5v-289h-132v273q0 55 -31 87.5t-89 32.5z" />
    <glyph glyph-name="i" unicode="i" horiz-adv-x="284" 
d="M207 500v-500h-130v500h130zM63 644q0 32 23 55t56 23t56 -23t23 -55q0 -33 -23 -56t-56 -23t-56 23t-23 56z" />
    <glyph glyph-name="j" unicode="j" horiz-adv-x="285" 
d="M209 -55q0 -90 -54.5 -143t-151.5 -53q-15 0 -41 2v132q24 -4 48 -4q33 0 51 16.5t18 46.5v558h130v-555zM63 644q0 32 23 55t56 23t56 -23t23 -55q0 -33 -23 -56t-56 -23t-56 23t-23 56z" />
    <glyph glyph-name="k" unicode="k" horiz-adv-x="635" 
d="M205 750v-750h-130v750h130zM388 36l-176 205l226 259h169l-241 -255l117 -121q12 -12 30 -12q16 0 66 21l31 -107q-90 -39 -129 -39q-52 0 -93 49z" />
    <glyph glyph-name="l" unicode="l" horiz-adv-x="281" 
d="M206 0h-131v750h131v-750z" />
    <glyph glyph-name="m" unicode="m" horiz-adv-x="1051" 
d="M395 515q137 0 183 -122q33 49 89 85.5t115 36.5q96 0 147.5 -60t51.5 -161v-294h-132v278q0 51 -29.5 83t-82.5 32q-56 0 -99.5 -38.5t-43.5 -105.5v-249h-132v278q0 51 -29.5 83t-82.5 32q-57 0 -100 -38t-43 -106v-249h-132v500h132v-106q28 50 77.5 85.5t110.5 35.5z
" />
    <glyph glyph-name="n" unicode="n" horiz-adv-x="695" 
d="M373 393q-68 0 -117 -37.5t-49 -107.5v-248h-132v500h132v-111q29 53 83 89.5t121 36.5q101 0 157.5 -61.5t56.5 -164.5v-289h-132v273q0 55 -31 87.5t-89 32.5z" />
    <glyph glyph-name="o" unicode="o" horiz-adv-x="706" 
d="M353 517q131 0 221 -70.5t90 -191.5q0 -114 -88.5 -193.5t-222.5 -79.5t-222.5 79.5t-88.5 193.5q0 121 90 191.5t221 70.5zM353 402q-80 0 -129 -39.5t-49 -107.5q0 -64 52.5 -111.5t125.5 -47.5t125.5 47.5t52.5 111.5q0 68 -49 107.5t-129 39.5z" />
    <glyph glyph-name="p" unicode="p" horiz-adv-x="716" 
d="M422 517q106 0 179 -72t73 -190q0 -114 -84.5 -193.5t-209.5 -79.5q-59 0 -173 35v-257h-132v740h132v-111q26 55 84 91.5t131 36.5zM383 394q-71 0 -123.5 -40t-52.5 -106v-120q101 -30 175 -30q64 0 111.5 47t47.5 110q0 65 -44.5 102t-113.5 37z" />
    <glyph glyph-name="q" unicode="q" horiz-adv-x="708" 
d="M290 -7q-103 0 -175.5 72t-72.5 190q0 113 84 193t206 80q69 0 157 -21.5t144 -46.5v-700h-132v361q-26 -55 -83 -91.5t-128 -36.5zM329 116q68 0 120 40t52 106v120q-87 30 -171 30q-62 0 -108.5 -47t-46.5 -110q0 -66 43 -102.5t111 -36.5z" />
    <glyph glyph-name="r" unicode="r" horiz-adv-x="469" 
d="M392 517q42 0 84 -20l-28 -120q-37 17 -69 17q-67 0 -119.5 -40.5t-52.5 -105.5v-248h-132v500h132v-111q26 49 76 88.5t109 39.5z" />
    <glyph glyph-name="s" unicode="s" horiz-adv-x="585" 
d="M294 404q-52 0 -86.5 -10.5t-34.5 -29.5q0 -22 38.5 -34t93 -20t109 -20.5t93 -46.5t38.5 -88q0 -79 -79 -127t-178 -48q-130 0 -253 65l39 104q121 -53 217 -53q48 0 86 15t38 40q0 21 -38.5 32.5t-93 19.5t-109 21t-93 47t-38.5 88q0 69 76.5 114.5t182.5 45.5
q110 0 224 -40l-32 -118q-106 43 -200 43z" />
    <glyph glyph-name="t" unicode="t" horiz-adv-x="497" 
d="M20 385v105l99 6l18 154h110v-150h208v-115h-208v-189q0 -41 21.5 -66t59.5 -25q57 0 115 36l29 -113q-86 -45 -166 -45q-92 0 -141.5 56t-49.5 152v194h-95z" />
    <glyph glyph-name="u" unicode="u" horiz-adv-x="691" 
d="M280 -16q-99 0 -154.5 61t-55.5 165v290h132v-273q0 -60 33.5 -90.5t93.5 -30.5q68 0 111.5 38.5t43.5 113.5v242h132v-500h-132v110q-28 -55 -83 -90.5t-121 -35.5z" />
    <glyph glyph-name="v" unicode="v" horiz-adv-x="618" 
d="M145 500l164 -351l162 351h147l-237 -500h-145l-236 500h145z" />
    <glyph glyph-name="w" unicode="w" horiz-adv-x="1012" 
d="M654 0l-147 342l-148 -342h-135l-219 500h143l145 -344l145 344h138l145 -343l146 343h140l-219 -500h-134z" />
    <glyph glyph-name="x" unicode="x" horiz-adv-x="628" 
d="M3 0l225 250l-228 250h173l144 -159l139 159h168l-225 -249l229 -251h-171l-146 160l-140 -160h-168z" />
    <glyph glyph-name="y" unicode="y" horiz-adv-x="620" 
d="M620 500l-241 -541q-19 -42 -30 -64t-32.5 -54.5t-43 -49t-55 -29t-74.5 -12.5q-18 0 -46 5l7 127q30 -5 45 -5q36 0 59 29t47 82q0 1 1 3l1 2l-258 507h144l179 -357l152 357h145z" />
    <glyph glyph-name="z" unicode="z" horiz-adv-x="571" 
d="M34 0v130l348 255h-331v115h474v-130l-348 -255h358v-115h-501z" />
    <glyph glyph-name="braceleft" unicode="{" horiz-adv-x="398" 
d="M118 516q0 83 42.5 133.5t127.5 50.5h55v-102h-50q-26 0 -43 -19t-17 -47v-100q0 -105 -76 -149q76 -43 76 -148v-100q0 -29 17 -48t43 -19h50v-101h-55q-85 0 -127.5 50.5t-42.5 133.5v118q0 30 -17 47t-45 17h-36v100h36q28 0 45 17t17 47v119z" />
    <glyph glyph-name="bar" unicode="|" horiz-adv-x="290" 
d="M87 -133v833h116v-833h-116z" />
    <glyph glyph-name="braceright" unicode="}" horiz-adv-x="398" 
d="M280 516v-119q0 -30 17 -47t44 -17h37v-100h-37q-27 0 -44 -17t-17 -47v-118q0 -87 -46 -135.5t-137 -48.5h-42v102h49q27 0 43.5 19t16.5 47v84q0 121 76 164q-76 43 -76 164v85q0 28 -16.5 47t-43.5 19h-49v102h42q91 0 137 -48.5t46 -135.5z" />
    <glyph glyph-name="asciitilde" unicode="~" horiz-adv-x="660" 
d="M128 244l-56 81q73 73 144 73q34 0 108.5 -27t107.5 -27q55 0 100 50l56 -81q-73 -73 -144 -73q-34 0 -108.5 27t-107.5 27q-55 0 -100 -50z" />
    <glyph glyph-name="exclamdown" unicode="&#xa1;" horiz-adv-x="252" 
d="M51 -211l18 498h114l18 -498h-150zM205 423q0 -32 -23 -55t-56 -23t-56 23t-23 55q0 33 23 56t56 23t56 -23t23 -56z" />
    <glyph glyph-name="cent" unicode="&#xa2;" horiz-adv-x="605" 
d="M280 564v68h115v-65q72 -7 164 -41l-30 -114q-107 50 -189 50q-70 0 -116 -41t-46 -113t48.5 -114.5t121.5 -42.5q85 0 182 38l30 -111q-77 -35 -165 -45v-67h-115v69q-107 17 -172 91.5t-65 179.5t66.5 173.5t170.5 84.5z" />
    <glyph glyph-name="sterling" unicode="&#xa3;" horiz-adv-x="649" 
d="M63 294v105h90v96q0 226 197 226q83 0 168 -26l-31 -114q-67 30 -122 30q-82 0 -82 -105v-107h210v-105h-210v-149l40.5 -14.5l43 -15t39 -10.5t40.5 -5q63 0 116 58l65 -95q-87 -85 -166 -85q-40 0 -125.5 31.5t-123.5 31.5q-63 0 -116 -58l-65 95q64 63 122 77v139h-90
z" />
    <glyph glyph-name="currency" unicode="&#xa4;" horiz-adv-x="599" 
d="M101 461l-54 55l76 76q38 -40 58 -59q55 30 119 30q63 0 118 -30q28 30 58 58l76 -75l-54 -54q40 -56 40 -123t-40 -123l54 -53l-76 -76l-58 57q-53 -29 -118 -29t-119 30l-58 -58l-76 76l54 54q-38 54 -38 122q0 69 38 122zM178 339q0 -52 35 -87t87 -35t87 35t35 87
t-35 87.5t-87 35.5t-87 -35.5t-35 -87.5z" />
    <glyph glyph-name="yen" unicode="&#xa5;" horiz-adv-x="749" 
d="M131 304v100h79l-207 296h168l211 -307l209 307h155l-203 -296h75v-100h-142l-31 -42v-21h173v-100h-173v-141h-136v141h-178v100h177v21l-30 42h-147z" />
    <glyph glyph-name="brokenbar" unicode="&#xa6;" horiz-adv-x="290" 
d="M87 361v339h116v-339h-116zM87 -133v339h116v-339h-116z" />
    <glyph glyph-name="section" unicode="&#xa7;" horiz-adv-x="742" 
d="M103 520q0 87 79 142t190 55q147 0 258 -48l-35 -111q-107 49 -220 49q-52 0 -95.5 -23t-43.5 -59q0 -28 30 -47t75 -29t97 -25t97 -33t75 -56t30 -91q0 -75 -82 -131q85 -52 85 -136q0 -87 -81.5 -143t-194.5 -56q-67 0 -146 15t-125 38l31 107q115 -45 237 -45
q63 0 105 22t42 63q0 32 -42 52t-102 33t-120 30.5t-102 58t-42 103.5q0 76 82 131q-82 52 -82 134zM511 243q0 21 -13.5 37t-37 25t-45 15t-49.5 11t-39 8q-43 -9 -69 -30t-26 -50q0 -21 13.5 -36.5t37 -25t45 -15t49.5 -10.5t39 -8q43 9 69 30t26 49z" />
    <glyph glyph-name="dieresis" unicode="&#xa8;" horiz-adv-x="362" 
d="M2 652q0 29 21 49.5t52 20.5t51.5 -20.5t20.5 -49.5q0 -30 -20.5 -50.5t-51.5 -20.5t-52 20.5t-21 50.5zM217 652q0 29 20.5 49.5t51.5 20.5t52 -20.5t21 -49.5q0 -30 -21 -50.5t-52 -20.5t-51.5 20.5t-20.5 50.5z" />
    <glyph glyph-name="copyright" unicode="&#xa9;" horiz-adv-x="886" 
d="M612 540l-28 -94q-76 35 -130 35q-59 0 -100 -34.5t-41 -92.5q0 -59 41.5 -96.5t99.5 -37.5q60 0 138 31l23 -89q-73 -38 -161 -38q-110 0 -177.5 65.5t-67.5 162.5q0 100 69.5 160t175.5 60q76 0 158 -32zM56 348q0 157 112.5 267.5t273.5 110.5t274 -110.5t113 -267.5
t-113 -267t-274 -110t-273.5 110t-112.5 267zM141 348q0 -125 88 -213.5t213 -88.5t214 88.5t89 213.5t-89 213.5t-214 88.5t-213 -88.5t-88 -213.5z" />
    <glyph glyph-name="ordfeminine" unicode="&#xaa;" horiz-adv-x="529" 
d="M318 360l-3 2q-27 -40 -69.5 -66t-93.5 -26q-54 0 -92 33t-38 86q0 61 45 95.5t111 34.5t137 -27v48q0 33 -18.5 52.5t-55.5 19.5q-55 0 -166 -39l-27 98q119 39 203 39q171 0 171 -172v-148q0 -21 18 -21q20 0 58 22l21 -80q-69 -41 -123 -41q-39 0 -58 25.5t-20 64.5z
M188 361q39 0 75 21.5t52 53.5v5q-43 10 -95 13h-25q-65 -3 -65 -50q0 -20 16.5 -31.5t41.5 -11.5z" />
    <glyph glyph-name="guillemotleft" unicode="&#xab;" horiz-adv-x="556" 
d="M60 191v102l161 138l60 -65l-122 -125l122 -123l-60 -66zM275 191v102l162 138l59 -65l-122 -125l122 -123l-59 -66z" />
    <glyph glyph-name="logicalnot" unicode="&#xac;" horiz-adv-x="667" 
d="M95 388v100h477v-279h-98v179h-379z" />
    <glyph glyph-name="registered" unicode="&#xae;" horiz-adv-x="885" 
d="M649 143h-116l-95 135h-82v-135h-99v413h214q70 0 119 -37.5t49 -98.5q0 -44 -26 -78t-70 -51q16 -24 53 -74t53 -74zM471 465h-115v-100h103q81 0 81 55q0 45 -69 45zM56 348q0 157 112.5 267.5t273.5 110.5t274 -110.5t113 -267.5t-113 -267t-274 -110t-273.5 110
t-112.5 267zM141 348q0 -125 88 -213.5t213 -88.5t214 88.5t89 213.5t-89 213.5t-214 88.5t-213 -88.5t-88 -213.5z" />
    <glyph glyph-name="degree" unicode="&#xb0;" horiz-adv-x="644" 
d="M58 554q0 67 49.5 114.5t120.5 47.5q70 0 119.5 -47t49.5 -115t-49.5 -115.5t-119.5 -47.5t-120 47.5t-50 115.5zM150 554q0 -32 23 -55t55 -23t54.5 23t22.5 55t-22.5 54.5t-54.5 22.5t-55 -22.5t-23 -54.5z" />
    <glyph glyph-name="plusminus" unicode="&#xb1;" horiz-adv-x="667" 
d="M95 275v98h188v188h100v-188h189v-98h-189v-162h-100v162h-188zM95 0v98h477v-98h-477z" />
    <glyph glyph-name="twosuperior" unicode="&#xb2;" horiz-adv-x="387" 
d="M203 617q-50 0 -110 -68l-74 68q36 41 85 68t93 27q75 0 117.5 -38t42.5 -91q0 -25 -9 -47t-35 -47t-38.5 -35.5t-57 -41t-52.5 -36.5h187v-101h-308l-20 97l132 100q33 24 47.5 36t30.5 31.5t16 35.5q0 18 -13 30t-34 12z" />
    <glyph glyph-name="threesuperior" unicode="&#xb3;" horiz-adv-x="417" 
d="M148 451v83h58q27 0 42 12t15 33q0 16 -13.5 26.5t-35.5 10.5q-52 0 -116 -60l-70 67q38 39 87 63t97 24q73 0 114 -35t41 -85q0 -28 -17 -52t-42 -39q31 -14 51.5 -40.5t20.5 -61.5q0 -55 -43.5 -94.5t-113.5 -39.5q-101 0 -194 83l68 71q64 -57 123 -57q25 0 41 13
t16 32q0 21 -19.5 33.5t-52.5 12.5h-57z" />
    <glyph glyph-name="acute" unicode="&#xb4;" horiz-adv-x="212" 
d="M229 769l-122 -204l-91 38l71 166h142z" />
    <glyph glyph-name="mu" unicode="&#xb5;" horiz-adv-x="693" 
d="M75 500h130v-270q0 -58 29.5 -93.5t85.5 -35.5q64 0 113.5 42t54.5 119v238h130v-500h-111l-10 93q-28 -50 -76.5 -79.5t-106.5 -29.5q-73 0 -123 55q10 -176 14 -279h-130v740z" />
    <glyph glyph-name="paragraph" unicode="&#xb6;" horiz-adv-x="735" 
d="M471 -133v723h-111v-723h-115v398q-89 0 -152 64t-63 154q0 89 63 153t152 64h425v-110h-84v-723h-115z" />
    <glyph glyph-name="periodcentered" unicode="&#xb7;" horiz-adv-x="366" 
d="M105 300q0 31 23 52.5t55 21.5t55 -21.5t23 -52.5t-23 -52.5t-55 -21.5t-55 21.5t-23 52.5z" />
    <glyph glyph-name="cedilla" unicode="&#xb8;" horiz-adv-x="401" 
d="M267 32l-30 -83q42 -5 69.5 -31t27.5 -65t-33.5 -68.5t-81.5 -29.5q-67 0 -128 46l46 62q44 -30 82 -30q16 0 25.5 7.5t9.5 19.5q0 29 -38 29h-83l50 143h84z" />
    <glyph glyph-name="onesuperior" unicode="&#xb9;" horiz-adv-x="258" 
d="M5 579v96l139 25h41v-428h-103v320q-65 -12 -77 -13z" />
    <glyph glyph-name="ordmasculine" unicode="&#xba;" horiz-adv-x="552" 
d="M276 710q105 0 176.5 -58.5t71.5 -158.5q0 -96 -70.5 -161.5t-177.5 -65.5q-108 0 -178.5 65.5t-70.5 161.5q0 100 72 158.5t177 58.5zM276 617q-61 0 -99.5 -33.5t-38.5 -90.5q0 -55 40.5 -94.5t97.5 -39.5t97.5 39.5t40.5 94.5q0 57 -39 90.5t-99 33.5z" />
    <glyph glyph-name="guillemotright" unicode="&#xbb;" horiz-adv-x="556" 
d="M496 293v-102l-161 -139l-60 66l122 123l-122 125l60 65zM281 293v-102l-162 -139l-59 66l122 123l-122 125l59 65z" />
    <glyph glyph-name="questiondown" unicode="&#xbf;" horiz-adv-x="540" 
d="M254 -112q50 0 91.5 26.5t95.5 79.5l94 -86q-129 -140 -277 -140q-115 0 -182.5 58t-67.5 146q0 129 198 266v49h115l4 -105q-89 -64 -134 -110.5t-45 -96.5q0 -38 29.5 -62.5t78.5 -24.5zM347 423q0 -32 -23 -55t-56 -23t-56 23t-23 55q0 33 23 56t56 23t56 -23t23 -56z
" />
    <glyph glyph-name="Agrave" unicode="&#xc0;" horiz-adv-x="805" 
d="M650 0l-58 129h-384l-58 -129h-140l314 700h157l314 -700h-145zM400 557l-137 -305h274zM367 755l-121 204h142l71 -166z" />
    <glyph glyph-name="Aacute" unicode="&#xc1;" horiz-adv-x="805" 
d="M650 0l-58 129h-384l-58 -129h-140l314 700h157l314 -700h-145zM400 557l-137 -305h274zM565 959l-122 -204l-91 38l71 166h142z" />
    <glyph glyph-name="Acircumflex" unicode="&#xc2;" horiz-adv-x="805" 
d="M650 0l-58 129h-384l-58 -129h-140l314 700h157l314 -700h-145zM400 557l-137 -305h274zM484 959l96 -157l-87 -47l-91 126l-90 -126l-87 47l96 157h163z" />
    <glyph glyph-name="Atilde" unicode="&#xc3;" horiz-adv-x="805" 
d="M650 0l-58 129h-384l-58 -129h-140l314 700h157l314 -700h-145zM400 557l-137 -305h274zM252 773l-54 86q23 27 56.5 46t63.5 19q25 0 75 -19t73 -19q38 0 73 40l54 -85q-23 -27 -56.5 -46t-63.5 -19q-25 0 -75 18.5t-73 18.5q-38 0 -73 -40z" />
    <glyph glyph-name="Adieresis" unicode="&#xc4;" horiz-adv-x="805" 
d="M650 0l-58 129h-384l-58 -129h-140l314 700h157l314 -700h-145zM400 557l-137 -305h274zM223 842q0 29 21 49.5t52 20.5t51.5 -20.5t20.5 -49.5q0 -30 -20.5 -50.5t-51.5 -20.5t-52 20.5t-21 50.5zM438 842q0 29 20.5 49.5t51.5 20.5t52 -20.5t21 -49.5q0 -30 -21 -50.5
t-52 -20.5t-51.5 20.5t-20.5 50.5z" />
    <glyph glyph-name="Aring" unicode="&#xc5;" horiz-adv-x="805" 
d="M650 0l-58 129h-384l-58 -129h-140l314 700h45q-47 11 -77 46t-30 79q0 52 42 90.5t101 38.5t101 -38.5t42 -90.5q0 -44 -30.5 -79t-77.5 -46h41l314 -700h-145zM400 557l-137 -305h274zM345 825q0 -24 17 -40t43 -16t43 16t17 40q0 23 -17 39t-43 16t-43 -16t-17 -39z
" />
    <glyph glyph-name="AE" unicode="&#xc6;" horiz-adv-x="1207" 
d="M1148 700v-123h-452v-160h405v-123h-405v-171h461v-123h-599v129h-315l-91 -129h-160l496 700h660zM329 252h229v324z" />
    <glyph glyph-name="Ccedilla" unicode="&#xc7;" horiz-adv-x="829" 
d="M770 664l-39 -127q-141 60 -255 60t-194.5 -65t-80.5 -174q0 -110 80.5 -180t194.5 -70q128 0 264 59l34 -122q-124 -56 -270 -64l-11 -32q42 -5 69.5 -31t27.5 -65t-33.5 -68.5t-81.5 -29.5q-67 0 -128 46l46 62q44 -30 82 -30q16 0 25.5 7.5t9.5 19.5q0 29 -38 29h-83
l32 94q-162 17 -261.5 123t-99.5 251q0 167 119.5 265t296.5 98q70 0 152.5 -16.5t141.5 -39.5z" />
    <glyph glyph-name="Egrave" unicode="&#xc8;" horiz-adv-x="749" 
d="M90 0v700h600v-123h-462v-160h415v-123h-415v-171h471v-123h-609zM369 755l-121 204h142l71 -166z" />
    <glyph glyph-name="Eacute" unicode="&#xc9;" horiz-adv-x="749" 
d="M90 0v700h600v-123h-462v-160h415v-123h-415v-171h471v-123h-609zM551 959l-122 -204l-91 38l71 166h142z" />
    <glyph glyph-name="Ecircumflex" unicode="&#xca;" horiz-adv-x="749" 
d="M90 0v700h600v-123h-462v-160h415v-123h-415v-171h471v-123h-609zM466 959l96 -157l-87 -47l-91 126l-90 -126l-87 47l96 157h163z" />
    <glyph glyph-name="Edieresis" unicode="&#xcb;" horiz-adv-x="749" 
d="M90 0v700h600v-123h-462v-160h415v-123h-415v-171h471v-123h-609zM200 842q0 29 21 49.5t52 20.5t51.5 -20.5t20.5 -49.5q0 -30 -20.5 -50.5t-51.5 -20.5t-52 20.5t-21 50.5zM415 842q0 29 20.5 49.5t51.5 20.5t52 -20.5t21 -49.5q0 -30 -21 -50.5t-52 -20.5t-51.5 20.5
t-20.5 50.5z" />
    <glyph glyph-name="Igrave" unicode="&#xcc;" horiz-adv-x="318" 
d="M228 700v-700h-138v700h138zM133 755l-121 204h142l71 -166z" />
    <glyph glyph-name="Iacute" unicode="&#xcd;" horiz-adv-x="318" 
d="M228 700v-700h-138v700h138zM305 959l-122 -204l-91 38l71 166h142z" />
    <glyph glyph-name="Icircumflex" unicode="&#xce;" horiz-adv-x="318" 
d="M228 700v-700h-138v700h138zM241 959l96 -157l-87 -47l-91 126l-90 -126l-87 47l96 157h163z" />
    <glyph glyph-name="Idieresis" unicode="&#xcf;" horiz-adv-x="318" 
d="M228 700v-700h-138v700h138zM-20 842q0 29 21 49.5t52 20.5t51.5 -20.5t20.5 -49.5q0 -30 -20.5 -50.5t-51.5 -20.5t-52 20.5t-21 50.5zM195 842q0 29 20.5 49.5t51.5 20.5t52 -20.5t21 -49.5q0 -30 -21 -50.5t-52 -20.5t-51.5 20.5t-20.5 50.5z" />
    <glyph glyph-name="Eth" unicode="&#xd0;" horiz-adv-x="914" 
d="M20 292v116h90v292h330q116 0 208 -37.5t149 -117t57 -188.5q0 -153 -114.5 -255t-299.5 -102h-330v292h-90zM440 577h-192v-169h164v-116h-164v-169h192q115 0 194 64t79 171q0 105 -78.5 162t-194.5 57z" />
    <glyph glyph-name="Ntilde" unicode="&#xd1;" horiz-adv-x="901" 
d="M228 527v-527h-138v700h161l422 -527v527h138v-700h-161zM307 773l-54 86q23 27 56.5 46t63.5 19q25 0 75 -19t73 -19q38 0 73 40l54 -85q-23 -27 -56.5 -46t-63.5 -19q-25 0 -75 18.5t-73 18.5q-38 0 -73 -40z" />
    <glyph glyph-name="Ograve" unicode="&#xd2;" horiz-adv-x="952" 
d="M476 720q177 0 296.5 -98t119.5 -265q0 -157 -116 -267t-300 -110t-300 110t-116 267q0 167 119.5 265t296.5 98zM476 597q-114 0 -194.5 -65t-80.5 -174q0 -111 80.5 -183t194.5 -72t194.5 72t80.5 183q0 109 -80.5 174t-194.5 65zM423 755l-121 204h142l71 -166z" />
    <glyph glyph-name="Oacute" unicode="&#xd3;" horiz-adv-x="952" 
d="M476 720q177 0 296.5 -98t119.5 -265q0 -157 -116 -267t-300 -110t-300 110t-116 267q0 167 119.5 265t296.5 98zM476 597q-114 0 -194.5 -65t-80.5 -174q0 -111 80.5 -183t194.5 -72t194.5 72t80.5 183q0 109 -80.5 174t-194.5 65zM638 959l-122 -204l-91 38l71 166h142
z" />
    <glyph glyph-name="Ocircumflex" unicode="&#xd4;" horiz-adv-x="952" 
d="M476 720q177 0 296.5 -98t119.5 -265q0 -157 -116 -267t-300 -110t-300 110t-116 267q0 167 119.5 265t296.5 98zM476 597q-114 0 -194.5 -65t-80.5 -174q0 -111 80.5 -183t194.5 -72t194.5 72t80.5 183q0 109 -80.5 174t-194.5 65zM557 959l96 -157l-87 -47l-91 126
l-90 -126l-87 47l96 157h163z" />
    <glyph glyph-name="Otilde" unicode="&#xd5;" horiz-adv-x="952" 
d="M476 720q177 0 296.5 -98t119.5 -265q0 -157 -116 -267t-300 -110t-300 110t-116 267q0 167 119.5 265t296.5 98zM476 597q-114 0 -194.5 -65t-80.5 -174q0 -111 80.5 -183t194.5 -72t194.5 72t80.5 183q0 109 -80.5 174t-194.5 65zM332 773l-54 86q23 27 56.5 46
t63.5 19q25 0 75 -19t73 -19q38 0 73 40l54 -85q-23 -27 -56.5 -46t-63.5 -19q-25 0 -75 18.5t-73 18.5q-38 0 -73 -40z" />
    <glyph glyph-name="Odieresis" unicode="&#xd6;" horiz-adv-x="952" 
d="M476 720q177 0 296.5 -98t119.5 -265q0 -157 -116 -267t-300 -110t-300 110t-116 267q0 167 119.5 265t296.5 98zM476 597q-114 0 -194.5 -65t-80.5 -174q0 -111 80.5 -183t194.5 -72t194.5 72t80.5 183q0 109 -80.5 174t-194.5 65zM297 842q0 29 21 49.5t52 20.5
t51.5 -20.5t20.5 -49.5q0 -30 -20.5 -50.5t-51.5 -20.5t-52 20.5t-21 50.5zM512 842q0 29 20.5 49.5t51.5 20.5t52 -20.5t21 -49.5q0 -30 -21 -50.5t-52 -20.5t-51.5 20.5t-20.5 50.5z" />
    <glyph glyph-name="multiply" unicode="&#xd7;" horiz-adv-x="612" 
d="M166 112l-71 70l139 140l-139 140l71 71l139 -140l141 141l71 -71l-141 -141l141 -140l-71 -71l-141 140z" />
    <glyph glyph-name="Oslash" unicode="&#xd8;" horiz-adv-x="952" 
d="M476 720q81 0 155 -23l2 3h114l-26 -42q80 -47 125.5 -124t45.5 -177q0 -157 -116 -267t-300 -110q-78 0 -150 22l-1 -2h-114l26 43q-83 52 -130 134.5t-47 179.5q0 167 119.5 265t296.5 98zM476 597q-114 0 -194.5 -65t-80.5 -174q0 -128 104 -202l259 429
q-42 12 -88 12zM751 358q0 119 -98 187l-259 -431q41 -11 82 -11q114 0 194.5 72t80.5 183z" />
    <glyph glyph-name="Ugrave" unicode="&#xd9;" horiz-adv-x="892" 
d="M446 96q-99 0 -163.5 54t-64.5 144v406h-138v-403q0 -152 105.5 -238.5t260.5 -86.5t260.5 86.5t105.5 238.5v403h-138v-406q0 -90 -64.5 -144t-163.5 -54zM410 755l-121 204h142l71 -166z" />
    <glyph glyph-name="Uacute" unicode="&#xda;" horiz-adv-x="892" 
d="M446 96q-99 0 -163.5 54t-64.5 144v406h-138v-403q0 -152 105.5 -238.5t260.5 -86.5t260.5 86.5t105.5 238.5v403h-138v-406q0 -90 -64.5 -144t-163.5 -54zM592 959l-122 -204l-91 38l71 166h142z" />
    <glyph glyph-name="Ucircumflex" unicode="&#xdb;" horiz-adv-x="892" 
d="M446 96q-99 0 -163.5 54t-64.5 144v406h-138v-403q0 -152 105.5 -238.5t260.5 -86.5t260.5 86.5t105.5 238.5v403h-138v-406q0 -90 -64.5 -144t-163.5 -54zM527 959l96 -157l-87 -47l-91 126l-90 -126l-87 47l96 157h163z" />
    <glyph glyph-name="Udieresis" unicode="&#xdc;" horiz-adv-x="892" 
d="M446 96q-99 0 -163.5 54t-64.5 144v406h-138v-403q0 -152 105.5 -238.5t260.5 -86.5t260.5 86.5t105.5 238.5v403h-138v-406q0 -90 -64.5 -144t-163.5 -54zM267 842q0 29 21 49.5t52 20.5t51.5 -20.5t20.5 -49.5q0 -30 -20.5 -50.5t-51.5 -20.5t-52 20.5t-21 50.5z
M482 842q0 29 20.5 49.5t51.5 20.5t52 -20.5t21 -49.5q0 -30 -21 -50.5t-52 -20.5t-51.5 20.5t-20.5 50.5z" />
    <glyph glyph-name="Yacute" unicode="&#xdd;" horiz-adv-x="768" 
d="M179 700l210 -291l207 291h172l-311 -417v-283h-139v281l-318 419h179zM550 959l-122 -204l-91 38l71 166h142z" />
    <glyph glyph-name="Thorn" unicode="&#xde;" horiz-adv-x="782" 
d="M228 700v-113h230q115 0 194.5 -63t79.5 -162q0 -104 -84.5 -171.5t-212.5 -67.5h-207v-123h-138v700h138zM458 464h-230v-218h207q72 0 115.5 32.5t43.5 86.5q0 43 -38 71t-98 28z" />
    <glyph glyph-name="agrave" unicode="&#xe0;" 
d="M250 285q79 0 168 -31v58q0 40 -25.5 63.5t-71.5 23.5q-66 0 -201 -50l-33 120q158 51 246 51q104 0 160.5 -54t56.5 -156v-180q0 -24 24 -24q20 0 70 26l27 -102q-92 -50 -156 -50q-47 0 -71 28.5t-26 74.5q-38 -46 -93 -74.5t-116 -28.5q-71 0 -117.5 42.5t-46.5 109.5
q0 75 60 114t145 39zM252 93q39 0 85.5 20t80.5 53v19q-82 15 -161 15q-34 0 -55.5 -15.5t-21.5 -41.5q0 -24 19.5 -37t52.5 -13zM260 565l-121 204h142l71 -166z" />
    <glyph glyph-name="aacute" unicode="&#xe1;" 
d="M250 285q79 0 168 -31v58q0 40 -25.5 63.5t-71.5 23.5q-66 0 -201 -50l-33 120q158 51 246 51q104 0 160.5 -54t56.5 -156v-180q0 -24 24 -24q20 0 70 26l27 -102q-92 -50 -156 -50q-47 0 -71 28.5t-26 74.5q-38 -46 -93 -74.5t-116 -28.5q-71 0 -117.5 42.5t-46.5 109.5
q0 75 60 114t145 39zM252 93q39 0 85.5 20t80.5 53v19q-82 15 -161 15q-34 0 -55.5 -15.5t-21.5 -41.5q0 -24 19.5 -37t52.5 -13zM471 769l-122 -204l-91 38l71 166h142z" />
    <glyph glyph-name="acircumflex" unicode="&#xe2;" 
d="M250 285q79 0 168 -31v58q0 40 -25.5 63.5t-71.5 23.5q-66 0 -201 -50l-33 120q158 51 246 51q104 0 160.5 -54t56.5 -156v-180q0 -24 24 -24q20 0 70 26l27 -102q-92 -50 -156 -50q-47 0 -71 28.5t-26 74.5q-38 -46 -93 -74.5t-116 -28.5q-71 0 -117.5 42.5t-46.5 109.5
q0 75 60 114t145 39zM252 93q39 0 85.5 20t80.5 53v19q-82 15 -161 15q-34 0 -55.5 -15.5t-21.5 -41.5q0 -24 19.5 -37t52.5 -13zM387 769l96 -157l-87 -47l-91 126l-90 -126l-87 47l96 157h163z" />
    <glyph glyph-name="atilde" unicode="&#xe3;" 
d="M250 285q79 0 168 -31v58q0 40 -25.5 63.5t-71.5 23.5q-66 0 -201 -50l-33 120q158 51 246 51q104 0 160.5 -54t56.5 -156v-180q0 -24 24 -24q20 0 70 26l27 -102q-92 -50 -156 -50q-47 0 -71 28.5t-26 74.5q-38 -46 -93 -74.5t-116 -28.5q-71 0 -117.5 42.5t-46.5 109.5
q0 75 60 114t145 39zM252 93q39 0 85.5 20t80.5 53v19q-82 15 -161 15q-34 0 -55.5 -15.5t-21.5 -41.5q0 -24 19.5 -37t52.5 -13zM165 583l-54 86q23 27 56.5 46t63.5 19q25 0 75 -19t73 -19q38 0 73 40l54 -85q-23 -27 -56.5 -46t-63.5 -19q-25 0 -75 18.5t-73 18.5
q-38 0 -73 -40z" />
    <glyph glyph-name="adieresis" unicode="&#xe4;" 
d="M250 285q79 0 168 -31v58q0 40 -25.5 63.5t-71.5 23.5q-66 0 -201 -50l-33 120q158 51 246 51q104 0 160.5 -54t56.5 -156v-180q0 -24 24 -24q20 0 70 26l27 -102q-92 -50 -156 -50q-47 0 -71 28.5t-26 74.5q-38 -46 -93 -74.5t-116 -28.5q-71 0 -117.5 42.5t-46.5 109.5
q0 75 60 114t145 39zM252 93q39 0 85.5 20t80.5 53v19q-82 15 -161 15q-34 0 -55.5 -15.5t-21.5 -41.5q0 -24 19.5 -37t52.5 -13zM133 652q0 29 21 49.5t52 20.5t51.5 -20.5t20.5 -49.5q0 -30 -20.5 -50.5t-51.5 -20.5t-52 20.5t-21 50.5zM348 652q0 29 20.5 49.5t51.5 20.5
t52 -20.5t21 -49.5q0 -30 -21 -50.5t-52 -20.5t-51.5 20.5t-20.5 50.5z" />
    <glyph glyph-name="aring" unicode="&#xe5;" 
d="M170 667q0 52 42 90.5t101 38.5t101 -38.5t42 -90.5t-42 -90.5t-101 -38.5t-101 38.5t-42 90.5zM253 667q0 -24 17 -40t43 -16t43 16t17 40q0 23 -17 39t-43 16t-43 -16t-17 -39zM250 285q79 0 168 -31v58q0 40 -25.5 63.5t-71.5 23.5q-66 0 -201 -50l-33 120
q158 51 246 51q104 0 160.5 -54t56.5 -156v-180q0 -24 24 -24q20 0 70 26l27 -102q-92 -50 -156 -50q-47 0 -71 28.5t-26 74.5q-38 -46 -93 -74.5t-116 -28.5q-71 0 -117.5 42.5t-46.5 109.5q0 75 60 114t145 39zM252 93q39 0 85.5 20t80.5 53v19q-82 15 -161 15
q-34 0 -55.5 -15.5t-21.5 -41.5q0 -24 19.5 -37t52.5 -13z" />
    <glyph glyph-name="ae" unicode="&#xe6;" horiz-adv-x="1030" 
d="M418 254v58q0 40 -25.5 63.5t-71.5 23.5q-66 0 -201 -50l-33 120q158 51 246 51q121 0 178 -74q86 71 217 71q114 0 190 -66.5t76 -167.5q0 -33 -9 -68h-430q14 -54 63.5 -84t119.5 -30q108 0 204 50l39 -104q-128 -65 -253 -65q-89 0 -158.5 34t-108.5 92
q-53 -61 -112 -94.5t-137 -33.5q-72 0 -119.5 42t-47.5 110q0 75 60 114t145 39q79 0 168 -31zM720 406q-131 0 -162 -94h303q-10 45 -46.5 69.5t-94.5 24.5zM257 200q-34 0 -55.5 -15.5t-21.5 -41.5q0 -24 19.5 -37t52.5 -13q44 0 94 22.5t83 59.5q0 2 -2 8q-87 17 -170 17
z" />
    <glyph glyph-name="ccedilla" unicode="&#xe7;" horiz-adv-x="615" 
d="M351 517q105 0 219 -40l-32 -118q-103 42 -195 42q-74 0 -121 -39.5t-47 -106.5q0 -70 52 -112t132 -42q50 0 91.5 12t100.5 38l39 -104q-105 -55 -211 -63l-12 -35q42 -5 69.5 -31t27.5 -65t-33.5 -68.5t-81.5 -29.5q-67 0 -128 46l46 62q44 -30 82 -30q16 0 25.5 7.5
t9.5 19.5q0 29 -38 29h-83l33 96q-117 13 -185.5 86.5t-68.5 178.5q0 121 89.5 194t219.5 73z" />
    <glyph glyph-name="egrave" unicode="&#xe8;" horiz-adv-x="653" 
d="M364 101q-72 0 -122 30t-64 84h430q9 35 9 68q0 101 -76 167.5t-190 66.5q-130 0 -219.5 -73t-89.5 -194q0 -115 86 -191.5t223 -76.5q125 0 253 65l-39 104q-96 -50 -201 -50zM343 406q58 0 94.5 -24.5t46.5 -69.5h-303q31 94 162 94zM308 565l-121 204h142l71 -166z
" />
    <glyph glyph-name="eacute" unicode="&#xe9;" horiz-adv-x="653" 
d="M364 101q-72 0 -122 30t-64 84h430q9 35 9 68q0 101 -76 167.5t-190 66.5q-130 0 -219.5 -73t-89.5 -194q0 -115 86 -191.5t223 -76.5q125 0 253 65l-39 104q-96 -50 -201 -50zM343 406q58 0 94.5 -24.5t46.5 -69.5h-303q31 94 162 94zM495 769l-122 -204l-91 38l71 166
h142z" />
    <glyph glyph-name="ecircumflex" unicode="&#xea;" horiz-adv-x="653" 
d="M364 101q-72 0 -122 30t-64 84h430q9 35 9 68q0 101 -76 167.5t-190 66.5q-130 0 -219.5 -73t-89.5 -194q0 -115 86 -191.5t223 -76.5q125 0 253 65l-39 104q-96 -50 -201 -50zM343 406q58 0 94.5 -24.5t46.5 -69.5h-303q31 94 162 94zM414 769l96 -157l-87 -47l-91 126
l-90 -126l-87 47l96 157h163z" />
    <glyph glyph-name="edieresis" unicode="&#xeb;" horiz-adv-x="653" 
d="M364 101q-72 0 -122 30t-64 84h430q9 35 9 68q0 101 -76 167.5t-190 66.5q-130 0 -219.5 -73t-89.5 -194q0 -115 86 -191.5t223 -76.5q125 0 253 65l-39 104q-96 -50 -201 -50zM343 406q58 0 94.5 -24.5t46.5 -69.5h-303q31 94 162 94zM147 652q0 29 21 49.5t52 20.5
t51.5 -20.5t20.5 -49.5q0 -30 -20.5 -50.5t-51.5 -20.5t-52 20.5t-21 50.5zM362 652q0 29 20.5 49.5t51.5 20.5t52 -20.5t21 -49.5q0 -30 -21 -50.5t-52 -20.5t-51.5 20.5t-20.5 50.5z" />
    <glyph glyph-name="igrave" unicode="&#xec;" horiz-adv-x="284" 
d="M207 500v-500h-130v500h130zM97 565l-121 204h142l71 -166z" />
    <glyph glyph-name="iacute" unicode="&#xed;" horiz-adv-x="284" 
d="M207 500v-500h-130v500h130zM310 769l-122 -204l-91 38l71 166h142z" />
    <glyph glyph-name="icircumflex" unicode="&#xee;" horiz-adv-x="284" 
d="M207 500v-500h-130v500h130zM224 769l96 -157l-87 -47l-91 126l-90 -126l-87 47l96 157h163z" />
    <glyph glyph-name="idieresis" unicode="&#xef;" horiz-adv-x="284" 
d="M207 500v-500h-130v500h130zM-37 652q0 29 21 49.5t52 20.5t51.5 -20.5t20.5 -49.5q0 -30 -20.5 -50.5t-51.5 -20.5t-52 20.5t-21 50.5zM178 652q0 29 20.5 49.5t51.5 20.5t52 -20.5t21 -49.5q0 -30 -21 -50.5t-52 -20.5t-51.5 20.5t-20.5 50.5z" />
    <glyph glyph-name="eth" unicode="&#xf0;" horiz-adv-x="696" 
d="M346 568l-182 -86q-24 48 -35 73l132 62q-2 2 -3 2l-68 34l55 98q76 -38 139 -75l142 68l33 -74l-99 -48q194 -155 194 -314v-30q0 -127 -86 -212.5t-220 -85.5q-129 0 -217.5 79.5t-88.5 185.5q0 115 71.5 180.5t177.5 65.5q28 0 53 -5.5t52 -19t41 -22t45.5 -30
t39.5 -27.5q-45 96 -176 181zM307 379q-60 0 -95 -35.5t-35 -98.5q0 -59 48.5 -105.5t122.5 -46.5q73 0 123.5 50.5t50.5 116.5v22q-48 44 -105 70.5t-110 26.5z" />
    <glyph glyph-name="ntilde" unicode="&#xf1;" horiz-adv-x="695" 
d="M373 393q-68 0 -117 -37.5t-49 -107.5v-248h-132v500h132v-111q29 53 83 89.5t121 36.5q101 0 157.5 -61.5t56.5 -164.5v-289h-132v273q0 55 -31 87.5t-89 32.5zM204 583l-54 86q23 27 56.5 46t63.5 19q25 0 75 -19t73 -19q38 0 73 40l54 -85q-23 -27 -56.5 -46
t-63.5 -19q-25 0 -75 18.5t-73 18.5q-38 0 -73 -40z" />
    <glyph glyph-name="ograve" unicode="&#xf2;" horiz-adv-x="706" 
d="M353 517q-131 0 -221 -70.5t-90 -191.5q0 -114 88.5 -193.5t222.5 -79.5t222.5 79.5t88.5 193.5q0 121 -90 191.5t-221 70.5zM353 402q80 0 129 -39.5t49 -107.5q0 -64 -52.5 -111.5t-125.5 -47.5t-125.5 47.5t-52.5 111.5q0 68 49 107.5t129 39.5zM304 565l-121 204h142
l71 -166z" />
    <glyph glyph-name="oacute" unicode="&#xf3;" horiz-adv-x="706" 
d="M353 517q-131 0 -221 -70.5t-90 -191.5q0 -114 88.5 -193.5t222.5 -79.5t222.5 79.5t88.5 193.5q0 121 -90 191.5t-221 70.5zM353 402q80 0 129 -39.5t49 -107.5q0 -64 -52.5 -111.5t-125.5 -47.5t-125.5 47.5t-52.5 111.5q0 68 49 107.5t129 39.5zM505 769l-122 -204
l-91 38l71 166h142z" />
    <glyph glyph-name="ocircumflex" unicode="&#xf4;" horiz-adv-x="706" 
d="M353 517q-131 0 -221 -70.5t-90 -191.5q0 -114 88.5 -193.5t222.5 -79.5t222.5 79.5t88.5 193.5q0 121 -90 191.5t-221 70.5zM353 402q80 0 129 -39.5t49 -107.5q0 -64 -52.5 -111.5t-125.5 -47.5t-125.5 47.5t-52.5 111.5q0 68 49 107.5t129 39.5zM434 769l96 -157
l-87 -47l-91 126l-90 -126l-87 47l96 157h163z" />
    <glyph glyph-name="otilde" unicode="&#xf5;" horiz-adv-x="706" 
d="M353 517q-131 0 -221 -70.5t-90 -191.5q0 -114 88.5 -193.5t222.5 -79.5t222.5 79.5t88.5 193.5q0 121 -90 191.5t-221 70.5zM353 402q80 0 129 -39.5t49 -107.5q0 -64 -52.5 -111.5t-125.5 -47.5t-125.5 47.5t-52.5 111.5q0 68 49 107.5t129 39.5zM209 583l-54 86
q23 27 56.5 46t63.5 19q25 0 75 -19t73 -19q38 0 73 40l54 -85q-23 -27 -56.5 -46t-63.5 -19q-25 0 -75 18.5t-73 18.5q-38 0 -73 -40z" />
    <glyph glyph-name="odieresis" unicode="&#xf6;" horiz-adv-x="706" 
d="M353 517q-131 0 -221 -70.5t-90 -191.5q0 -114 88.5 -193.5t222.5 -79.5t222.5 79.5t88.5 193.5q0 121 -90 191.5t-221 70.5zM353 402q80 0 129 -39.5t49 -107.5q0 -64 -52.5 -111.5t-125.5 -47.5t-125.5 47.5t-52.5 111.5q0 68 49 107.5t129 39.5zM174 652q0 29 21 49.5
t52 20.5t51.5 -20.5t20.5 -49.5q0 -30 -20.5 -50.5t-51.5 -20.5t-52 20.5t-21 50.5zM389 652q0 29 20.5 49.5t51.5 20.5t52 -20.5t21 -49.5q0 -30 -21 -50.5t-52 -20.5t-51.5 20.5t-20.5 50.5z" />
    <glyph glyph-name="divide" unicode="&#xf7;" horiz-adv-x="667" 
d="M95 273v100h477v-100h-477zM254 137q0 31 23.5 53t56.5 22t56 -22t23 -53q0 -32 -23 -54t-56 -22t-56.5 22.5t-23.5 53.5zM254 507q0 31 23.5 53.5t56.5 22.5t56 -22t23 -54q0 -31 -23 -53t-56 -22t-56.5 22t-23.5 53z" />
    <glyph glyph-name="oslash" unicode="&#xf8;" horiz-adv-x="706" 
d="M218 0h-114l39 51q-101 80 -101 204q0 121 90 191.5t221 70.5q71 0 134 -23l4 6h114l-38 -49q97 -72 97 -196q0 -114 -88.5 -193.5t-222.5 -79.5q-69 0 -131 24zM353 402q-80 0 -129 -39.5t-49 -107.5q0 -60 45 -105l190 245q-32 7 -57 7zM353 96q73 0 125.5 47.5
t52.5 111.5q0 60 -39 99l-194 -250q27 -8 55 -8z" />
    <glyph glyph-name="ugrave" unicode="&#xf9;" horiz-adv-x="691" 
d="M280 -16q-99 0 -154.5 61t-55.5 165v290h132v-273q0 -60 33.5 -90.5t93.5 -30.5q68 0 111.5 38.5t43.5 113.5v242h132v-500h-132v110q-28 -55 -83 -90.5t-121 -35.5zM300 565l-121 204h142l71 -166z" />
    <glyph glyph-name="uacute" unicode="&#xfa;" horiz-adv-x="691" 
d="M280 -16q-99 0 -154.5 61t-55.5 165v290h132v-273q0 -60 33.5 -90.5t93.5 -30.5q68 0 111.5 38.5t43.5 113.5v242h132v-500h-132v110q-28 -55 -83 -90.5t-121 -35.5zM513 769l-122 -204l-91 38l71 166h142z" />
    <glyph glyph-name="ucircumflex" unicode="&#xfb;" horiz-adv-x="691" 
d="M280 -16q-99 0 -154.5 61t-55.5 165v290h132v-273q0 -60 33.5 -90.5t93.5 -30.5q68 0 111.5 38.5t43.5 113.5v242h132v-500h-132v110q-28 -55 -83 -90.5t-121 -35.5zM427 769l96 -157l-87 -47l-91 126l-90 -126l-87 47l96 157h163z" />
    <glyph glyph-name="udieresis" unicode="&#xfc;" horiz-adv-x="691" 
d="M280 -16q-99 0 -154.5 61t-55.5 165v290h132v-273q0 -60 33.5 -90.5t93.5 -30.5q68 0 111.5 38.5t43.5 113.5v242h132v-500h-132v110q-28 -55 -83 -90.5t-121 -35.5zM166 652q0 29 21 49.5t52 20.5t51.5 -20.5t20.5 -49.5q0 -30 -20.5 -50.5t-51.5 -20.5t-52 20.5
t-21 50.5zM381 652q0 29 20.5 49.5t51.5 20.5t52 -20.5t21 -49.5q0 -30 -21 -50.5t-52 -20.5t-51.5 20.5t-20.5 50.5z" />
    <glyph glyph-name="yacute" unicode="&#xfd;" horiz-adv-x="620" 
d="M620 500l-241 -541q-19 -42 -30 -64t-32.5 -54.5t-43 -49t-55 -29t-74.5 -12.5q-18 0 -46 5l7 127q30 -5 45 -5q36 0 59 29t47 82q0 1 1 3l1 2l-258 507h144l179 -357l152 357h145zM476 769l-122 -204l-91 38l71 166h142z" />
    <glyph glyph-name="thorn" unicode="&#xfe;" horiz-adv-x="716" 
d="M422 517q106 0 179 -72t73 -190q0 -114 -84.5 -193.5t-209.5 -79.5q-59 0 -173 35v-257h-132v990h132v-361q26 55 84 91.5t131 36.5zM383 394q-71 0 -123.5 -40t-52.5 -106v-120q101 -30 175 -30q64 0 111.5 47t47.5 110q0 65 -44.5 102t-113.5 37z" />
    <glyph glyph-name="ydieresis" unicode="&#xff;" horiz-adv-x="620" 
d="M620 500l-241 -541q-19 -42 -30 -64t-32.5 -54.5t-43 -49t-55 -29t-74.5 -12.5q-18 0 -46 5l7 127q30 -5 45 -5q36 0 59 29t47 82q0 1 1 3l1 2l-258 507h144l179 -357l152 357h145zM136 652q0 29 21 49.5t52 20.5t51.5 -20.5t20.5 -49.5q0 -30 -20.5 -50.5t-51.5 -20.5
t-52 20.5t-21 50.5zM351 652q0 29 20.5 49.5t51.5 20.5t52 -20.5t21 -49.5q0 -30 -21 -50.5t-52 -20.5t-51.5 20.5t-20.5 50.5z" />
    <glyph glyph-name="aogonek" unicode="&#x105;" 
d="M250 285q79 0 168 -31v58q0 40 -25.5 63.5t-71.5 23.5q-66 0 -201 -50l-33 120q158 51 246 51q104 0 160.5 -54t56.5 -156v-180q0 -24 24 -24q20 0 70 26l27 -102q-33 -18 -66 -30q-107 -68 -107 -119q0 -44 49 -44q46 0 95 29l29 -67q-64 -43 -135 -43q-56 0 -92.5 30.5
t-36.5 82.5q0 65 61 121q-48 24 -50 93q-38 -46 -93 -74.5t-116 -28.5q-71 0 -117.5 42.5t-46.5 109.5q0 75 60 114t145 39zM252 93q39 0 85.5 20t80.5 53v19q-82 15 -161 15q-34 0 -55.5 -15.5t-21.5 -41.5q0 -24 19.5 -37t52.5 -13z" />
    <glyph glyph-name="OE" unicode="&#x152;" horiz-adv-x="1320" 
d="M1261 700v-123h-462v-160h415v-123h-415v-171h471v-123h-609v27q-89 -47 -185 -47q-184 0 -300 110t-116 267q0 167 119.5 265t296.5 98q89 0 185 -42v22h600zM476 103q107 0 185 64v372q-76 58 -185 58q-114 0 -194.5 -65t-80.5 -174q0 -111 80.5 -183t194.5 -72z" />
    <glyph glyph-name="oe" unicode="&#x153;" horiz-adv-x="1142" 
d="M353 517q157 0 245 -94q89 94 242 94q114 0 190 -66.5t76 -167.5q0 -33 -9 -68h-430q14 -54 64 -84t122 -30q105 0 201 50l39 -104q-128 -65 -253 -65q-157 0 -245 98q-91 -98 -242 -98q-134 0 -222.5 79.5t-88.5 193.5q0 121 90 191.5t221 70.5zM353 402
q-80 0 -129 -39.5t-49 -107.5q0 -64 52.5 -111.5t125.5 -47.5q71 0 123 45t55 107v7q0 68 -49 107.5t-129 39.5zM832 406q-131 0 -162 -94h303q-10 45 -46.5 69.5t-94.5 24.5z" />
    <glyph glyph-name="Scaron" unicode="&#x160;" horiz-adv-x="704" 
d="M599 539l39 127q-60 24 -141 40t-150 16q-120 0 -208.5 -57t-88.5 -149q0 -42 18 -75.5t43.5 -55t68 -40t75 -27.5t81.5 -21l49.5 -11.5t41.5 -11.5t39.5 -14.5t27.5 -16t21 -21t6 -25.5q0 -52 -51.5 -74.5t-131.5 -22.5q-114 0 -259 63l-34 -122q144 -65 299 -65
q129 0 222 62.5t93 162.5q0 39 -15 71.5t-37.5 53.5t-58 39t-67 28.5t-74.5 21.5q-16 4 -47 11t-46.5 11t-39.5 11t-36.5 14t-26 16t-19 20.5t-5.5 25.5q0 38 46 56.5t114 18.5q111 0 252 -60zM442 964l87 -47l-96 -157h-163l-96 157l87 47l90 -126z" />
    <glyph glyph-name="scaron" unicode="&#x161;" horiz-adv-x="585" 
d="M294 404q-52 0 -86.5 -10.5t-34.5 -29.5q0 -22 38.5 -34t93 -20t109 -20.5t93 -46.5t38.5 -88q0 -79 -79 -127t-178 -48q-130 0 -253 65l39 104q121 -53 217 -53q48 0 86 15t38 40q0 21 -38.5 32.5t-93 19.5t-109 21t-93 47t-38.5 88q0 69 76.5 114.5t182.5 45.5
q110 0 224 -40l-32 -118q-106 43 -200 43zM383 774l87 -47l-96 -157h-163l-96 157l87 47l90 -126z" />
    <glyph glyph-name="Ydieresis" unicode="&#x178;" horiz-adv-x="768" 
d="M179 700l210 -291l207 291h172l-311 -417v-283h-139v281l-318 419h179zM205 842q0 29 21 49.5t52 20.5t51.5 -20.5t20.5 -49.5q0 -30 -20.5 -50.5t-51.5 -20.5t-52 20.5t-21 50.5zM420 842q0 29 20.5 49.5t51.5 20.5t52 -20.5t21 -49.5q0 -30 -21 -50.5t-52 -20.5
t-51.5 20.5t-20.5 50.5z" />
    <glyph glyph-name="Zcaron" unicode="&#x17d;" horiz-adv-x="703" 
d="M39 579v123h644v-143l-503 -436h513v-123h-683v143l502 436h-473zM442 964l87 -47l-96 -157h-163l-96 157l87 47l90 -126z" />
    <glyph glyph-name="zcaron" unicode="&#x17e;" horiz-adv-x="571" 
d="M34 0v130l348 255h-331v115h474v-130l-348 -255h358v-115h-501zM374 774l87 -47l-96 -157h-163l-96 157l87 47l90 -126z" />
    <glyph glyph-name="florin" unicode="&#x192;" horiz-adv-x="463" 
d="M20 385v115h82v70q0 86 57.5 138t150.5 52q76 0 164 -30l-32 -121q-78 34 -136 34q-78 0 -78 -79v-64h227v-115h-222v-440q0 -90 -54.5 -143t-151.5 -53q-15 0 -41 2v132q24 -4 48 -4q33 0 51 16.5t18 46.5v443h-83z" />
    <glyph glyph-name="circumflex" unicode="&#x2c6;" horiz-adv-x="355" 
d="M259 769l96 -157l-87 -47l-91 126l-90 -126l-87 47l96 157h163z" />
    <glyph glyph-name="caron" unicode="&#x2c7;" horiz-adv-x="355" 
d="M268 774l87 -47l-96 -157h-163l-96 157l87 47l90 -126z" />
    <glyph glyph-name="ogonek" unicode="&#x2db;" horiz-adv-x="264" 
d="M235 -134l29 -67q-64 -43 -135 -43q-56 0 -92.5 30.5t-36.5 82.5q0 35 15 65t48.5 58t60 45.5t77.5 47.5l11 6l42 -59q-63 -33 -113 -74.5t-50 -76.5q0 -44 49 -44q46 0 95 29z" />
    <glyph glyph-name="tilde" unicode="&#x2dc;" horiz-adv-x="382" 
d="M46 583l-54 86q23 27 56.5 46t63.5 19q25 0 75 -19t73 -19q38 0 73 40l54 -85q-23 -27 -56.5 -46t-63.5 -19q-25 0 -75 18.5t-73 18.5q-38 0 -73 -40z" />
    <glyph glyph-name="afii10023" unicode="&#x401;" horiz-adv-x="749" 
d="M90 0v701h600v-123h-462v-161h415v-123h-415v-171h471v-123h-609zM198 842q0 29 21 49.5t52 20.5t51.5 -20.5t20.5 -49.5q0 -30 -20.5 -50.5t-51.5 -20.5t-52 20.5t-21 50.5zM413 842q0 29 20.5 49.5t51.5 20.5t52 -20.5t21 -49.5q0 -30 -21 -50.5t-52 -20.5t-51.5 20.5
t-20.5 50.5z" />
    <glyph glyph-name="afii10051" unicode="&#x402;" horiz-adv-x="915" 
d="M7 577v123h696v-123h-284v-248q29 53 83.5 89.5t124.5 36.5q102 0 160 -61.5t58 -164.5v-284q0 -89 -55.5 -142.5t-152.5 -53.5q-15 0 -41 2v132q24 -4 48 -4q33 0 51 16.5t18 46.5v271q0 55 -32.5 87.5t-91.5 32.5q-69 0 -119.5 -37.5t-50.5 -107.5v-188h-138v577h-274z
" />
    <glyph glyph-name="afii10052" unicode="&#x403;" horiz-adv-x="675" 
d="M90 0v701h580v-123h-442v-578h-138zM522 959l-122 -204l-91 38l71 166h142z" />
    <glyph glyph-name="afii10053" unicode="&#x404;" horiz-adv-x="836" 
d="M587 417v-123h-380q21 -89 94 -138.5t177 -49.5q127 0 263 59l40 -120q-63 -29 -146 -47t-157 -18q-92 0 -171 30.5t-132.5 81.5t-84 118t-30.5 139q0 170 120.5 270.5t297.5 100.5q70 0 154.5 -16.5t143.5 -39.5l-39 -127q-141 60 -259 60q-102 0 -177 -47t-95 -133h381
z" />
    <glyph glyph-name="afii10054" unicode="&#x405;" horiz-adv-x="704" 
d="M638 666l-39 -127q-141 60 -252 60q-68 0 -114 -18.5t-46 -56.5q0 -14 5.5 -25.5t19 -20.5t26 -16t36.5 -14t39.5 -11t46.5 -11t47 -11q43 -11 74.5 -21.5t67 -28.5t58 -39t37.5 -53.5t15 -71.5q0 -100 -93 -162.5t-222 -62.5q-155 0 -299 65l34 122q145 -63 259 -63
q80 0 131.5 22.5t51.5 74.5q0 14 -6 25.5t-21 21t-27.5 16t-39.5 14.5t-41.5 11.5l-49.5 11.5q-49 12 -81.5 21t-75 27.5t-68 40t-43.5 55t-18 75.5q0 92 88.5 149t208.5 57q69 0 150 -16t141 -40z" />
    <glyph glyph-name="uni0406" unicode="&#x406;" horiz-adv-x="318" 
d="M228 700v-700h-138v700h138z" />
    <glyph glyph-name="afii10056" unicode="&#x407;" horiz-adv-x="318" 
d="M-2 840q0 31 20.5 52.5t50.5 21.5t50.5 -21.5t20.5 -52.5q0 -32 -20.5 -53.5t-50.5 -21.5t-50.5 21.5t-20.5 53.5zM178 840q0 31 20.5 52.5t50.5 21.5t50.5 -21.5t20.5 -52.5q0 -32 -20.5 -53.5t-50.5 -21.5t-50.5 21.5t-20.5 53.5zM228 700v-700h-138v700h138z" />
    <glyph glyph-name="afii10057" unicode="&#x408;" horiz-adv-x="318" 
d="M29 -67l-35 121q96 34 96 130v516h138v-516q0 -96 -54.5 -158.5t-144.5 -92.5z" />
    <glyph glyph-name="afii10058" unicode="&#x409;" horiz-adv-x="1284" 
d="M0 -18l5 136q15 -3 20 -3q40 0 70.5 22t50.5 65t33 94.5t19.5 122t9 135t2.5 146.5h527v-263h227q115 0 192.5 -59.5t77.5 -152.5q0 -97 -84 -161t-209 -64h-342v577h-259q-3 -105 -12 -186.5t-31 -161.5t-56 -132.5t-90 -85t-130 -32.5q-12 0 -21 3zM964 314h-227v-191
h204q71 0 113 27.5t42 77.5q0 39 -36.5 62.5t-95.5 23.5z" />
    <glyph glyph-name="afii10059" unicode="&#x40a;" horiz-adv-x="1318" 
d="M633 0v314h-405v-314h-138v700h138v-263h405v263h138v-263h227q115 0 192.5 -59.5t77.5 -152.5q0 -97 -84 -161t-209 -64h-342zM998 314h-227v-191h204q71 0 113 27.5t42 77.5q0 39 -36.5 62.5t-95.5 23.5z" />
    <glyph glyph-name="afii10060" unicode="&#x40b;" horiz-adv-x="915" 
d="M7 577v123h696v-123h-284v-248q29 53 83.5 89.5t124.5 36.5q102 0 160 -61.5t58 -164.5v-229h-132v213q0 55 -32.5 87.5t-91.5 32.5q-69 0 -119.5 -37.5t-50.5 -107.5v-188h-138v577h-274z" />
    <glyph glyph-name="afii10061" unicode="&#x40c;" horiz-adv-x="772" 
d="M228 700v-356l360 356h175l-364 -351l228 -216q19 -19 49 -19q28 0 77 31l42 -110q-62 -49 -132 -49q-69 0 -126 54l-309 298v-338h-138v700h138zM549 959l-122 -204l-91 38l71 166h142z" />
    <glyph glyph-name="afii10062" unicode="&#x40e;" horiz-adv-x="768" 
d="M199 901l107 10q9 -97 97 -97t97 97l107 -10q-5 -79 -62.5 -128t-141.5 -49t-141.5 49t-62.5 128zM162 700l244 -437l222 437h140l-283 -539q-97 -185 -254 -185q-35 0 -91 13l14 124q52 -12 83 -12q67 0 101 40l-323 559h147z" />
    <glyph glyph-name="afii10145" unicode="&#x40f;" horiz-adv-x="859" 
d="M90 0v700h138v-577h403v577h138v-700h-272v-165h-135v165h-272z" />
    <glyph glyph-name="afii10017" unicode="&#x410;" horiz-adv-x="805" 
d="M650 0l-58 129h-384l-58 -129h-140l314 700h157l314 -700h-145zM400 557l-137 -305h274z" />
    <glyph glyph-name="afii10018" unicode="&#x411;" horiz-adv-x="807" 
d="M90 0v701h595v-123h-457v-130h245q114 0 194 -61t80 -156q0 -100 -85.5 -165.5t-211.5 -65.5h-360zM473 325h-245v-202h222q71 0 115 29t44 82q0 42 -38 66.5t-98 24.5z" />
    <glyph glyph-name="afii10019" unicode="&#x412;" horiz-adv-x="780" 
d="M454 700q105 0 179 -51t74 -136q0 -77 -70 -134q114 -53 114 -163q0 -96 -79 -156t-198 -60h-384v700h364zM485 298h-257v-175h236q67 0 107.5 25.5t40.5 71.5q0 37 -35 57.5t-92 20.5zM450 577h-222v-164h203q65 0 101 24t36 68q0 34 -31.5 53t-86.5 19z" />
    <glyph glyph-name="afii10020" unicode="&#x413;" horiz-adv-x="675" 
d="M90 0v701h580v-123h-442v-578h-138z" />
    <glyph glyph-name="afii10021" unicode="&#x414;" horiz-adv-x="861" 
d="M851 123v-288h-135v165h-581v-165h-135v288h7q48 0 82.5 33t54 84t30.5 131t14.5 154.5t3.5 174.5h547v-577h112zM322 577q-9 -320 -92 -454h371v454h-279z" />
    <glyph glyph-name="afii10022" unicode="&#x415;" horiz-adv-x="749" 
d="M90 0v701h600v-123h-462v-161h415v-123h-415v-171h471v-123h-609z" />
    <glyph glyph-name="afii10024" unicode="&#x416;" horiz-adv-x="1083" 
d="M611 700v-356l298 356h165l-310 -355l314 -345h-179l-288 337v-337h-138v338l-289 -338h-179l313 345l-309 355h165l299 -357v357h138z" />
    <glyph glyph-name="afii10025" unicode="&#x417;" horiz-adv-x="693" 
d="M55 49l43 117q160 -63 262 -63q73 0 119 26t46 76q0 44 -37 66.5t-94 22.5h-143v123h89q66 0 105 24t39 69q0 39 -34 63t-88 24q-118 0 -259 -60l-44 124q59 25 145.5 42t157.5 17q104 0 181 -55.5t77 -141.5q0 -84 -87 -146q60 -24 95.5 -68t35.5 -103q0 -95 -91 -160.5
t-211 -65.5q-73 0 -157.5 20t-149.5 49z" />
    <glyph glyph-name="afii10026" unicode="&#x418;" horiz-adv-x="901" 
d="M673 0v547l-422 -547h-161v700h138v-547l422 547h161v-700h-138z" />
    <glyph glyph-name="afii10027" unicode="&#x419;" horiz-adv-x="901" 
d="M249 901l107 10q9 -97 97 -97t97 97l107 -10q-5 -79 -62.5 -128t-141.5 -49t-141.5 49t-62.5 128zM673 0v547l-422 -547h-161v700h138v-547l422 547h161v-700h-138z" />
    <glyph glyph-name="afii10028" unicode="&#x41a;" horiz-adv-x="772" 
d="M228 700v-356l360 356h175l-364 -351l228 -216q19 -19 49 -19q28 0 77 31l42 -110q-62 -49 -132 -49q-69 0 -126 54l-309 298v-338h-138v700h138z" />
    <glyph glyph-name="afii10029" unicode="&#x41b;" horiz-adv-x="837" 
d="M0 -18l5 136q15 -3 20 -3q40 0 70.5 22t50.5 65t33 94.5t19.5 122t9 135t2.5 146.5h537v-700h-138v577h-269q-3 -105 -12 -186.5t-31 -161.5t-56 -132.5t-90 -85t-130 -32.5q-12 0 -21 3z" />
    <glyph glyph-name="afii10030" unicode="&#x41c;" horiz-adv-x="1076" 
d="M857 0l-21 517l-246 -456h-98l-253 455l-21 -516h-138l30 700h177l258 -469l250 469h171l30 -700h-139z" />
    <glyph glyph-name="afii10031" unicode="&#x41d;" horiz-adv-x="871" 
d="M781 700v-700h-138v304h-415v-304h-138v700h138v-273h415v273h138z" />
    <glyph glyph-name="afii10032" unicode="&#x41e;" horiz-adv-x="952" 
d="M476 720q177 0 296.5 -98t119.5 -265q0 -157 -116 -267t-300 -110t-300 110t-116 267q0 167 119.5 265t296.5 98zM476 597q-114 0 -194.5 -65t-80.5 -174q0 -111 80.5 -183t194.5 -72t194.5 72t80.5 183q0 109 -80.5 174t-194.5 65z" />
    <glyph glyph-name="afii10033" unicode="&#x41f;" horiz-adv-x="867" 
d="M777 700v-700h-138v577h-411v-577h-138v700h687z" />
    <glyph glyph-name="afii10034" unicode="&#x420;" horiz-adv-x="782" 
d="M732 475q0 -104 -84.5 -171.5t-212.5 -67.5h-207v-236h-138v700h368q115 0 194.5 -63t79.5 -162zM458 577h-230v-218h207q72 0 115.5 32.5t43.5 86.5q0 43 -38 71t-98 28z" />
    <glyph glyph-name="afii10035" unicode="&#x421;" horiz-adv-x="829" 
d="M770 664l-39 -127q-141 60 -255 60t-194.5 -65t-80.5 -174q0 -110 80.5 -180t194.5 -70q128 0 264 59l34 -122q-144 -65 -298 -65q-184 0 -300 110t-116 267q0 167 119.5 265t296.5 98q70 0 152.5 -16.5t141.5 -39.5z" />
    <glyph glyph-name="afii10036" unicode="&#x422;" horiz-adv-x="700" 
d="M7 577v123h686v-123h-274v-577h-138v577h-274z" />
    <glyph glyph-name="afii10037" unicode="&#x423;" horiz-adv-x="768" 
d="M162 700l244 -437l222 437h140l-283 -539q-97 -185 -254 -185q-35 0 -91 13l14 124q52 -12 83 -12q67 0 101 40l-323 559h147z" />
    <glyph glyph-name="afii10038" unicode="&#x424;" horiz-adv-x="972" 
d="M390 664h27v57h138v-57h27q141 0 236.5 -77.5t95.5 -210.5q0 -126 -92.5 -213t-239.5 -87h-27v-76h-138v76h-27q-147 0 -239.5 87t-92.5 213q0 133 95.5 210.5t236.5 77.5zM582 546h-27v-352h27q79 0 135 51.5t56 129.5t-55.5 124.5t-135.5 46.5zM390 194h27v352h-27
q-80 0 -135.5 -46.5t-55.5 -124.5t56 -129.5t135 -51.5z" />
    <glyph glyph-name="afii10039" unicode="&#x425;" horiz-adv-x="795" 
d="M193 700l205 -251l202 251h177l-285 -345l298 -355h-184l-213 261l-210 -261h-178l293 355l-289 345h184z" />
    <glyph glyph-name="afii10040" unicode="&#x426;" horiz-adv-x="891" 
d="M90 0v700h138v-577h403v577h138v-577h112v-288h-135v165h-656z" />
    <glyph glyph-name="afii10041" unicode="&#x427;" horiz-adv-x="785" 
d="M323 356q123 0 234 62v282h138v-700h-138v306q-131 -74 -256 -74q-114 0 -180.5 59.5t-66.5 173.5v235h138v-215q0 -129 131 -129z" />
    <glyph glyph-name="afii10042" unicode="&#x428;" horiz-adv-x="1114" 
d="M90 0v700h138v-577h261v577h138v-577h259v577h138v-700h-934z" />
    <glyph glyph-name="afii10043" unicode="&#x429;" horiz-adv-x="1146" 
d="M90 0v700h138v-577h261v577h138v-577h259v577h138v-577h112v-288h-135v165h-911z" />
    <glyph glyph-name="afii10044" unicode="&#x42a;" horiz-adv-x="936" 
d="M382 700v-244h234q115 0 192.5 -61.5t77.5 -159.5q0 -103 -83.5 -169t-209.5 -66h-349v577h-242v123h380zM616 333h-234v-210h211q70 0 112.5 31t42.5 84q0 41 -37 68t-95 27z" />
    <glyph glyph-name="afii10045" unicode="&#x42b;" horiz-adv-x="1045" 
d="M228 700v-244h223q115 0 192.5 -61.5t77.5 -159.5q0 -103 -83.5 -169t-209.5 -66h-338v700h138zM955 700v-700h-138v700h138zM451 333h-223v-210h200q70 0 112.5 31t42.5 84q0 41 -37 68t-95 27z" />
    <glyph glyph-name="afii10046" unicode="&#x42c;" horiz-adv-x="782" 
d="M228 700v-244h234q115 0 192.5 -61.5t77.5 -159.5q0 -103 -83.5 -169t-209.5 -66h-349v700h138zM462 333h-234v-210h211q70 0 112.5 31t42.5 84q0 41 -37 68t-95 27z" />
    <glyph glyph-name="afii10047" unicode="&#x42d;" horiz-adv-x="836" 
d="M249 294v123h380q-20 86 -94.5 133t-176.5 47q-118 0 -259 -60l-39 127q59 23 143.5 39.5t154.5 16.5q177 0 297.5 -100.5t120.5 -270.5q0 -72 -30.5 -139t-84 -118t-132.5 -81.5t-171 -30.5q-74 0 -157 18t-146 47l40 120q136 -59 263 -59q103 0 176.5 49.5t94.5 138.5
h-380z" />
    <glyph glyph-name="afii10048" unicode="&#x42e;" horiz-adv-x="1211" 
d="M747 720q173 0 288.5 -98t115.5 -265q0 -157 -113.5 -267t-290.5 -110q-162 0 -271 92.5t-128 231.5h-120v-304h-138v700h138v-273h123q24 137 133.5 215t262.5 78zM747 597q-110 0 -186.5 -65t-76.5 -174q0 -110 78 -182.5t185 -72.5t185 72.5t78 182.5q0 109 -76.5 174
t-186.5 65z" />
    <glyph glyph-name="afii10049" unicode="&#x42f;" horiz-adv-x="794" 
d="M219 0h-179l209 270q-80 25 -127 80.5t-47 130.5q0 97 79.5 158t193.5 61h356v-700h-138v252h-173zM566 577h-218q-62 0 -98.5 -25.5t-36.5 -70.5q0 -55 41.5 -83t116.5 -28h195v207z" />
    <glyph glyph-name="afii10065" unicode="&#x430;" 
d="M250 285q79 0 168 -31v58q0 40 -25.5 63.5t-71.5 23.5q-66 0 -201 -50l-33 120q158 51 246 51q104 0 160.5 -54t56.5 -156v-180q0 -24 24 -24q20 0 70 26l27 -102q-92 -50 -156 -50q-47 0 -71 28.5t-26 74.5q-38 -46 -93 -74.5t-116 -28.5q-71 0 -117.5 42.5t-46.5 109.5
q0 75 60 114t145 39zM252 93q39 0 85.5 20t80.5 53v19q-82 15 -161 15q-34 0 -55.5 -15.5t-21.5 -41.5q0 -24 19.5 -37t52.5 -13z" />
    <glyph glyph-name="afii10066" unicode="&#x431;" horiz-adv-x="698" 
d="M42 283v53q0 107 45 187t124 127t175 71t211 28l9 -132q-401 -11 -446 -224q124 108 247 108q108 0 178.5 -68.5t70.5 -186.5q0 -107 -89 -187.5t-218 -80.5q-135 0 -221 88.5t-86 216.5zM379 380q-99 0 -204 -87v-27q0 -66 51 -119t123 -53q77 0 125 46t48 106
q0 63 -38 98.5t-105 35.5z" />
    <glyph glyph-name="afii10067" unicode="&#x432;" horiz-adv-x="630" 
d="M75 0v500h325q69 -5 114.5 -43t45.5 -97q0 -27 -17 -51t-42 -38q37 -13 65.5 -44t28.5 -68q0 -77 -61.5 -118t-155.5 -41h-303zM465 168q0 38 -80 38h-179v-91h149q110 0 110 53zM432 347q0 38 -80 38h-146v-91h116q110 0 110 53z" />
    <glyph glyph-name="afii10068" unicode="&#x433;" horiz-adv-x="517" 
d="M75 0v500h417v-115h-286v-385h-131z" />
    <glyph glyph-name="afii10069" unicode="&#x434;" horiz-adv-x="676" 
d="M580 500v-385h81v-275h-127v160h-402v-160h-127v275h9q26 1 46.5 14.5t34.5 31.5t24.5 50t16.5 57t10.5 66t6.5 64t4 64l2 38h421zM278 385q-16 -180 -73 -270h244v270h-171z" />
    <glyph glyph-name="afii10070" unicode="&#x435;" horiz-adv-x="653" 
d="M364 101q105 0 201 50l39 -104q-128 -65 -253 -65q-137 0 -223 76.5t-86 191.5q0 121 89.5 194t219.5 73q114 0 190 -66.5t76 -167.5q0 -33 -9 -68h-430q14 -54 64 -84t122 -30zM343 406q-131 0 -162 -94h303q-10 45 -46.5 69.5t-94.5 24.5z" />
    <glyph glyph-name="afii10072" unicode="&#x436;" horiz-adv-x="922" 
d="M518 500v-500h-130v500h130zM681 36l-156 205l206 259h168l-226 -255l102 -121q12 -12 30 -12q16 0 66 21l31 -107q-84 -39 -128 -39q-52 0 -93 49zM233 464l146 -225l-206 -239h-168l233 244l-99 132q-10 13 -32 13q-19 0 -58 -12l-16 112q63 24 107 24q52 0 93 -49z
" />
    <glyph glyph-name="afii10073" unicode="&#x437;" horiz-adv-x="585" 
d="M185 202v101h82q126 0 126 53q0 20 -24.5 33t-69.5 13q-89 0 -213 -52l-37 113q128 54 250 54q101 0 163 -42.5t62 -108.5q0 -60 -71 -100q97 -39 97 -107q0 -81 -78 -128.5t-183 -47.5q-64 0 -134 17t-120 43l41 112q111 -54 215 -54q127 0 127 54q0 47 -114 47h-119z
" />
    <glyph glyph-name="afii10074" unicode="&#x438;" horiz-adv-x="684" 
d="M191 0h-116v500h131v-325l286 325h117v-500h-131v326z" />
    <glyph glyph-name="afii10075" unicode="&#x439;" horiz-adv-x="684" 
d="M139 741l107 10q9 -97 97 -97t97 97l107 -10q-5 -79 -62.5 -128t-141.5 -49t-141.5 49t-62.5 128zM191 0h-116v500h131v-325l286 325h117v-500h-131v326z" />
    <glyph glyph-name="afii10076" unicode="&#x43a;" horiz-adv-x="635" 
d="M205 500v-500h-130v500h130zM388 36l-176 205l226 259h169l-241 -255l117 -121q12 -12 30 -12q16 0 66 21l31 -107q-90 -39 -129 -39q-52 0 -93 49z" />
    <glyph glyph-name="afii10077" unicode="&#x43b;" horiz-adv-x="636" 
d="M571 500v-500h-131v385h-162q-6 -67 -15 -120.5t-27.5 -107t-44.5 -89t-66.5 -57.5t-92.5 -22q-19 0 -32 1l5 124q24 -2 33 -2q115 0 126 388h407z" />
    <glyph glyph-name="afii10078" unicode="&#x43c;" horiz-adv-x="850" 
d="M760 500l20 -500h-131l-10 347l-166 -309h-101l-161 301l-10 -339h-131l20 500h168l169 -308l169 308h164z" />
    <glyph glyph-name="afii10079" unicode="&#x43d;" horiz-adv-x="676" 
d="M601 500v-500h-131v196h-264v-196h-131v500h131v-189h264v189h131z" />
    <glyph glyph-name="afii10080" unicode="&#x43e;" horiz-adv-x="706" 
d="M353 517q131 0 221 -70.5t90 -191.5q0 -114 -88.5 -193.5t-222.5 -79.5t-222.5 79.5t-88.5 193.5q0 121 90 191.5t221 70.5zM353 402q-80 0 -129 -39.5t-49 -107.5q0 -64 52.5 -111.5t125.5 -47.5t125.5 47.5t52.5 111.5q0 68 -49 107.5t-129 39.5z" />
    <glyph glyph-name="afii10081" unicode="&#x43f;" 
d="M596 500v-500h-131v386h-259v-386h-131v500h521z" />
    <glyph glyph-name="afii10082" unicode="&#x440;" horiz-adv-x="716" 
d="M422 517q106 0 179 -72t73 -190q0 -114 -84.5 -193.5t-209.5 -79.5q-59 0 -173 35v-257h-132v740h132v-111q26 55 84 91.5t131 36.5zM383 394q-71 0 -123.5 -40t-52.5 -106v-120q101 -30 175 -30q64 0 111.5 47t47.5 110q0 65 -44.5 102t-113.5 37z" />
    <glyph glyph-name="afii10083" unicode="&#x441;" horiz-adv-x="615" 
d="M343 401q-74 0 -121 -39.5t-47 -106.5q0 -70 52 -112t132 -42q50 0 91.5 12t100.5 38l39 -104q-123 -65 -248 -65q-136 0 -218 76.5t-82 191.5q0 121 89.5 194t219.5 73q105 0 219 -40l-32 -118q-103 42 -195 42z" />
    <glyph glyph-name="afii10084" unicode="&#x442;" horiz-adv-x="534" 
d="M11 385v115h507v-115h-188v-385h-131v385h-188z" />
    <glyph glyph-name="afii10085" unicode="&#x443;" horiz-adv-x="621" 
d="M621 500l-238 -541l-29 -64t-32 -54.5t-42.5 -49t-54 -28.5t-74.5 -13q-17 0 -44 5l6 127q32 -5 44 -5q36 0 58 28.5t46 83.5l-261 511h145l182 -356l150 356h144z" />
    <glyph glyph-name="afii10086" unicode="&#x444;" horiz-adv-x="942" 
d="M248 -18q-87 0 -146.5 74t-59.5 188q0 112 67 192.5t181 80.5q45 0 115 -24v258h132v-314q64 80 157 80q87 0 146.5 -74t59.5 -188q0 -112 -67 -192.5t-181 -80.5q-47 0 -115 24v-246h-132v302q-66 -80 -157 -80zM656 396q-40 0 -73 -28t-46 -73v-182q47 -17 103 -17
q61 0 94 47t33 112t-31 103t-80 38zM286 103q40 0 73 28t46 73v182q-51 17 -103 17q-61 0 -94 -47t-33 -112t31 -103t80 -38z" />
    <glyph glyph-name="afii10087" unicode="&#x445;" horiz-adv-x="632" 
d="M10 0l222 254l-221 246h163l144 -161l135 161h163l-218 -250l224 -250h-161l-150 166l-139 -166h-162z" />
    <glyph glyph-name="afii10088" unicode="&#x446;" horiz-adv-x="683" 
d="M75 0v500h130v-385h251v385h131v-385h81v-275h-127v160h-466z" />
    <glyph glyph-name="afii10089" unicode="&#x447;" horiz-adv-x="632" 
d="M243 151q-188 0 -188 189v160h132v-153q0 -81 82 -81q80 0 158 37v197h130v-500h-130v202q-97 -51 -184 -51z" />
    <glyph glyph-name="afii10090" unicode="&#x448;" horiz-adv-x="923" 
d="M75 0v500h131v-385h195v385h131v-385h185v385h131v-500h-773z" />
    <glyph glyph-name="afii10091" unicode="&#x449;" horiz-adv-x="944" 
d="M75 0v500h131v-385h195v385h131v-385h185v385h131v-385h81v-275h-127v160h-727z" />
    <glyph glyph-name="afii10092" unicode="&#x44a;" horiz-adv-x="664" 
d="M5 385v115h266v-157h159q99 0 156.5 -43t57.5 -116q0 -86 -68.5 -135t-191.5 -49h-244v385h-135zM512 178q0 24 -22.5 37.5t-59.5 13.5h-159v-114h116q125 0 125 63z" />
    <glyph glyph-name="afii10093" unicode="&#x44b;" horiz-adv-x="831" 
d="M206 500v-157h149q99 0 156.5 -43t57.5 -116q0 -86 -68.5 -135t-191.5 -49h-234v500h131zM756 500v-500h-131v500h131zM437 178q0 24 -22.5 37.5t-59.5 13.5h-149v-114h106q125 0 125 63z" />
    <glyph glyph-name="afii10094" unicode="&#x44c;" horiz-adv-x="604" 
d="M206 500v-157h164q99 0 156.5 -43t57.5 -116q0 -86 -68.5 -135t-191.5 -49h-249v500h131zM452 178q0 24 -22.5 37.5t-59.5 13.5h-164v-114h121q125 0 125 63z" />
    <glyph glyph-name="afii10095" unicode="&#x44d;" horiz-adv-x="637" 
d="M282 517q130 0 221.5 -73t91.5 -194q0 -115 -83.5 -191.5t-220.5 -76.5q-133 0 -256 65l39 104q114 -50 200 -50q66 0 115.5 26.5t67.5 74.5h-279v101h281q-16 47 -61.5 72.5t-107.5 25.5q-99 0 -203 -42l-32 118q114 40 227 40z" />
    <glyph glyph-name="afii10096" unicode="&#x44e;" horiz-adv-x="922" 
d="M576 517q128 0 216 -70.5t88 -191.5q0 -114 -86 -193.5t-218 -79.5q-114 0 -193.5 60t-101.5 154h-75v-196h-131v500h131v-189h74q20 96 102 151t194 55zM576 402q-77 0 -124 -39t-47 -108q0 -64 49.5 -111.5t121.5 -47.5t121.5 47.5t49.5 111.5q0 69 -47 108t-124 39z
" />
    <glyph glyph-name="afii10097" unicode="&#x44f;" horiz-adv-x="621" 
d="M415 0v170h-102l-135 -170h-158l149 179q-62 14 -97 51.5t-35 90.5q0 81 70 130t185 49h254v-500h-131zM172 324q0 -25 23.5 -38.5t58.5 -13.5h161v113h-117q-126 0 -126 -61z" />
    <glyph glyph-name="afii10071" unicode="&#x451;" horiz-adv-x="653" 
d="M364 101q105 0 201 50l39 -104q-128 -65 -253 -65q-137 0 -223 76.5t-86 191.5q0 121 89.5 194t219.5 73q114 0 190 -66.5t76 -167.5q0 -33 -9 -68h-430q14 -54 64 -84t122 -30zM343 406q-131 0 -162 -94h303q-10 45 -46.5 69.5t-94.5 24.5zM166 652q0 29 21 49.5
t52 20.5t51.5 -20.5t20.5 -49.5q0 -30 -20.5 -50.5t-51.5 -20.5t-52 20.5t-21 50.5zM381 652q0 29 20.5 49.5t51.5 20.5t52 -20.5t21 -49.5q0 -30 -21 -50.5t-52 -20.5t-51.5 20.5t-20.5 50.5z" />
    <glyph glyph-name="afii10099" unicode="&#x452;" horiz-adv-x="695" 
d="M-20 558v105l102 6l15 72h110v-68h208v-115h-208v-169q29 53 83 89.5t121 36.5q101 0 157.5 -61.5t56.5 -164.5v-344q0 -90 -55 -143t-152 -53q-15 0 -41 2v132q24 -4 48 -4q68 0 68 63v331q0 55 -31 87.5t-89 32.5q-69 0 -117.5 -39t-48.5 -113v-241h-132v558h-95z" />
    <glyph glyph-name="afii10100" unicode="&#x453;" horiz-adv-x="517" 
d="M75 0v500h417v-115h-286v-385h-131zM422 769l-122 -204l-91 38l71 166h142z" />
    <glyph glyph-name="afii10101" unicode="&#x454;" horiz-adv-x="637" 
d="M355 517q113 0 227 -40l-32 -118q-103 42 -203 42q-62 0 -108 -25.5t-62 -72.5h282v-101h-280q18 -48 68 -74.5t116 -26.5q86 0 200 50l39 -104q-123 -65 -256 -65q-137 0 -220.5 76.5t-83.5 191.5q0 121 91.5 194t221.5 73z" />
    <glyph glyph-name="afii10102" unicode="&#x455;" horiz-adv-x="585" 
d="M294 404q-52 0 -86.5 -10.5t-34.5 -29.5q0 -22 38.5 -34t93 -20t109 -20.5t93 -46.5t38.5 -88q0 -79 -79 -127t-178 -48q-130 0 -253 65l39 104q121 -53 217 -53q48 0 86 15t38 40q0 21 -38.5 32.5t-93 19.5t-109 21t-93 47t-38.5 88q0 69 76.5 114.5t182.5 45.5
q110 0 224 -40l-32 -118q-106 43 -200 43z" />
    <glyph glyph-name="afii10103" unicode="&#x456;" horiz-adv-x="284" 
d="M207 500v-500h-130v500h130zM63 644q0 32 23 55t56 23t56 -23t23 -55q0 -33 -23 -56t-56 -23t-56 23t-23 56z" />
    <glyph glyph-name="afii10104" unicode="&#x457;" horiz-adv-x="284" 
d="M207 500v-500h-130v500h130zM-19 644q0 31 20.5 52.5t50.5 21.5t50.5 -21.5t20.5 -52.5q0 -32 -20.5 -53.5t-50.5 -21.5t-50.5 21.5t-20.5 53.5zM161 644q0 31 20.5 52.5t50.5 21.5t50.5 -21.5t20.5 -52.5q0 -32 -20.5 -53.5t-50.5 -21.5t-50.5 21.5t-20.5 53.5z" />
    <glyph glyph-name="afii10105" unicode="&#x458;" horiz-adv-x="285" 
d="M209 -55q0 -90 -54.5 -143t-151.5 -53q-15 0 -41 2v132q24 -4 48 -4q33 0 51 16.5t18 46.5v558h130v-555zM63 644q0 32 23 55t56 23t56 -23t23 -55q0 -33 -23 -56t-56 -23t-56 23t-23 56z" />
    <glyph glyph-name="afii10106" unicode="&#x459;" horiz-adv-x="959" 
d="M435 0v385h-157q-6 -67 -15 -120.5t-27.5 -107t-44.5 -89t-66.5 -57.5t-92.5 -22q-19 0 -32 1l5 124q24 -2 33 -2q115 0 126 388h402v-157h159q99 0 156.5 -43t57.5 -116q0 -86 -68.5 -135t-191.5 -49h-244zM807 178q0 24 -22.5 37.5t-59.5 13.5h-159v-114h116
q125 0 125 63z" />
    <glyph glyph-name="afii10107" unicode="&#x45a;" horiz-adv-x="989" 
d="M465 0v206h-259v-206h-131v500h131v-179h259v179h131v-177h159q99 0 156.5 -40.5t57.5 -108.5q0 -82 -68 -128t-192 -46h-244zM837 168q0 41 -82 41h-159v-94h116q125 0 125 53z" />
    <glyph glyph-name="afii10108" unicode="&#x45b;" horiz-adv-x="695" 
d="M-20 558v105l102 6l15 72h110v-68h208v-115h-208v-169q29 53 83 89.5t121 36.5q101 0 157.5 -61.5t56.5 -164.5v-289h-132v273q0 55 -31 87.5t-89 32.5q-69 0 -117.5 -39t-48.5 -113v-241h-132v558h-95z" />
    <glyph glyph-name="afii10109" unicode="&#x45c;" horiz-adv-x="635" 
d="M205 500v-500h-130v500h130zM388 36l-176 205l226 259h169l-241 -255l117 -121q12 -12 30 -12q16 0 66 21l31 -107q-90 -39 -129 -39q-52 0 -93 49zM473 769l-122 -204l-91 38l71 166h142z" />
    <glyph glyph-name="afii10110" unicode="&#x45e;" horiz-adv-x="621" 
d="M112 741l107 10q9 -97 97 -97t97 97l107 -10q-5 -79 -62.5 -128t-141.5 -49t-141.5 49t-62.5 128zM621 500l-238 -541l-29 -64t-32 -54.5t-42.5 -49t-54 -28.5t-74.5 -13q-17 0 -44 5l6 127q32 -5 44 -5q36 0 58 28.5t46 83.5l-261 511h145l182 -356l150 356h144z" />
    <glyph glyph-name="afii10193" unicode="&#x45f;" horiz-adv-x="662" 
d="M75 0v500h130v-385h251v385h131v-500h-193v-160h-127v160h-192z" />
    <glyph glyph-name="afii10050" unicode="&#x490;" horiz-adv-x="655" 
d="M650 866v-288h-422v-578h-138v701h425v165h135z" />
    <glyph glyph-name="afii10098" unicode="&#x491;" horiz-adv-x="507" 
d="M482 660v-275h-276v-385h-131v500h280v160h127z" />
    <glyph glyph-name="endash" unicode="&#x2013;" horiz-adv-x="617" 
d="M80 243v100h457v-100h-457z" />
    <glyph glyph-name="emdash" unicode="&#x2014;" horiz-adv-x="900" 
d="M35 226v102h830v-102h-830z" />
    <glyph glyph-name="quoteleft" unicode="&#x2018;" horiz-adv-x="281" 
d="M218 536q0 -32 -23 -54t-56 -22q-41 0 -62 29.5t-21 74.5q0 55 31.5 116t81.5 99l53 -61q-58 -49 -63 -111q26 -5 42.5 -25t16.5 -46z" />
    <glyph glyph-name="quoteright" unicode="&#x2019;" horiz-adv-x="281" 
d="M63 694q0 32 23 54t56 22q41 0 62 -29.5t21 -74.5q0 -55 -31.5 -116t-81.5 -99l-53 61q58 49 63 111q-26 5 -42.5 25t-16.5 46z" />
    <glyph glyph-name="quotesinglbase" unicode="&#x201a;" horiz-adv-x="264" 
d="M49 62q0 34 24 57.5t58 23.5q43 0 63 -31t20 -76q0 -53 -30 -112.5t-84 -102.5l-58 73q57 50 66 91q-26 8 -42.5 29t-16.5 48z" />
    <glyph glyph-name="quotedblleft" unicode="&#x201c;" horiz-adv-x="488" 
d="M218 536q0 -32 -23 -54t-56 -22q-41 0 -62 29.5t-21 74.5q0 55 31.5 116t81.5 99l53 -61q-58 -49 -63 -111q26 -5 42.5 -25t16.5 -46zM425 536q0 -32 -23 -54t-56 -22q-41 0 -62 29.5t-21 74.5q0 55 31.5 116t81.5 99l53 -61q-58 -49 -63 -111q26 -5 42.5 -25t16.5 -46z
" />
    <glyph glyph-name="quotedblright" unicode="&#x201d;" horiz-adv-x="488" 
d="M270 693q0 32 23 54t56 22q41 0 62 -29.5t21 -74.5q0 -55 -31.5 -116t-81.5 -99l-53 61q58 49 63 111q-26 5 -42.5 25t-16.5 46zM63 693q0 32 23 54t56 22q41 0 62 -29.5t21 -74.5q0 -55 -31.5 -116t-81.5 -99l-53 61q58 49 63 111q-26 5 -42.5 25t-16.5 46z" />
    <glyph glyph-name="quotedblbase" unicode="&#x201e;" horiz-adv-x="465" 
d="M253 67q0 32 23 54t56 22q41 0 62 -29.5t21 -74.5q0 -55 -31.5 -116t-81.5 -99l-53 61q58 49 63 111q-26 5 -42.5 25t-16.5 46zM46 67q0 32 23 54t56 22q41 0 62 -29.5t21 -74.5q0 -55 -31.5 -116t-81.5 -99l-53 61q58 49 63 111q-26 5 -42.5 25t-16.5 46z" />
    <glyph glyph-name="dagger" unicode="&#x2020;" horiz-adv-x="430" 
d="M187 553l-26 147h108l-26 -147l147 26v-108l-147 26l27 -497h-110l27 497l-147 -26v108z" />
    <glyph glyph-name="daggerdbl" unicode="&#x2021;" horiz-adv-x="430" 
d="M243 147l26 -147h-108l26 147l-147 -26v108l147 -26l-23 147l23 147l-147 -26v108l147 -26l-26 147h108l-26 -147l147 26v-108l-147 26l23 -147l-23 -147l147 26v-108z" />
    <glyph glyph-name="bullet" unicode="&#x2022;" horiz-adv-x="495" 
d="M137 299q0 42 32 72.5t78 30.5t78.5 -30.5t32.5 -72.5t-32.5 -72.5t-78.5 -30.5t-78 30.5t-32 72.5z" />
    <glyph glyph-name="ellipsis" unicode="&#x2026;" horiz-adv-x="782" 
d="M62 59q0 31 23.5 53t56.5 22t56 -22t23 -53q0 -32 -23 -54t-56 -22t-56.5 22.5t-23.5 53.5zM311 59q0 31 23.5 53t56.5 22t56 -22t23 -53q0 -32 -23 -54t-56 -22t-56.5 22.5t-23.5 53.5zM560 59q0 31 23.5 53t56.5 22t56 -22t23 -53q0 -32 -23 -54t-56 -22t-56.5 22.5
t-23.5 53.5z" />
    <glyph glyph-name="perthousand" unicode="&#x2030;" horiz-adv-x="1282" 
d="M220 0h-129l602 700h129zM1071 358q66 0 113.5 -49.5t47.5 -131.5v-7q0 -81 -47.5 -131.5t-113.5 -50.5t-113.5 50.5t-47.5 131.5v7q0 82 47.5 131.5t113.5 49.5zM692 358q65 0 112.5 -49.5t47.5 -131.5v-7q0 -81 -47.5 -131.5t-112.5 -50.5q-66 0 -113.5 50.5
t-47.5 131.5v7q0 82 47 131.5t114 49.5zM218 711q66 0 113.5 -49.5t47.5 -131.5v-7q0 -81 -47.5 -131.5t-113.5 -50.5t-113.5 50.5t-47.5 131.5v7q0 82 47.5 131.5t113.5 49.5zM692 272q-31 0 -52.5 -26.5t-21.5 -68.5v-7q0 -42 21.5 -69t52.5 -27q30 0 51 27t21 69v7
q0 42 -21 68.5t-51 26.5zM218 625q-31 0 -52 -26.5t-21 -68.5v-7q0 -43 21 -69.5t52 -26.5q30 0 51 27t21 69v7q0 42 -21 68.5t-51 26.5zM1071 272q-31 0 -52 -26.5t-21 -68.5v-7q0 -43 21 -69.5t52 -26.5q30 0 51 27t21 69v7q0 42 -21 68.5t-51 26.5z" />
    <glyph glyph-name="guilsinglleft" unicode="&#x2039;" horiz-adv-x="341" 
d="M60 191v102l161 138l60 -65l-122 -125l122 -123l-60 -66z" />
    <glyph glyph-name="guilsinglright" unicode="&#x203a;" horiz-adv-x="341" 
d="M281 292v-102l-161 -138l-60 65l121 125l-121 123l60 66z" />
    <glyph glyph-name="Euro" unicode="&#x20ac;" horiz-adv-x="810" 
d="M750 674l-40 -130q-115 52 -212 52q-83 0 -144.5 -31.5t-91.5 -90.5h365l-21 -92h-369v-22q0 -25 2 -36h349l-21 -92h-299q32 -58 92.5 -89.5t137.5 -31.5q112 0 227 46l33 -121q-51 -25 -123.5 -41.5t-136.5 -16.5q-147 0 -249 69.5t-140 184.5h-87v92h68q-1 7 -1 32v26
h-67v92h85q37 116 142 182t249 66q126 0 252 -48z" />
    <glyph glyph-name="afii61352" unicode="&#x2116;" horiz-adv-x="1389" 
d="M814 700v-700h-174l-405 531v-531h-141v700h174l404 -531v531h142zM1112 541q89 0 150.5 -50t61.5 -135q0 -82 -60 -137.5t-152 -55.5t-152 55.5t-60 137.5q0 85 61.5 135t150.5 50zM1112 448q-45 0 -73.5 -24.5t-28.5 -67.5q0 -41 29.5 -70.5t72.5 -29.5t73 29.5
t30 70.5q0 43 -29 67.5t-74 24.5zM912 0v99h401v-99h-401z" />
    <glyph glyph-name="trademark" unicode="&#x2122;" horiz-adv-x="1050" 
d="M892 277l-9 266l-126 -229h-65l-126 228q-7 -193 -10 -265h-101l15 423h117l137 -255l138 255h117q3 -71 7 -212t7 -211h-101zM5 610v90h414v-90h-158v-333h-98v333h-158z" />
    <glyph glyph-name="percent" horiz-adv-x="909" 
d="M220 0h-129l602 700h129zM531 177q0 82 47 131.5t114 49.5q65 0 112.5 -49.5t47.5 -131.5v-7q0 -81 -47.5 -131.5t-112.5 -50.5q-66 0 -113.5 50.5t-47.5 131.5v7zM218 711q66 0 113.5 -49.5t47.5 -131.5v-7q0 -81 -47.5 -131.5t-113.5 -50.5t-113.5 50.5t-47.5 131.5v7
q0 82 47.5 131.5t113.5 49.5zM692 272q-31 0 -52.5 -26.5t-21.5 -68.5v-7q0 -42 21.5 -69t52.5 -27q30 0 51 27t21 69v7q0 42 -21 68.5t-51 26.5zM218 625q-31 0 -52 -26.5t-21 -68.5v-7q0 -43 21 -69.5t52 -26.5q30 0 51 27t21 69v7q0 42 -21 68.5t-51 26.5z" />
    <glyph glyph-name="_0011" horiz-adv-x="0" 
 />
    <glyph glyph-name="_0007" horiz-adv-x="0" 
 />
    <glyph glyph-name="_0005" horiz-adv-x="0" 
 />
    </font>
</defs>
</svg>
