<?xml version="1.0" standalone="no"?>
<!DOCTYPE svg PUBLIC "-//W3C//DTD SVG 1.1//EN" "http://www.w3.org/Graphics/SVG/1.1/DTD/svg11.dtd" >
<svg>
<metadata>
Created by FontForge 20090622 at Sun Nov 19 19:58:58 2017
 By deploy user
Copyright (c) 2014 by Tkachev. All rights reserved.
</metadata>
<defs>
<font id="UA-brand" horiz-adv-x="264" >
  <font-face 
    font-family="UA-brand"
    font-weight="400"
    font-stretch="normal"
    units-per-em="1000"
    panose-1="2 0 5 5 0 0 0 2 0 4"
    ascent="800"
    descent="-200"
    x-height="500"
    cap-height="700"
    bbox="-31 -250 1306 959"
    underline-thickness="50"
    underline-position="-50"
    unicode-range="U+0020-U+2122"
  />
<missing-glyph horiz-adv-x="300" 
 />
    <glyph glyph-name=".notdef" horiz-adv-x="300" 
 />
    <glyph glyph-name=".null" horiz-adv-x="0" 
 />
    <glyph glyph-name="nonmarkingreturn" horiz-adv-x="333" 
 />
    <glyph glyph-name="space" unicode=" " horiz-adv-x="300" 
 />
    <glyph glyph-name="exclam" unicode="!" 
d="M67 51q0 27 19 45.5t46 18.5t46 -18.5t19 -45.5t-19 -45.5t-46 -18.5t-46 18.5t-19 45.5zM189 700l-18 -509h-78l-18 509h114z" />
    <glyph glyph-name="quotedbl" unicode="&#x22;" horiz-adv-x="354" 
d="M70 480l-10 220h94l-10 -220h-74zM210 480l-10 220h94l-10 -220h-74z" />
    <glyph glyph-name="numbersign" unicode="#" horiz-adv-x="713" 
d="M379 0l38 187h-190l-38 -187h-91l38 187h-101v77h117l36 172h-112v77h128l39 187h91l-39 -187h190l39 187h91l-39 -187h102v-77h-118l-36 -172h113v-77h-129l-38 -187h-91zM279 436l-36 -172h190l36 172h-190z" />
    <glyph glyph-name="dollar" unicode="$" horiz-adv-x="691" 
d="M316 677v54h89v-56q112 -11 200 -42l-27 -87q-129 50 -236 50q-58 0 -103 -24t-45 -64q0 -19 11 -34t26 -25t43 -20t48.5 -15l55.5 -13q40 -9 68.5 -17.5t62.5 -24t54.5 -34t35 -47.5t14.5 -65q0 -76 -59 -127t-149 -64v-56h-89v53q-138 7 -236 54l24 79q124 -51 243 -51
q73 0 122 28t49 84q0 22 -13 39t-40 29t-51 19.5t-64 16.5q-42 10 -70 18t-65.5 24t-60 34.5t-38.5 48t-16 65.5q0 70 63 116.5t153 53.5z" />
    <glyph glyph-name="percent" unicode="%" horiz-adv-x="913" 
d="M219 711q63 0 108.5 -49t45.5 -132v-7q0 -83 -45.5 -132t-108.5 -49t-108.5 49t-45.5 132v7q0 83 45.5 132t108.5 49zM541 177q0 83 45.5 132t108.5 49t108.5 -49t45.5 -132v-7q0 -83 -45.5 -132t-108.5 -49t-108.5 49t-45.5 132v7zM216 0h-106l588 700h106zM695 288
q-35 0 -59 -30t-24 -81v-7q0 -51 24 -81t59 -30q34 0 58 30t24 81v7q0 51 -24 81t-58 30zM219 641q-35 0 -59 -30t-24 -81v-7q0 -51 24 -81t59 -30q34 0 58 30t24 81v7q0 51 -24 81t-58 30z" />
    <glyph glyph-name="ampersand" unicode="&#x26;" horiz-adv-x="732" 
d="M707 54l-57 -65l-134 110q-122 -122 -249 -122q-89 0 -145.5 49t-56.5 124q0 112 139 204q-98 83 -98 175q0 77 63 134.5t156 57.5q84 0 140.5 -50.5t56.5 -121.5q0 -108 -168 -207l158 -130q69 83 106 175l85 -10q-54 -119 -130 -214zM273 64q88 0 181 86l-193 157
q-97 -73 -97 -146q0 -45 29 -71t80 -26zM428 543q0 42 -28.5 69t-77.5 27q-45 0 -80.5 -29.5t-35.5 -74.5q0 -83 90 -147q132 79 132 155z" />
    <glyph glyph-name="quotesingle" unicode="'" horiz-adv-x="194" 
d="M60 480l-10 220h94l-10 -220h-74z" />
    <glyph glyph-name="parenleft" unicode="(" horiz-adv-x="346" 
d="M173 298q0 -103 32 -211t81 -176q-59 -40 -59 -41q-65 87 -106 198.5t-41 229.5t41 229.5t106 198.5l59 -41q-49 -68 -81 -176t-32 -211z" />
    <glyph glyph-name="parenright" unicode=")" horiz-adv-x="346" 
d="M173 298q0 103 -32 211t-81 176q59 40 59 41q65 -87 106 -198.5t41 -229.5t-41 -229.5t-106 -198.5l-59 41q49 68 81 176t32 211z" />
    <glyph glyph-name="asterisk" unicode="*" horiz-adv-x="444" 
d="M205 552l-27 148h88l-27 -148l133 72l27 -84l-149 -20l110 -104l-72 -52l-66 136l-66 -136l-72 52l110 104l-149 20l27 84z" />
    <glyph glyph-name="plus" unicode="+" horiz-adv-x="677" 
d="M100 284v78h199v199h78v-199h200v-78h-200v-200h-78v200h-199z" />
    <glyph glyph-name="comma" unicode="," 
d="M67 51q0 27 19 45.5t46 18.5q35 0 52 -26.5t17 -66.5q0 -52 -26 -108t-73 -93l-34 42q60 51 64 124q-27 0 -46 18.5t-19 45.5z" />
    <glyph glyph-name="hyphen" unicode="-" horiz-adv-x="504" 
d="M70 237v87h364v-87h-364z" />
    <glyph glyph-name="period" unicode="." horiz-adv-x="254" 
d="M67 51q0 27 19 45.5t46 18.5t46 -18.5t19 -45.5t-19 -45.5t-46 -18.5t-46 18.5t-19 45.5z" />
    <glyph glyph-name="slash" unicode="/" horiz-adv-x="318" 
d="M96 0h-96l222 700h96z" />
    <glyph glyph-name="zero" unicode="0" horiz-adv-x="756" 
d="M378 719q126 0 217 -98t91 -264v-14q0 -166 -91 -264t-217 -98t-217 98t-91 264v14q0 166 91 264t217 98zM378 637q-86 0 -146.5 -75t-60.5 -203v-18q0 -128 60.5 -203t146.5 -75t146.5 75t60.5 203v18q0 128 -60.5 203t-146.5 75z" />
    <glyph glyph-name="one" unicode="1" horiz-adv-x="357" 
d="M20 587v82l204 36h33v-705h-98v611z" />
    <glyph glyph-name="two" unicode="2" horiz-adv-x="590" 
d="M302 637q-99 0 -197 -114l-68 61q51 58 119.5 96.5t137.5 38.5q114 0 175 -57.5t61 -141.5q0 -43 -17 -83.5t-52 -79.5t-64 -64.5t-78 -64.5l-167 -133h376v-95h-477l-21 103l227 186q45 37 68 57.5t51 51t40 59t12 59.5q0 53 -33 87t-93 34z" />
    <glyph glyph-name="three" unicode="3" horiz-adv-x="608" 
d="M205 321v86h80q64 0 98.5 32.5t34.5 91.5q0 48 -34.5 77t-91.5 29q-99 0 -197 -114l-68 61q51 58 119.5 96.5t137.5 38.5q112 0 173 -53t61 -130q0 -56 -32 -100t-85 -68q64 -22 100.5 -69.5t36.5 -114.5q0 -86 -64.5 -144.5t-171.5 -58.5q-138 0 -272 122l63 64
q103 -101 209 -101q61 0 98.5 37t37.5 90q0 59 -43 93.5t-116 34.5h-74z" />
    <glyph glyph-name="four" unicode="4" horiz-adv-x="627" 
d="M35 166v92l347 444h113v-454h102v-82h-102v-166h-98v166h-362zM123 248h274v349z" />
    <glyph glyph-name="five" unicode="5" horiz-adv-x="583" 
d="M30 103l63 64q103 -101 209 -101q65 0 104.5 38t39.5 99q0 64 -47 101t-130 37h-173l22 359h416v-90h-327l-11 -189q48 5 97 5q106 0 178.5 -60.5t72.5 -160.5q0 -92 -66 -158t-176 -66q-145 0 -272 122z" />
    <glyph glyph-name="six" unicode="6" horiz-adv-x="663" 
d="M582 618l-57 -68q-87 87 -168 87q-87 0 -139 -83.5t-52 -210.5q41 36 97.5 58.5t106.5 22.5q97 0 165 -55.5t68 -158.5q0 -91 -72 -160t-178 -69q-124 0 -203.5 102.5t-79.5 254.5v14q0 152 82 259.5t206 107.5q121 0 224 -101zM358 339q-45 0 -97 -23t-89 -58
q15 -88 64 -141.5t117 -53.5q65 0 107.5 41.5t42.5 102.5q0 66 -39 99t-106 33z" />
    <glyph glyph-name="seven" unicode="7" horiz-adv-x="548" 
d="M500 700l28 -103l-351 -597h-112l364 605h-399v95h470z" />
    <glyph glyph-name="eight" unicode="8" horiz-adv-x="636" 
d="M556 536q0 -56 -32.5 -100t-87.5 -68q65 -23 102.5 -70t37.5 -114q0 -84 -74.5 -144t-183.5 -60t-183.5 60t-74.5 144q0 67 37.5 114.5t102.5 69.5q-55 24 -87.5 68t-32.5 100q0 77 63 130.5t175 53.5t175 -53.5t63 -130.5zM476 193q0 57 -44 92.5t-117 35.5
q-70 0 -112.5 -35.5t-42.5 -92.5q0 -52 45 -90t113 -38t113 38t45 90zM456 531q0 48 -37.5 77.5t-100.5 29.5t-100.5 -29.5t-37.5 -77.5q0 -55 37 -89t101 -35q63 0 100.5 34.5t37.5 89.5z" />
    <glyph glyph-name="nine" unicode="9" horiz-adv-x="663" 
d="M81 82l57 68q87 -87 168 -87q87 0 139 83.5t52 209.5q-42 -35 -98.5 -57.5t-105.5 -22.5q-97 0 -165 55.5t-68 158.5q0 91 72 160t178 69q124 0 203.5 -102.5t79.5 -254.5v-14q0 -152 -82 -259.5t-206 -107.5q-121 0 -224 101zM305 361q44 0 96 23t90 58
q-15 87 -64.5 141t-116.5 54q-65 0 -107.5 -41.5t-42.5 -102.5q0 -66 39 -99t106 -33z" />
    <glyph glyph-name="colon" unicode=":" 
d="M67 51q0 27 19 45.5t46 18.5t46 -18.5t19 -45.5t-19 -45.5t-46 -18.5t-46 18.5t-19 45.5zM67 426q0 27 19 45.5t46 18.5t46 -18.5t19 -45.5t-19 -45.5t-46 -18.5t-46 18.5t-19 45.5z" />
    <glyph glyph-name="semicolon" unicode=";" 
d="M67 426q0 27 19 45.5t46 18.5t46 -18.5t19 -45.5t-19 -45.5t-46 -18.5t-46 18.5t-19 45.5zM67 51q0 27 19 45.5t46 18.5q35 0 52 -26.5t17 -66.5q0 -52 -26 -108t-73 -93l-34 42q60 51 64 124q-27 0 -46 18.5t-19 45.5z" />
    <glyph glyph-name="less" unicode="&#x3c;" horiz-adv-x="677" 
d="M100 284v78l477 248v-89l-384 -198l384 -198v-89z" />
    <glyph glyph-name="equal" unicode="=" horiz-adv-x="677" 
d="M100 392v78h477v-78h-477zM100 176v78h477v-78h-477z" />
    <glyph glyph-name="greater" unicode="&#x3e;" horiz-adv-x="677" 
d="M577 362v-78l-477 -248v89l384 198l-384 198v89z" />
    <glyph glyph-name="question" unicode="?" horiz-adv-x="513" 
d="M278 637q-90 0 -200 -114l-68 61q53 57 124.5 96t140.5 39q108 0 168 -54t60 -139q0 -27 -8.5 -53t-28.5 -53l-35.5 -46.5t-48.5 -48l-47 -40l-50 -40.5v-54h-78l-3 85l73 58.5t60.5 56t48.5 64t16 62.5q0 53 -32 86.5t-92 33.5zM191 51q0 27 19 45.5t46 18.5t46 -18.5
t19 -45.5t-19 -45.5t-46 -18.5t-46 18.5t-19 45.5z" />
    <glyph glyph-name="at" unicode="@" horiz-adv-x="1019" 
d="M784 106q41 0 67.5 45.5t26.5 117.5q0 150 -105.5 250.5t-263.5 100.5q-154 0 -262.5 -106t-108.5 -256t108.5 -255.5t262.5 -105.5q122 0 241 53l21 -69q-133 -64 -262 -64q-192 0 -328 129t-136 312t136 312.5t328 129.5q193 0 326.5 -124.5t133.5 -306.5
q0 -106 -63 -175.5t-143 -69.5q-42 0 -72.5 25.5t-34.5 67.5q-26 -41 -79 -66.5t-115 -25.5q-97 0 -164.5 64t-67.5 170q0 103 76.5 174.5t190.5 71.5q57 0 158 -29l94 -27v-303q0 -18 9.5 -29t25.5 -11zM485 107q69 0 119.5 43t50.5 115v135q-91 29 -160 29t-120 -51
t-51 -119q0 -72 45 -112t116 -40z" />
    <glyph glyph-name="A" unicode="A" horiz-adv-x="782" 
d="M658 0l-67 146h-404l-66 -146h-106l322 700h108l322 -700h-109zM389 589l-164 -361h329z" />
    <glyph glyph-name="B" unicode="B" horiz-adv-x="770" 
d="M100 0v700h345q93 0 158 -47.5t65 -127.5q0 -93 -94 -150q63 -18 102 -62t39 -107q0 -91 -71 -148.5t-178 -57.5h-366zM482 315h-284v-233h261q70 0 113.5 33t43.5 94q0 50 -37.5 78t-96.5 28zM437 618h-239v-221h222q65 0 107 32t42 89q0 47 -38 73.5t-94 26.5z" />
    <glyph glyph-name="C" unicode="C" horiz-adv-x="788" 
d="M705 122l23 -83q-128 -58 -265 -58q-175 0 -284 109.5t-109 266.5q0 168 112 265t281 97q61 0 134 -14.5t125 -34.5l-27 -88q-131 55 -232 55q-122 0 -207 -75t-85 -203q0 -126 86 -208.5t206 -82.5q118 0 242 54z" />
    <glyph glyph-name="D" unicode="D" horiz-adv-x="866" 
d="M100 0v700h303q167 0 280 -90.5t113 -252.5q0 -150 -111.5 -253.5t-281.5 -103.5h-303zM198 82h205q117 0 204.5 76.5t87.5 200.5q0 122 -86 190.5t-206 68.5h-205v-536z" />
    <glyph glyph-name="E" unicode="E" horiz-adv-x="736" 
d="M100 0v700h564v-82h-466v-224h418v-82h-418v-230h478v-82h-576z" />
    <glyph glyph-name="F" unicode="F" horiz-adv-x="701" 
d="M100 0v700h556v-82h-458v-238h418v-82h-418v-298h-98z" />
    <glyph glyph-name="G" unicode="G" horiz-adv-x="840" 
d="M745 669l-26 -89q-128 54 -253 54q-123 0 -209 -73t-86 -199q0 -131 85 -211.5t212 -80.5q106 0 209 37v204h98v-252q-65 -34 -150.5 -56t-164.5 -22q-173 0 -281.5 107.5t-108.5 266.5q0 166 116.5 265t284.5 99q62 0 140.5 -15t133.5 -35z" />
    <glyph glyph-name="H" unicode="H" horiz-adv-x="858" 
d="M758 700v-700h-98v325h-462v-325h-98v700h98v-293h462v293h98z" />
    <glyph glyph-name="I" unicode="I" horiz-adv-x="308" 
d="M203 700v-700h-98v700h98z" />
    <glyph glyph-name="J" unicode="J" horiz-adv-x="315" 
d="M39 -65l-24 82q97 34 97 130v553h98v-553q0 -80 -46.5 -133t-124.5 -79z" />
    <glyph glyph-name="K" unicode="K" horiz-adv-x="752" 
d="M724 0h-135l-376 339l386 361h122l-384 -353zM198 700v-700h-98v700h98z" />
    <glyph glyph-name="L" unicode="L" horiz-adv-x="681" 
d="M100 0v700h98v-616h463v-84h-561z" />
    <glyph glyph-name="M" unicode="M" horiz-adv-x="1045" 
d="M857 0l-23 563l-271 -498h-84l-268 492l-23 -557h-98l30 700h117l285 -530l286 530h117l30 -700h-98z" />
    <glyph glyph-name="N" unicode="N" horiz-adv-x="888" 
d="M788 700v-700h-128l-462 589v-589h-98v700h128l462 -586v586h98z" />
    <glyph glyph-name="O" unicode="O" horiz-adv-x="932" 
d="M466 -19q-175 0 -285.5 109.5t-110.5 266.5q0 168 113.5 265t282.5 97t282.5 -97t113.5 -265q0 -157 -110.5 -266.5t-285.5 -109.5zM466 637q-123 0 -209 -75t-86 -203q0 -130 86.5 -213t208.5 -83t208.5 83t86.5 213q0 128 -86 203t-209 75z" />
    <glyph glyph-name="P" unicode="P" horiz-adv-x="745" 
d="M461 700q103 0 173.5 -58.5t70.5 -153.5q0 -100 -76 -163.5t-193 -63.5h-238v-261h-98v700h361zM461 618h-263v-275h238q78 0 124.5 39.5t46.5 108.5q0 57 -40.5 92t-105.5 35z" />
    <glyph glyph-name="Q" unicode="Q" horiz-adv-x="932" 
d="M466 -19q-175 0 -285.5 109.5t-110.5 266.5q0 168 113.5 265t282.5 97t282.5 -97t113.5 -265q0 -113 -59.5 -205t-163.5 -137l73 -62q37 -33 77 -33q41 0 94 29l38 -72q-77 -45 -141 -45q-77 0 -137 53l-115 100q-40 -4 -62 -4zM466 637q-123 0 -209 -75t-86 -203
q0 -130 86.5 -213t208.5 -83t208.5 83t86.5 213q0 128 -86 203t-209 75z" />
    <glyph glyph-name="R" unicode="R" horiz-adv-x="808" 
d="M797 27q-58 -40 -121 -40q-74 0 -139 80l-164 202h-175v-269h-98v700h351q101 0 171.5 -57.5t70.5 -150.5q0 -84 -57.5 -143t-148.5 -75l125 -150q38 -45 76 -45q36 0 73 24zM451 618h-253v-267h228q76 0 122.5 38.5t46.5 105.5q0 56 -40 89.5t-104 33.5z" />
    <glyph glyph-name="S" unicode="S" horiz-adv-x="691" 
d="M328 637q-65 0 -116 -29t-51 -77q0 -19 7 -34.5t24.5 -28t32 -20.5t45.5 -17t48.5 -13l55.5 -13q45 -10 76.5 -19t69.5 -26t61 -37.5t39 -53t16 -72.5q0 -96 -83.5 -156t-200.5 -60q-74 0 -156 16.5t-141 43.5l24 79q134 -56 266 -56q82 0 138 34t56 99q0 22 -11.5 40
t-26.5 29t-44.5 22t-51.5 17t-61 15q-40 9 -58 13.5t-54 15.5t-54 20t-43.5 25.5t-38 34.5t-22 44t-9.5 57q0 82 79 135.5t184 53.5q148 0 286 -49l-27 -88q-141 55 -259 55z" />
    <glyph glyph-name="T" unicode="T" horiz-adv-x="694" 
d="M15 618v82h664v-82h-283v-618h-98v618h-283z" />
    <glyph glyph-name="U" unicode="U" horiz-adv-x="854" 
d="M427 58q106 0 175 64t69 173v405h98v-403q0 -151 -98.5 -237t-243.5 -86t-243.5 86t-98.5 237v403h98v-405q0 -109 69 -173t175 -64z" />
    <glyph glyph-name="V" unicode="V" horiz-adv-x="782" 
d="M119 700l273 -591l274 591h106l-327 -700h-108l-327 700h109z" />
    <glyph glyph-name="W" unicode="W" horiz-adv-x="1237" 
d="M852 0l-234 547l-234 -547h-87l-287 700h109l223 -559l241 559h75l240 -559l223 559h106l-287 -700h-88z" />
    <glyph glyph-name="X" unicode="X" horiz-adv-x="755" 
d="M146 700l232 -283l228 283h125l-285 -344l299 -356h-132l-241 294l-237 -294h-125l293 355l-289 345h132z" />
    <glyph glyph-name="Y" unicode="Y" horiz-adv-x="719" 
d="M124 701l241 -323l237 323h117l-308 -418v-283h-98v286l-313 415h124z" />
    <glyph glyph-name="Z" unicode="Z" horiz-adv-x="699" 
d="M50 613v87h619v-102l-527 -511h527v-87h-639v102l524 511h-504z" />
    <glyph glyph-name="bracketleft" unicode="[" horiz-adv-x="361" 
d="M100 -133v833h201v-75h-112v-683h112v-75h-201z" />
    <glyph glyph-name="backslash" unicode="\" horiz-adv-x="318" 
d="M318 0h-96l-222 700h96z" />
    <glyph glyph-name="bracketright" unicode="]" horiz-adv-x="361" 
d="M261 700v-833h-201v75h112v683h-112v75h201z" />
    <glyph glyph-name="asciicircum" unicode="^" horiz-adv-x="383" 
d="M289 410l-98 197l-97 -197h-94l146 290h91l146 -290h-94z" />
    <glyph glyph-name="underscore" unicode="_" horiz-adv-x="597" 
d="M70 -136v78h457v-78h-457z" />
    <glyph glyph-name="grave" unicode="`" horiz-adv-x="282" 
d="M122 575l-110 194h106l71 -166z" />
    <glyph glyph-name="a" unicode="a" horiz-adv-x="653" 
d="M432 79v12q-41 -47 -97.5 -77t-119.5 -30q-66 0 -110.5 38t-44.5 100q0 73 53.5 114.5t134.5 41.5q79 0 184 -35v70q0 56 -28.5 88.5t-87.5 32.5q-67 0 -205 -46l-23 84q147 44 241 44q97 0 147.5 -52.5t50.5 -153.5v-211q0 -28 22 -28q12 0 34 10l53 25l17 -74l-72 -34
q-28 -14 -68 -14q-41 0 -61 26.5t-20 68.5zM239 67q56 0 111.5 31t81.5 78v4q-88 22 -175 22q-46 0 -73.5 -18.5t-27.5 -53.5q0 -31 24 -47t59 -16z" />
    <glyph glyph-name="b" unicode="b" horiz-adv-x="684" 
d="M385 516q102 0 174.5 -71.5t72.5 -188.5q0 -114 -85 -194t-209 -80q-155 0 -258 67v701h95v-352q25 51 81.5 84.5t128.5 33.5zM358 433q-75 0 -129 -51t-54 -136v-156q75 -32 165 -32q83 0 139.5 58.5t56.5 139.5q0 84 -48.5 130.5t-129.5 46.5z" />
    <glyph glyph-name="c" unicode="c" horiz-adv-x="603" 
d="M338 -16q-127 0 -206.5 76.5t-79.5 195.5q0 121 81.5 190.5t204.5 69.5q90 0 220 -45l-22 -81q-127 50 -201 50q-84 0 -135.5 -48.5t-51.5 -135.5q0 -79 56.5 -133.5t138.5 -54.5q91 0 198 46l22 -77q-116 -53 -225 -53z" />
    <glyph glyph-name="d" unicode="d" horiz-adv-x="692" 
d="M304 -16q-106 0 -179 71t-73 189q0 114 85.5 194t212.5 80q67 0 167 -31v263h95v-750h-95v102q-25 -51 -82 -84.5t-131 -33.5zM330 67q79 0 133 52t54 141v154q-91 28 -169 28q-81 0 -140.5 -59t-59.5 -139q0 -84 49.5 -130.5t132.5 -46.5z" />
    <glyph glyph-name="e" unicode="e" horiz-adv-x="638" 
d="M341 -16q-127 0 -208 77t-81 195q0 121 82.5 190.5t205.5 69.5q108 0 177 -67.5t69 -172.5q0 -15 -2 -39h-436q7 -77 62 -123.5t134 -46.5q99 0 208 48l29 -73q-131 -58 -240 -58zM154 312h336q-8 61 -50.5 94.5t-106.5 33.5q-70 0 -117 -32.5t-62 -95.5z" />
    <glyph glyph-name="f" unicode="f" horiz-adv-x="449" 
d="M20 424v76h90v73q0 85 50.5 135t138.5 50q70 0 145 -25l-22 -82q-60 26 -126 26q-45 0 -71 -28t-26 -80v-69h227v-76h-222v-424h-93v424h-91z" />
    <glyph glyph-name="g" unicode="g" horiz-adv-x="631" 
d="M252 56h71q130 0 207.5 -40.5t77.5 -112.5q0 -74 -77 -113.5t-208 -39.5q-136 0 -211.5 39.5t-75.5 112.5q0 80 98 120q-42 30 -42 75q0 47 52 80q-90 55 -90 145q0 87 72 136.5t176 49.5q96 0 164 -41q61 60 149 74l16 -84q-68 -7 -112 -38q31 -44 31 -97
q0 -79 -70.5 -132t-177.5 -53q-15 0 -51 2.5t-42 2.5q-33 -11 -33 -41q0 -45 76 -45zM302 434q-67 0 -108.5 -29.5t-41.5 -82.5q0 -49 42.5 -80t107.5 -31q66 0 108 32t42 79q0 53 -41.5 82.5t-108.5 29.5zM321 -25h-125q-30 -8 -49 -29t-19 -45q0 -73 193 -73q95 0 144 17
t49 57q0 73 -193 73z" />
    <glyph glyph-name="h" unicode="h" horiz-adv-x="680" 
d="M397 516q98 0 153 -60t55 -163v-293h-95v285q0 66 -35.5 106.5t-101.5 40.5q-78 0 -138.5 -55.5t-60.5 -144.5v-232h-94v741h94v-349q32 52 93 88t130 36z" />
    <glyph glyph-name="i" unicode="i" 
d="M179 500v-500h-94v500h94zM70 639q0 25 18 43t44 18t44 -18t18 -43t-18 -43t-44 -18t-44 18t-18 43z" />
    <glyph glyph-name="j" unicode="j" horiz-adv-x="285" 
d="M107 0v500h93v-559q0 -87 -53 -139t-148 -52l-17 1v94q16 -2 24 -2q48 0 74.5 24t26.5 71v62zM91 639q0 25 18 43t44 18t44 -18t18 -43t-18 -43t-44 -18t-44 18t-18 43z" />
    <glyph glyph-name="k" unicode="k" horiz-adv-x="620" 
d="M174 750v-750h-94v750h94zM585 21q-67 -30 -104 -30q-47 0 -92 45l-202 203l269 261h114l-266 -254l155 -149q22 -20 43 -20t61 20z" />
    <glyph glyph-name="l" unicode="l" horiz-adv-x="254" 
d="M174 0h-94v750h94v-750z" />
    <glyph glyph-name="m" unicode="m" horiz-adv-x="1031" 
d="M768 513q91 0 139.5 -58t48.5 -158v-297h-95v289q0 64 -29 102t-88 38q-71 0 -125 -56t-54 -146v-227h-95v289q0 64 -29 102t-88 38q-70 0 -124.5 -53.5t-54.5 -139.5v-236h-94v500h94v-104q33 51 86 84t117 33q69 0 113.5 -34t62.5 -96q35 57 94 93.5t121 36.5z" />
    <glyph glyph-name="n" unicode="n" horiz-adv-x="680" 
d="M397 516q98 0 153 -60t55 -163v-293h-95v285q0 66 -35.5 106.5t-101.5 40.5q-78 0 -138.5 -55.5t-60.5 -144.5v-232h-94v500h94v-108q32 52 93 88t130 36z" />
    <glyph glyph-name="o" unicode="o" horiz-adv-x="688" 
d="M344 516q123 0 207.5 -69.5t84.5 -190.5q0 -115 -83 -194t-209 -79t-209 79t-83 194q0 121 84.5 190.5t207.5 69.5zM344 440q-88 0 -142 -48.5t-54 -135.5q0 -80 57.5 -138.5t138.5 -58.5t138.5 58.5t57.5 138.5q0 87 -54 135.5t-142 48.5z" />
    <glyph glyph-name="p" unicode="p" horiz-adv-x="692" 
d="M388 516q106 0 179 -71t73 -189q0 -114 -85.5 -194t-212.5 -80q-67 0 -167 31v-253h-95v740h95v-102q25 51 82 84.5t131 33.5zM362 433q-77 0 -132 -50t-55 -134v-163q90 -28 169 -28q81 0 140.5 59t59.5 139q0 84 -49.5 130.5t-132.5 46.5z" />
    <glyph glyph-name="q" unicode="q" horiz-adv-x="684" 
d="M299 -16q-102 0 -174.5 71.5t-72.5 188.5q0 114 85 194t209 80q155 0 258 -67v-691h-95v342q-25 -51 -81.5 -84.5t-128.5 -33.5zM326 67q75 0 129 51t54 136v156q-75 32 -165 32q-83 0 -139.5 -58.5t-56.5 -139.5q0 -84 48.5 -130.5t129.5 -46.5z" />
    <glyph glyph-name="r" unicode="r" horiz-adv-x="469" 
d="M384 513q39 0 80 -15l-19 -83q-31 11 -62 11q-81 0 -145 -52t-64 -141v-233h-94v500h94v-108q32 52 87.5 86.5t122.5 34.5z" />
    <glyph glyph-name="s" unicode="s" horiz-adv-x="574" 
d="M148 380q0 -21 12.5 -36t40 -24.5t50 -13.5t64.5 -10q209 -30 209 -150q0 -75 -70.5 -118.5t-161.5 -43.5q-58 0 -127 16t-115 37l22 77q116 -50 218 -50q58 0 98.5 17.5t40.5 57.5q0 34 -36 50t-103 26q-39 6 -66 11.5t-61.5 17.5t-56 28t-36.5 41.5t-15 58.5
q0 64 63.5 104t149.5 40q120 0 235 -45l-22 -80q-115 50 -216 50q-45 0 -81 -15.5t-36 -45.5z" />
    <glyph glyph-name="t" unicode="t" horiz-adv-x="478" 
d="M18 424v66l108 7l18 153h74v-150h206v-76h-206v-229q0 -127 108 -127q48 0 102 30l20 -77q-72 -37 -146 -37q-87 0 -132.5 54t-45.5 149v237h-106z" />
    <glyph glyph-name="u" unicode="u" horiz-adv-x="675" 
d="M281 -16q-97 0 -151.5 60.5t-54.5 162.5v293h95v-285q0 -67 35 -107t100 -40q73 0 130.5 50.5t65.5 134.5v247h94v-500h-94v106q-33 -51 -93 -86.5t-127 -35.5z" />
    <glyph glyph-name="v" unicode="v" horiz-adv-x="588" 
d="M109 500l185 -398l185 398h104l-236 -500h-106l-236 500h104z" />
    <glyph glyph-name="w" unicode="w" horiz-adv-x="944" 
d="M640 0l-169 387l-167 -387h-94l-200 500h102l145 -392l167 392h95l167 -391l146 391h102l-200 -500h-94z" />
    <glyph glyph-name="x" unicode="x" horiz-adv-x="609" 
d="M15 0l228 251l-228 249h124l168 -185l162 185h121l-226 -248l230 -252h-121l-172 188l-165 -188h-121z" />
    <glyph glyph-name="y" unicode="y" horiz-adv-x="591" 
d="M586 500l-238 -535q-17 -38 -25.5 -55t-25.5 -48t-32.5 -46.5t-38 -33t-50.5 -25t-61 -7.5q-10 0 -22 2l5 90q16 -2 24 -2q27 0 48 10.5t37.5 32.5t27 42t24.5 52l6 14l-260 509h104l202 -401l172 401h103z" />
    <glyph glyph-name="z" unicode="z" horiz-adv-x="569" 
d="M65 418v82h449v-70l-348 -348h358v-82h-479v70l348 348h-328z" />
    <glyph glyph-name="braceleft" unicode="{" horiz-adv-x="405" 
d="M144 511q0 189 168 189h33v-75h-47q-29 0 -47 -21.5t-18 -52.5v-123q0 -105 -72 -145q72 -39 72 -144v-123q0 -31 18 -52.5t47 -21.5h47v-75h-33q-168 0 -168 189v120q0 33 -18.5 51t-49.5 18h-36v77h36q31 0 49.5 18t18.5 51v120z" />
    <glyph glyph-name="bar" unicode="|" horiz-adv-x="289" 
d="M100 -133v833h89v-833h-89z" />
    <glyph glyph-name="braceright" unicode="}" horiz-adv-x="405" 
d="M261 511v-120q0 -33 18.5 -51t49.5 -18h36v-77h-36q-31 0 -49.5 -18t-18.5 -51v-120q0 -189 -168 -189h-33v75h47q29 0 47 21.5t18 52.5v123q0 105 72 144q-72 40 -72 145v123q0 31 -18 52.5t-47 21.5h-47v75h33q168 0 168 -189z" />
    <glyph glyph-name="asciitilde" unicode="~" horiz-adv-x="662" 
d="M124 254l-49 64q68 66 134 66q34 0 116.5 -28.5t120.5 -28.5q52 0 92 47l49 -64q-68 -66 -134 -66q-34 0 -116.5 28.5t-120.5 28.5q-52 0 -92 -47z" />
    <glyph glyph-name="exclamdown" unicode="&#xa1;" 
d="M197 426q0 -27 -19 -45.5t-46 -18.5t-46 18.5t-19 45.5t19 45.5t46 18.5t46 -18.5t19 -45.5zM75 -223l18 509h78l18 -509h-114z" />
    <glyph glyph-name="cent" unicode="&#xa2;" horiz-adv-x="603" 
d="M293 563v69h89v-68q69 -7 176 -43l-22 -81q-127 50 -201 50q-84 0 -135.5 -48.5t-51.5 -135.5q0 -79 56.5 -133.5t138.5 -54.5q91 0 198 46l22 -77q-88 -41 -181 -51v-70h-89v71q-109 13 -175 87.5t-66 181.5q0 109 67.5 176.5t173.5 80.5z" />
    <glyph glyph-name="sterling" unicode="&#xa3;" horiz-adv-x="629" 
d="M77 313v76h90v142q0 85 50.5 136.5t138.5 51.5q70 0 145 -25l-22 -82q-60 26 -126 26q-92 0 -92 -108v-141h222v-76h-222v-190q17 -5 59.5 -20t73 -22.5t56.5 -7.5q57 0 102 52l54 -70q-75 -73 -148 -73q-37 0 -128 31.5t-133 31.5q-58 0 -101 -52l-54 70q64 62 126 71
v179h-91z" />
    <glyph glyph-name="currency" unicode="&#xa4;" horiz-adv-x="599" 
d="M111 465l-56 56l63 63l59 -60q58 34 123 34t122 -33l59 59l63 -63l-55 -55q43 -57 43 -127t-43 -126l55 -55l-63 -63l-59 58q-53 -32 -122 -32q-68 0 -123 33l-59 -59l-63 63l56 56q-42 57 -42 125q0 70 42 126zM155 339q0 -62 41.5 -103.5t103.5 -41.5t103.5 41.5
t41.5 103.5t-42 104t-103 42t-103 -42t-42 -104z" />
    <glyph glyph-name="yen" unicode="&#xa5;" horiz-adv-x="719" 
d="M121 326v78h103l-224 297h124l241 -323l237 323h117l-219 -297h98v-78h-156l-31 -43v-35h187v-78h-187v-170h-98v170h-192v78h192v38l-30 40h-162z" />
    <glyph glyph-name="brokenbar" unicode="&#xa6;" horiz-adv-x="289" 
d="M100 362v338h89v-338h-89zM100 -133v338h89v-338h-89z" />
    <glyph glyph-name="section" unicode="&#xa7;" horiz-adv-x="753" 
d="M121 524q0 86 74.5 138t176.5 52q146 0 262 -54l-23 -75q-120 51 -234 51q-68 0 -117 -28t-49 -79q0 -28 25.5 -49t57.5 -31.5t84 -22.5t89 -24.5t78 -33.5t63 -52.5t22 -72.5q0 -78 -87 -135q95 -52 95 -134q0 -87 -75 -140.5t-181 -53.5q-67 0 -140.5 14.5t-126.5 39.5
l23 75q120 -51 239 -51q72 0 121.5 28t49.5 83q0 40 -45.5 64t-126.5 43q-52 12 -89 24.5t-78 33.5t-63 52.5t-22 72.5q0 39 24.5 74.5t61.5 59.5q-89 50 -89 131zM542 235q0 43 -51.5 68.5t-138.5 42.5q-25 4 -65 16q-75 -43 -75 -95q0 -23 15 -41t45.5 -31t58.5 -21.5
t71 -17.5q27 -6 64 -17q76 43 76 96z" />
    <glyph glyph-name="dieresis" unicode="&#xa8;" horiz-adv-x="326" 
d="M0 643q0 23 17 40t41 17t41.5 -17t17.5 -40t-17.5 -40t-41.5 -17t-41 17t-17 40zM209 643q0 23 17 40t41 17t41.5 -17t17.5 -40t-17.5 -40t-41.5 -17t-41 17t-17 40z" />
    <glyph glyph-name="copyright" unicode="&#xa9;" horiz-adv-x="909" 
d="M70 348q0 157 112 266.5t272 109.5t272.5 -109.5t112.5 -266.5q0 -156 -112.5 -265.5t-272.5 -109.5t-272 109t-112 266zM138 348q0 -131 92.5 -223.5t223.5 -92.5t224 92.5t93 223.5t-93 224t-224 93t-223.5 -93t-92.5 -224zM626 541l-21 -71q-81 36 -146 36
q-67 0 -115 -40.5t-48 -110.5q0 -68 48.5 -113t114.5 -45q69 0 152 35l17 -67q-81 -37 -169 -37q-106 0 -173 66t-67 160q0 101 69 159.5t171 58.5q89 0 167 -31z" />
    <glyph glyph-name="ordfeminine" unicode="&#xaa;" horiz-adv-x="530" 
d="M329 352v10q-74 -88 -178 -88q-54 0 -90.5 31t-36.5 82q0 60 44 94t111 34q70 0 150 -29v58q0 99 -95 99q-54 0 -168 -38l-19 69q120 36 198 36q162 0 162 -169v-173q0 -23 18 -23q12 0 28 8l44 21l14 -61l-59 -28q-26 -11 -56 -11q-34 0 -50.5 22t-16.5 56zM171 342
q46 0 91.5 25.5t66.5 63.5v4q-78 18 -143 18q-38 0 -60.5 -15t-22.5 -44q0 -25 19.5 -38.5t48.5 -13.5z" />
    <glyph glyph-name="guillemotleft" unicode="&#xab;" horiz-adv-x="557" 
d="M70 199v86l163 145l49 -54l-129 -134l129 -134l-49 -54zM280 199v86l163 145l49 -54l-129 -134l129 -134l-49 -54z" />
    <glyph glyph-name="logicalnot" unicode="&#xac;" horiz-adv-x="677" 
d="M100 392v78h477v-261h-80v183h-397z" />
    <glyph glyph-name="registered" unicode="&#xae;" horiz-adv-x="909" 
d="M663 145h-97l-116 146h-99v-146h-76v414h202q62 0 106 -36t44 -94q0 -45 -25.5 -78t-68.5 -48zM477 492h-126v-134h111q40 0 64.5 19.5t24.5 53.5q0 27 -20.5 44t-53.5 17zM70 348q0 157 112 266.5t272 109.5t272.5 -109.5t112.5 -266.5q0 -156 -112.5 -265.5
t-272.5 -109.5t-272 109t-112 266zM138 348q0 -131 92.5 -223.5t223.5 -92.5t224 92.5t93 223.5t-93 224t-224 93t-223.5 -93t-92.5 -224z" />
    <glyph glyph-name="degree" unicode="&#xb0;" horiz-adv-x="456" 
d="M60 554q0 67 49 114t119 47t119 -47t49 -114t-49 -114t-119 -47t-119 47t-49 114zM142 554q0 -36 25 -61t61 -25t61 25t25 61t-25 61t-61 25t-61 -25t-25 -61z" />
    <glyph glyph-name="plusminus" unicode="&#xb1;" horiz-adv-x="677" 
d="M100 284v78h199v199h78v-199h200v-78h-200v-190h-78v190h-199zM100 0v78h477v-78h-477z" />
    <glyph glyph-name="twosuperior" unicode="&#xb2;" horiz-adv-x="366" 
d="M194 646q-52 0 -112 -70l-54 48q31 38 75 63t86 25q70 0 108.5 -36t38.5 -88q0 -49 -33.5 -89.5t-92.5 -86.5l-79 -60h204v-74h-293l-15 73l135 111q34 28 50 42.5t31 37t15 43.5q0 27 -17 44t-47 17z" />
    <glyph glyph-name="threesuperior" unicode="&#xb3;" horiz-adv-x="408" 
d="M157 462v68h52q32 0 49.5 16.5t17.5 46.5q0 23 -17 37t-46 14q-53 0 -113 -70l-53 49q31 37 74.5 62t86.5 25q70 0 107.5 -33t37.5 -81q0 -62 -58 -96q70 -37 70 -108q0 -53 -40 -89.5t-106 -36.5q-84 0 -171 80l50 50q64 -62 121 -62q31 0 50 18.5t19 45.5
q0 29 -22.5 46.5t-60.5 17.5h-48z" />
    <glyph glyph-name="acute" unicode="&#xb4;" horiz-adv-x="196" 
d="M229 769l-110 -194l-67 28l71 166h106z" />
    <glyph glyph-name="mu" unicode="&#xb5;" horiz-adv-x="680" 
d="M80 500h95v-285q0 -67 35 -107t100 -40q73 0 130.5 50.5t65.5 134.5v247h94v-500h-94v106q-33 -52 -87.5 -87t-121.5 -35q-78 0 -131 56l10 -280h-96v740z" />
    <glyph glyph-name="paragraph" unicode="&#xb6;" horiz-adv-x="702" 
d="M455 -133v746h-116v-746h-89v398q-89 0 -152 64t-63 154q0 89 63 153t152 64h382v-87h-88v-746h-89z" />
    <glyph glyph-name="periodcentered" unicode="&#xb7;" horiz-adv-x="344" 
d="M110 301q0 25 18 43t44 18t44 -18t18 -43t-18 -43t-44 -18t-44 18t-18 43z" />
    <glyph glyph-name="cedilla" unicode="&#xb8;" horiz-adv-x="312" 
d="M210 30l-33 -90q45 0 77.5 -25t32.5 -67q0 -38 -30.5 -65.5t-76.5 -27.5q-60 0 -122 44l35 47q45 -34 87 -34q20 0 32.5 10t12.5 27q0 18 -13.5 29t-37.5 11h-74l48 141h62z" />
    <glyph glyph-name="onesuperior" unicode="&#xb9;" horiz-adv-x="252" 
d="M5 610v67l126 23h31v-426h-76v351z" />
    <glyph glyph-name="ordmasculine" unicode="&#xba;" horiz-adv-x="548" 
d="M274 710q101 0 170 -57t69 -156q0 -94 -68 -159t-171 -65t-171 65t-68 159q0 99 69 156t170 57zM274 648q-72 0 -116.5 -40t-44.5 -111q0 -66 47.5 -114t113.5 -48t113.5 48t47.5 114q0 71 -44.5 111t-116.5 40z" />
    <glyph glyph-name="guillemotright" unicode="&#xbb;" horiz-adv-x="557" 
d="M487 285v-86l-163 -145l-49 54l129 134l-129 134l49 54zM277 285v-86l-163 -145l-49 54l129 134l-129 134l49 54z" />
    <glyph glyph-name="questiondown" unicode="&#xbf;" horiz-adv-x="513" 
d="M235 -160q90 0 200 114l68 -61q-53 -57 -124.5 -96t-140.5 -39q-108 0 -168 54t-60 139q0 27 8.5 53t28.5 53l35.5 46.5t48.5 48l47 40l50 40.5v54h78l3 -85l-73 -58.5t-60.5 -56t-48.5 -64t-16 -62.5q0 -53 32 -86.5t92 -33.5zM322 426q0 -27 -19 -45.5t-46 -18.5
t-46 18.5t-19 45.5t19 45.5t46 18.5t46 -18.5t19 -45.5z" />
    <glyph glyph-name="Agrave" unicode="&#xc0;" horiz-adv-x="782" 
d="M658 0l-67 146h-404l-66 -146h-106l322 700h108l322 -700h-109zM389 589l-164 -361h329zM362 765l-110 194h106l71 -166z" />
    <glyph glyph-name="Aacute" unicode="&#xc1;" horiz-adv-x="782" 
d="M658 0l-67 146h-404l-66 -146h-106l322 700h108l322 -700h-109zM389 589l-164 -361h329zM539 959l-110 -194l-67 28l71 166h106z" />
    <glyph glyph-name="Acircumflex" unicode="&#xc2;" horiz-adv-x="782" 
d="M658 0l-67 146h-404l-66 -146h-106l322 700h108l322 -700h-109zM389 589l-164 -361h329zM455 959l96 -158l-62 -36l-98 136l-98 -136l-62 36l96 158h128z" />
    <glyph glyph-name="Atilde" unicode="&#xc3;" horiz-adv-x="782" 
d="M658 0l-67 146h-404l-66 -146h-106l322 700h108l322 -700h-109zM389 589l-164 -361h329zM248 787l-48 58q62 70 112 70q22 0 76 -20.5t77 -20.5q33 0 68 41l48 -58q-62 -70 -112 -70q-22 0 -76 20.5t-77 20.5q-33 0 -68 -41z" />
    <glyph glyph-name="Adieresis" unicode="&#xc4;" horiz-adv-x="782" 
d="M658 0l-67 146h-404l-66 -146h-106l322 700h108l322 -700h-109zM389 589l-164 -361h329zM228 833q0 23 17 40t41 17t41.5 -17t17.5 -40t-17.5 -40t-41.5 -17t-41 17t-17 40zM437 833q0 23 17 40t41 17t41.5 -17t17.5 -40t-17.5 -40t-41.5 -17t-41 17t-17 40z" />
    <glyph glyph-name="Aring" unicode="&#xc5;" horiz-adv-x="782" 
d="M658 0l-67 146h-404l-66 -146h-106l322 700h18q-47 11 -77 46t-30 79q0 52 42 90.5t101 38.5t101 -38.5t42 -90.5q0 -44 -30.5 -79t-77.5 -46h19l322 -700h-109zM389 589l-164 -361h329zM327 825q0 -25 18.5 -42t45.5 -17t45.5 17t18.5 42q0 24 -18.5 41t-45.5 17
t-45.5 -17t-18.5 -41z" />
    <glyph glyph-name="AE" unicode="&#xc6;" horiz-adv-x="1178" 
d="M552 0v146h-344l-102 -146h-106l494 700h612v-82h-456v-224h408v-82h-408v-230h468v-82h-566zM266 228h286v408z" />
    <glyph glyph-name="Ccedilla" unicode="&#xc7;" horiz-adv-x="788" 
d="M476 -19l-15 -41q45 0 77.5 -25t32.5 -67q0 -38 -30.5 -65.5t-76.5 -27.5q-60 0 -122 44l35 47q45 -34 87 -34q20 0 32.5 10t12.5 27q0 18 -13.5 29t-37.5 11h-74l32 95q-156 15 -251 121t-95 252q0 168 112 265t281 97q61 0 134 -14.5t125 -34.5l-27 -88
q-131 55 -232 55q-122 0 -207 -75t-85 -203q0 -126 86 -208.5t206 -82.5q118 0 242 54l23 -83q-117 -53 -252 -58z" />
    <glyph glyph-name="Egrave" unicode="&#xc8;" horiz-adv-x="736" 
d="M100 0v700h564v-82h-466v-224h418v-82h-418v-230h478v-82h-576zM357 765l-110 194h106l71 -166z" />
    <glyph glyph-name="Eacute" unicode="&#xc9;" horiz-adv-x="736" 
d="M100 0v700h564v-82h-466v-224h418v-82h-418v-230h478v-82h-576zM506 959l-110 -194l-67 28l71 166h106z" />
    <glyph glyph-name="Ecircumflex" unicode="&#xca;" horiz-adv-x="736" 
d="M100 0v700h564v-82h-466v-224h418v-82h-418v-230h478v-82h-576zM442 959l96 -158l-62 -36l-98 136l-98 -136l-62 36l96 158h128z" />
    <glyph glyph-name="Edieresis" unicode="&#xcb;" horiz-adv-x="736" 
d="M100 0v700h564v-82h-466v-224h418v-82h-418v-230h478v-82h-576zM214 833q0 23 17 40t41 17t41.5 -17t17.5 -40t-17.5 -40t-41.5 -17t-41 17t-17 40zM423 833q0 23 17 40t41 17t41.5 -17t17.5 -40t-17.5 -40t-41.5 -17t-41 17t-17 40z" />
    <glyph glyph-name="Igrave" unicode="&#xcc;" horiz-adv-x="308" 
d="M203 700v-700h-98v700h98zM133 765l-110 194h106l71 -166z" />
    <glyph glyph-name="Iacute" unicode="&#xcd;" horiz-adv-x="308" 
d="M203 700v-700h-98v700h98zM292 959l-110 -194l-67 28l71 166h106z" />
    <glyph glyph-name="Icircumflex" unicode="&#xce;" horiz-adv-x="308" 
d="M203 700v-700h-98v700h98zM218 959l96 -158l-62 -36l-98 136l-98 -136l-62 36l96 158h128z" />
    <glyph glyph-name="Idieresis" unicode="&#xcf;" horiz-adv-x="308" 
d="M203 700v-700h-98v700h98zM-9 833q0 23 17 40t41 17t41.5 -17t17.5 -40t-17.5 -40t-41.5 -17t-41 17t-17 40zM200 833q0 23 17 40t41 17t41.5 -17t17.5 -40t-17.5 -40t-41.5 -17t-41 17t-17 40z" />
    <glyph glyph-name="Eth" unicode="&#xd0;" horiz-adv-x="886" 
d="M20 313v87h100v300h303q167 0 280 -90.5t113 -252.5q0 -150 -111.5 -253.5t-281.5 -103.5h-303v313h-100zM218 82h205q117 0 204.5 76.5t87.5 200.5q0 122 -86 190.5t-206 68.5h-205v-218h166v-87h-166v-231z" />
    <glyph glyph-name="Ntilde" unicode="&#xd1;" horiz-adv-x="888" 
d="M788 700v-700h-128l-462 589v-589h-98v700h128l462 -586v586h98zM301 787l-48 58q62 70 112 70q22 0 76 -20.5t77 -20.5q33 0 68 41l48 -58q-62 -70 -112 -70q-22 0 -76 20.5t-77 20.5q-33 0 -68 -41z" />
    <glyph glyph-name="Ograve" unicode="&#xd2;" horiz-adv-x="932" 
d="M466 -19q175 0 285.5 109.5t110.5 266.5q0 168 -113.5 265t-282.5 97t-282.5 -97t-113.5 -265q0 -157 110.5 -266.5t285.5 -109.5zM466 637q123 0 209 -75t86 -203q0 -130 -86.5 -213t-208.5 -83t-208.5 83t-86.5 213q0 128 86 203t209 75zM447 765l-110 194h106l71 -166
z" />
    <glyph glyph-name="Oacute" unicode="&#xd3;" horiz-adv-x="932" 
d="M466 -19q-175 0 -285.5 109.5t-110.5 266.5q0 168 113.5 265t282.5 97t282.5 -97t113.5 -265q0 -157 -110.5 -266.5t-285.5 -109.5zM466 637q-123 0 -209 -75t-86 -203q0 -130 86.5 -213t208.5 -83t208.5 83t86.5 213q0 128 -86 203t-209 75zM604 959l-110 -194l-67 28
l71 166h106z" />
    <glyph glyph-name="Ocircumflex" unicode="&#xd4;" horiz-adv-x="932" 
d="M466 -19q175 0 285.5 109.5t110.5 266.5q0 168 -113.5 265t-282.5 97t-282.5 -97t-113.5 -265q0 -157 110.5 -266.5t285.5 -109.5zM466 637q123 0 209 -75t86 -203q0 -130 -86.5 -213t-208.5 -83t-208.5 83t-86.5 213q0 128 86 203t209 75zM530 959l96 -158l-62 -36
l-98 136l-98 -136l-62 36l96 158h128z" />
    <glyph glyph-name="Otilde" unicode="&#xd5;" horiz-adv-x="932" 
d="M466 -19q175 0 285.5 109.5t110.5 266.5q0 168 -113.5 265t-282.5 97t-282.5 -97t-113.5 -265q0 -157 110.5 -266.5t285.5 -109.5zM466 637q123 0 209 -75t86 -203q0 -130 -86.5 -213t-208.5 -83t-208.5 83t-86.5 213q0 128 86 203t209 75zM323 787l-48 58q62 70 112 70
q22 0 76 -20.5t77 -20.5q33 0 68 41l48 -58q-62 -70 -112 -70q-22 0 -76 20.5t-77 20.5q-33 0 -68 -41z" />
    <glyph glyph-name="Odieresis" unicode="&#xd6;" horiz-adv-x="932" 
d="M466 -19q175 0 285.5 109.5t110.5 266.5q0 168 -113.5 265t-282.5 97t-282.5 -97t-113.5 -265q0 -157 110.5 -266.5t285.5 -109.5zM466 637q123 0 209 -75t86 -203q0 -130 -86.5 -213t-208.5 -83t-208.5 83t-86.5 213q0 128 86 203t209 75zM303 835q0 23 17 40t41 17
t41.5 -17t17.5 -40t-17.5 -40t-41.5 -17t-41 17t-17 40zM512 835q0 23 17 40t41 17t41.5 -17t17.5 -40t-17.5 -40t-41.5 -17t-41 17t-17 40z" />
    <glyph glyph-name="multiply" unicode="&#xd7;" horiz-adv-x="606" 
d="M155 120l-55 55l147 147l-147 148l55 55l147 -148l149 149l55 -55l-149 -149l149 -148l-55 -55l-149 148z" />
    <glyph glyph-name="Oslash" unicode="&#xd8;" horiz-adv-x="932" 
d="M466 -19q-91 0 -170 33l-9 -14h-104l37 57q-71 52 -110.5 130.5t-39.5 169.5q0 168 113.5 265t282.5 97q92 0 170 -30l7 11h104l-34 -51q149 -100 149 -292q0 -157 -110.5 -266.5t-285.5 -109.5zM466 63q122 0 208.5 83t86.5 213q0 133 -98 213l-319 -485q57 -24 122 -24
zM466 637q-123 0 -209 -75t-86 -203q0 -141 100 -226l316 482q-60 22 -121 22z" />
    <glyph glyph-name="Ugrave" unicode="&#xd9;" horiz-adv-x="854" 
d="M427 58q-106 0 -175 64t-69 173v405h-98v-403q0 -151 98.5 -237t243.5 -86t243.5 86t98.5 237v403h-98v-405q0 -109 -69 -173t-175 -64zM405 765l-110 194h106l71 -166z" />
    <glyph glyph-name="Uacute" unicode="&#xda;" horiz-adv-x="854" 
d="M427 58q106 0 175 64t69 173v405h98v-403q0 -151 -98.5 -237t-243.5 -86t-243.5 86t-98.5 237v403h98v-405q0 -109 69 -173t175 -64zM560 959l-110 -194l-67 28l71 166h106z" />
    <glyph glyph-name="Ucircumflex" unicode="&#xdb;" horiz-adv-x="854" 
d="M427 58q-106 0 -175 64t-69 173v405h-98v-403q0 -151 98.5 -237t243.5 -86t243.5 86t98.5 237v403h-98v-405q0 -109 -69 -173t-175 -64zM491 959l96 -158l-62 -36l-98 136l-98 -136l-62 36l96 158h128z" />
    <glyph glyph-name="Udieresis" unicode="&#xdc;" horiz-adv-x="854" 
d="M427 58q-106 0 -175 64t-69 173v405h-98v-403q0 -151 98.5 -237t243.5 -86t243.5 86t98.5 237v403h-98v-405q0 -109 -69 -173t-175 -64zM264 834q0 23 17 40t41 17t41.5 -17t17.5 -40t-17.5 -40t-41.5 -17t-41 17t-17 40zM473 834q0 23 17 40t41 17t41.5 -17t17.5 -40
t-17.5 -40t-41.5 -17t-41 17t-17 40z" />
    <glyph glyph-name="Yacute" unicode="&#xdd;" horiz-adv-x="719" 
d="M124 701l241 -323l237 323h117l-308 -418v-283h-98v286l-313 415h124zM494 959l-110 -194l-67 28l71 166h106z" />
    <glyph glyph-name="Thorn" unicode="&#xde;" horiz-adv-x="745" 
d="M198 700v-123h263q103 0 173.5 -58.5t70.5 -153.5q0 -100 -76 -163.5t-193 -63.5h-238v-138h-98v700h98zM461 495h-263v-275h238q78 0 124.5 39.5t46.5 108.5q0 57 -40.5 92t-105.5 35z" />
    <glyph glyph-name="agrave" unicode="&#xe0;" horiz-adv-x="653" 
d="M432 79v12q-41 -47 -97.5 -77t-119.5 -30q-66 0 -110.5 38t-44.5 100q0 73 53.5 114.5t134.5 41.5q79 0 184 -35v70q0 56 -28.5 88.5t-87.5 32.5q-67 0 -205 -46l-23 84q147 44 241 44q97 0 147.5 -52.5t50.5 -153.5v-211q0 -28 22 -28q12 0 34 10l53 25l17 -74l-72 -34
q-28 -14 -68 -14q-41 0 -61 26.5t-20 68.5zM239 67q56 0 111.5 31t81.5 78v4q-88 22 -175 22q-46 0 -73.5 -18.5t-27.5 -53.5q0 -31 24 -47t59 -16zM280 575l-110 194h106l71 -166z" />
    <glyph glyph-name="aacute" unicode="&#xe1;" horiz-adv-x="653" 
d="M432 79v12q-41 -47 -97.5 -77t-119.5 -30q-66 0 -110.5 38t-44.5 100q0 73 53.5 114.5t134.5 41.5q79 0 184 -35v70q0 56 -28.5 88.5t-87.5 32.5q-67 0 -205 -46l-23 84q147 44 241 44q97 0 147.5 -52.5t50.5 -153.5v-211q0 -28 22 -28q12 0 34 10l53 25l17 -74l-72 -34
q-28 -14 -68 -14q-41 0 -61 26.5t-20 68.5zM239 67q56 0 111.5 31t81.5 78v4q-88 22 -175 22q-46 0 -73.5 -18.5t-27.5 -53.5q0 -31 24 -47t59 -16zM433 769l-110 -194l-67 28l71 166h106z" />
    <glyph glyph-name="acircumflex" unicode="&#xe2;" horiz-adv-x="653" 
d="M432 79v12q-41 -47 -97.5 -77t-119.5 -30q-66 0 -110.5 38t-44.5 100q0 73 53.5 114.5t134.5 41.5q79 0 184 -35v70q0 56 -28.5 88.5t-87.5 32.5q-67 0 -205 -46l-23 84q147 44 241 44q97 0 147.5 -52.5t50.5 -153.5v-211q0 -28 22 -28q12 0 34 10l53 25l17 -74l-72 -34
q-28 -14 -68 -14q-41 0 -61 26.5t-20 68.5zM239 67q56 0 111.5 31t81.5 78v4q-88 22 -175 22q-46 0 -73.5 -18.5t-27.5 -53.5q0 -31 24 -47t59 -16zM368 769l96 -158l-62 -36l-98 136l-98 -136l-62 36l96 158h128z" />
    <glyph glyph-name="atilde" unicode="&#xe3;" horiz-adv-x="653" 
d="M432 79v12q-41 -47 -97.5 -77t-119.5 -30q-66 0 -110.5 38t-44.5 100q0 73 53.5 114.5t134.5 41.5q79 0 184 -35v70q0 56 -28.5 88.5t-87.5 32.5q-67 0 -205 -46l-23 84q147 44 241 44q97 0 147.5 -52.5t50.5 -153.5v-211q0 -28 22 -28q12 0 34 10l53 25l17 -74l-72 -34
q-28 -14 -68 -14q-41 0 -61 26.5t-20 68.5zM239 67q56 0 111.5 31t81.5 78v4q-88 22 -175 22q-46 0 -73.5 -18.5t-27.5 -53.5q0 -31 24 -47t59 -16zM172 597l-48 58q62 70 112 70q22 0 76 -20.5t77 -20.5q33 0 68 41l48 -58q-62 -70 -112 -70q-22 0 -76 20.5t-77 20.5
q-33 0 -68 -41z" />
    <glyph glyph-name="adieresis" unicode="&#xe4;" horiz-adv-x="653" 
d="M432 79v12q-41 -47 -97.5 -77t-119.5 -30q-66 0 -110.5 38t-44.5 100q0 73 53.5 114.5t134.5 41.5q79 0 184 -35v70q0 56 -28.5 88.5t-87.5 32.5q-67 0 -205 -46l-23 84q147 44 241 44q97 0 147.5 -52.5t50.5 -153.5v-211q0 -28 22 -28q12 0 34 10l53 25l17 -74l-72 -34
q-28 -14 -68 -14q-41 0 -61 26.5t-20 68.5zM239 67q56 0 111.5 31t81.5 78v4q-88 22 -175 22q-46 0 -73.5 -18.5t-27.5 -53.5q0 -31 24 -47t59 -16zM150 643q0 23 17 40t41 17t41.5 -17t17.5 -40t-17.5 -40t-41.5 -17t-41 17t-17 40zM359 643q0 23 17 40t41 17t41.5 -17
t17.5 -40t-17.5 -40t-41.5 -17t-41 17t-17 40z" />
    <glyph glyph-name="aring" unicode="&#xe5;" horiz-adv-x="653" 
d="M163 655q0 52 42 90.5t101 38.5t101 -38.5t42 -90.5t-42 -90.5t-101 -38.5t-101 38.5t-42 90.5zM242 655q0 -25 18.5 -42t45.5 -17t45.5 17t18.5 42q0 24 -18.5 41t-45.5 17t-45.5 -17t-18.5 -41zM432 79v12q-41 -47 -97.5 -77t-119.5 -30q-66 0 -110.5 38t-44.5 100
q0 73 53.5 114.5t134.5 41.5q79 0 184 -35v70q0 56 -28.5 88.5t-87.5 32.5q-67 0 -205 -46l-23 84q147 44 241 44q97 0 147.5 -52.5t50.5 -153.5v-211q0 -28 22 -28q12 0 34 10l53 25l17 -74l-72 -34q-28 -14 -68 -14q-41 0 -61 26.5t-20 68.5zM239 67q56 0 111.5 31
t81.5 78v4q-88 22 -175 22q-46 0 -73.5 -18.5t-27.5 -53.5q0 -31 24 -47t59 -16z" />
    <glyph glyph-name="ae" unicode="&#xe6;" horiz-adv-x="1018" 
d="M964 237h-436q7 -77 62 -123.5t134 -46.5q99 0 208 48l29 -73q-131 -58 -240 -58q-81 0 -146 33t-102 91q-116 -124 -258 -124q-66 0 -110.5 38t-44.5 100q0 73 52 114.5t132 41.5q74 0 188 -31v66q0 56 -28.5 88.5t-87.5 32.5q-67 0 -205 -46l-23 84q147 44 241 44
q123 0 170 -84q81 84 221 84q108 0 177 -67.5t69 -172.5q0 -15 -2 -39zM713 440q-70 0 -117 -32.5t-62 -95.5h336q-8 61 -50.5 94.5t-106.5 33.5zM444 172l-3 10q-108 19 -184 19q-44 0 -72.5 -18t-28.5 -51q0 -31 24.5 -48t58.5 -17q57 0 111 29.5t94 75.5z" />
    <glyph glyph-name="ccedilla" unicode="&#xe7;" horiz-adv-x="603" 
d="M353 -16l-16 -44q45 0 77.5 -25t32.5 -67q0 -38 -30.5 -65.5t-76.5 -27.5q-60 0 -122 44l35 47q45 -34 87 -34q20 0 32.5 10t12.5 27q0 18 -13.5 29t-37.5 11h-74l33 98q-109 13 -175 87.5t-66 181.5q0 121 81.5 190.5t204.5 69.5q90 0 220 -45l-22 -81q-127 50 -201 50
q-84 0 -135.5 -48.5t-51.5 -135.5q0 -79 56.5 -133.5t138.5 -54.5q91 0 198 46l22 -77q-106 -49 -210 -53z" />
    <glyph glyph-name="egrave" unicode="&#xe8;" horiz-adv-x="638" 
d="M341 -16q109 0 240 58l-29 73q-109 -48 -208 -48q-79 0 -134 46.5t-62 123.5h436q2 24 2 39q0 105 -69 172.5t-177 67.5q-123 0 -205.5 -69.5t-82.5 -190.5q0 -118 81 -195t208 -77zM154 312q15 63 62 95.5t117 32.5q64 0 106.5 -33.5t50.5 -94.5h-336zM300 575l-110 194
h106l71 -166z" />
    <glyph glyph-name="eacute" unicode="&#xe9;" horiz-adv-x="638" 
d="M341 -16q-127 0 -208 77t-81 195q0 121 82.5 190.5t205.5 69.5q108 0 177 -67.5t69 -172.5q0 -15 -2 -39h-436q7 -77 62 -123.5t134 -46.5q99 0 208 48l29 -73q-131 -58 -240 -58zM154 312h336q-8 61 -50.5 94.5t-106.5 33.5q-70 0 -117 -32.5t-62 -95.5zM467 769
l-110 -194l-67 28l71 166h106z" />
    <glyph glyph-name="ecircumflex" unicode="&#xea;" horiz-adv-x="638" 
d="M341 -16q109 0 240 58l-29 73q-109 -48 -208 -48q-79 0 -134 46.5t-62 123.5h436q2 24 2 39q0 105 -69 172.5t-177 67.5q-123 0 -205.5 -69.5t-82.5 -190.5q0 -118 81 -195t208 -77zM154 312q15 63 62 95.5t117 32.5q64 0 106.5 -33.5t50.5 -94.5h-336zM383 769l96 -158
l-62 -36l-98 136l-98 -136l-62 36l96 158h128z" />
    <glyph glyph-name="edieresis" unicode="&#xeb;" horiz-adv-x="638" 
d="M341 -16q109 0 240 58l-29 73q-109 -48 -208 -48q-79 0 -134 46.5t-62 123.5h436q2 24 2 39q0 105 -69 172.5t-177 67.5q-123 0 -205.5 -69.5t-82.5 -190.5q0 -118 81 -195t208 -77zM154 312q15 63 62 95.5t117 32.5q64 0 106.5 -33.5t50.5 -94.5h-336zM156 643
q0 23 17 40t41 17t41.5 -17t17.5 -40t-17.5 -40t-41.5 -17t-41 17t-17 40zM365 643q0 23 17 40t41 17t41.5 -17t17.5 -40t-17.5 -40t-41.5 -17t-41 17t-17 40z" />
    <glyph glyph-name="igrave" unicode="&#xec;" 
d="M179 500v-500h-94v500h94zM105 575l-110 194h106l71 -166z" />
    <glyph glyph-name="iacute" unicode="&#xed;" 
d="M179 500v-500h-94v500h94zM270 769l-110 -194l-67 28l71 166h106z" />
    <glyph glyph-name="icircumflex" unicode="&#xee;" 
d="M179 500v-500h-94v500h94zM196 769l96 -158l-62 -36l-98 136l-98 -136l-62 36l96 158h128z" />
    <glyph glyph-name="idieresis" unicode="&#xef;" 
d="M179 500v-500h-94v500h94zM-31 643q0 23 17 40t41 17t41.5 -17t17.5 -40t-17.5 -40t-41.5 -17t-41 17t-17 40zM178 643q0 23 17 40t41 17t41.5 -17t17.5 -40t-17.5 -40t-41.5 -17t-41 17t-17 40z" />
    <glyph glyph-name="eth" unicode="&#xf0;" horiz-adv-x="678" 
d="M171 489l-33 69l152 72l-89 49l38 71l137 -79l149 71l31 -70l-111 -53q181 -154 181 -308v-35q0 -129 -80 -211t-207 -82q-122 0 -204.5 77.5t-82.5 183.5q0 114 72.5 180t176.5 66q109 0 219 -99q-48 106 -156 189zM303 413q-70 0 -112.5 -45t-42.5 -124
q0 -73 54.5 -129t136.5 -56q81 0 136 58t55 139v38q-46 48 -109 83.5t-118 35.5z" />
    <glyph glyph-name="ntilde" unicode="&#xf1;" horiz-adv-x="680" 
d="M397 516q98 0 153 -60t55 -163v-293h-95v285q0 66 -35.5 106.5t-101.5 40.5q-78 0 -138.5 -55.5t-60.5 -144.5v-232h-94v500h94v-108q32 52 93 88t130 36zM197 597l-48 58q62 70 112 70q22 0 76 -20.5t77 -20.5q33 0 68 41l48 -58q-62 -70 -112 -70q-22 0 -76 20.5
t-77 20.5q-33 0 -68 -41z" />
    <glyph glyph-name="ograve" unicode="&#xf2;" horiz-adv-x="688" 
d="M344 516q-123 0 -207.5 -69.5t-84.5 -190.5q0 -115 83 -194t209 -79t209 79t83 194q0 121 -84.5 190.5t-207.5 69.5zM344 440q88 0 142 -48.5t54 -135.5q0 -80 -57.5 -138.5t-138.5 -58.5t-138.5 58.5t-57.5 138.5q0 87 54 135.5t142 48.5zM316 575l-110 194h106l71 -166
z" />
    <glyph glyph-name="oacute" unicode="&#xf3;" horiz-adv-x="688" 
d="M344 516q123 0 207.5 -69.5t84.5 -190.5q0 -115 -83 -194t-209 -79t-209 79t-83 194q0 121 84.5 190.5t207.5 69.5zM344 440q-88 0 -142 -48.5t-54 -135.5q0 -80 57.5 -138.5t138.5 -58.5t138.5 58.5t57.5 138.5q0 87 -54 135.5t-142 48.5zM482 769l-110 -194l-67 28
l71 166h106z" />
    <glyph glyph-name="ocircumflex" unicode="&#xf4;" horiz-adv-x="688" 
d="M344 516q-123 0 -207.5 -69.5t-84.5 -190.5q0 -115 83 -194t209 -79t209 79t83 194q0 121 -84.5 190.5t-207.5 69.5zM344 440q88 0 142 -48.5t54 -135.5q0 -80 -57.5 -138.5t-138.5 -58.5t-138.5 58.5t-57.5 138.5q0 87 54 135.5t142 48.5zM408 769l96 -158l-62 -36
l-98 136l-98 -136l-62 36l96 158h128z" />
    <glyph glyph-name="otilde" unicode="&#xf5;" horiz-adv-x="688" 
d="M344 516q-123 0 -207.5 -69.5t-84.5 -190.5q0 -115 83 -194t209 -79t209 79t83 194q0 121 -84.5 190.5t-207.5 69.5zM344 440q88 0 142 -48.5t54 -135.5q0 -80 -57.5 -138.5t-138.5 -58.5t-138.5 58.5t-57.5 138.5q0 87 54 135.5t142 48.5zM201 597l-48 58q62 70 112 70
q22 0 76 -20.5t77 -20.5q33 0 68 41l48 -58q-62 -70 -112 -70q-22 0 -76 20.5t-77 20.5q-33 0 -68 -41z" />
    <glyph glyph-name="odieresis" unicode="&#xf6;" horiz-adv-x="688" 
d="M344 516q-123 0 -207.5 -69.5t-84.5 -190.5q0 -115 83 -194t209 -79t209 79t83 194q0 121 -84.5 190.5t-207.5 69.5zM344 440q88 0 142 -48.5t54 -135.5q0 -80 -57.5 -138.5t-138.5 -58.5t-138.5 58.5t-57.5 138.5q0 87 54 135.5t142 48.5zM181 643q0 23 17 40t41 17
t41.5 -17t17.5 -40t-17.5 -40t-41.5 -17t-41 17t-17 40zM390 643q0 23 17 40t41 17t41.5 -17t17.5 -40t-17.5 -40t-41.5 -17t-41 17t-17 40z" />
    <glyph glyph-name="divide" unicode="&#xf7;" horiz-adv-x="677" 
d="M100 284v78h477v-78h-477zM274 135q0 27 19 45.5t46 18.5t46 -18.5t19 -45.5t-19 -45.5t-46 -18.5t-46 18.5t-19 45.5zM274 510q0 27 19 45.5t46 18.5t46 -18.5t19 -45.5t-19 -45.5t-46 -18.5t-46 18.5t-19 45.5z" />
    <glyph glyph-name="oslash" unicode="&#xf8;" horiz-adv-x="688" 
d="M229 0h-104l30 45q-49 38 -76 93t-27 118q0 121 84.5 190.5t207.5 69.5q63 0 116 -19l2 3h104l-29 -43q99 -73 99 -201q0 -115 -83 -194t-209 -79q-61 0 -113 20zM344 440q-88 0 -142 -48.5t-54 -135.5q0 -80 56 -138l211 312q-31 10 -71 10zM344 59q81 0 138.5 58.5
t57.5 138.5q0 81 -50 131l-213 -316q31 -12 67 -12z" />
    <glyph glyph-name="ugrave" unicode="&#xf9;" horiz-adv-x="675" 
d="M271 -16q-97 0 -151.5 60.5t-54.5 162.5v293h95v-285q0 -67 35 -107t100 -40q73 0 130.5 50.5t65.5 134.5v247h94v-500h-94v106q-33 -51 -93 -86.5t-127 -35.5zM309 575l-110 194h106l71 -166z" />
    <glyph glyph-name="uacute" unicode="&#xfa;" horiz-adv-x="675" 
d="M271 -16q-97 0 -151.5 60.5t-54.5 162.5v293h95v-285q0 -67 35 -107t100 -40q73 0 130.5 50.5t65.5 134.5v247h94v-500h-94v106q-33 -51 -93 -86.5t-127 -35.5zM472 769l-110 -194l-67 28l71 166h106z" />
    <glyph glyph-name="ucircumflex" unicode="&#xfb;" horiz-adv-x="675" 
d="M271 -16q-97 0 -151.5 60.5t-54.5 162.5v293h95v-285q0 -67 35 -107t100 -40q73 0 130.5 50.5t65.5 134.5v247h94v-500h-94v106q-33 -51 -93 -86.5t-127 -35.5zM391 769l96 -158l-62 -36l-98 136l-98 -136l-62 36l96 158h128z" />
    <glyph glyph-name="udieresis" unicode="&#xfc;" horiz-adv-x="675" 
d="M271 -16q-97 0 -151.5 60.5t-54.5 162.5v293h95v-285q0 -67 35 -107t100 -40q73 0 130.5 50.5t65.5 134.5v247h94v-500h-94v106q-33 -51 -93 -86.5t-127 -35.5zM174 643q0 23 17 40t41 17t41.5 -17t17.5 -40t-17.5 -40t-41.5 -17t-41 17t-17 40zM383 643q0 23 17 40
t41 17t41.5 -17t17.5 -40t-17.5 -40t-41.5 -17t-41 17t-17 40z" />
    <glyph glyph-name="yacute" unicode="&#xfd;" horiz-adv-x="591" 
d="M586 500l-238 -535q-17 -38 -25.5 -55t-25.5 -48t-32.5 -46.5t-38 -33t-50.5 -25t-61 -7.5q-10 0 -22 2l5 90q16 -2 24 -2q27 0 48 10.5t37.5 32.5t27 42t24.5 52l6 14l-260 509h104l202 -401l172 401h103zM436 769l-110 -194l-67 28l71 166h106z" />
    <glyph glyph-name="thorn" unicode="&#xfe;" horiz-adv-x="692" 
d="M388 516q106 0 179 -71t73 -189q0 -114 -85.5 -194t-212.5 -80q-67 0 -167 31v-253h-95v990h95v-352q25 51 82 84.5t131 33.5zM362 433q-77 0 -132 -50t-55 -134v-163q90 -28 169 -28q81 0 140.5 59t59.5 139q0 84 -49.5 130.5t-132.5 46.5z" />
    <glyph glyph-name="ydieresis" unicode="&#xff;" horiz-adv-x="591" 
d="M586 500l-238 -535q-17 -38 -25.5 -55t-25.5 -48t-32.5 -46.5t-38 -33t-50.5 -25t-61 -7.5q-10 0 -22 2l5 90q16 -2 24 -2q27 0 48 10.5t37.5 32.5t27 42t24.5 52l6 14l-260 509h104l202 -401l172 401h103zM138 643q0 23 17 40t41 17t41.5 -17t17.5 -40t-17.5 -40
t-41.5 -17t-41 17t-17 40zM347 643q0 23 17 40t41 17t41.5 -17t17.5 -40t-17.5 -40t-41.5 -17t-41 17t-17 40z" />
    <glyph glyph-name="Aogonek" unicode="&#x104;" horiz-adv-x="782" 
d="M745 -154l17 -55q-72 -34 -124 -34q-60 0 -95.5 28.5t-35.5 78.5q0 55 35 95.5t98 79.5l-49 107h-404l-66 -146h-106l322 700h108l322 -700h-78q-118 -70 -118 -128q0 -29 17.5 -43t46.5 -14q48 0 110 31zM389 589l-164 -361h329z" />
    <glyph glyph-name="aogonek" unicode="&#x105;" horiz-adv-x="653" 
d="M646 -154l17 -55q-72 -34 -124 -34q-60 0 -95.5 28.5t-35.5 78.5q0 71 67 128q-43 22 -43 87v12q-41 -47 -97.5 -77t-119.5 -30q-66 0 -110.5 38t-44.5 100q0 73 53.5 114.5t134.5 41.5q79 0 184 -35v70q0 56 -28.5 88.5t-87.5 32.5q-67 0 -205 -46l-23 84q147 44 241 44
q97 0 147.5 -52.5t50.5 -153.5v-211q0 -28 22 -28q12 0 34 10l53 25l17 -74l-36 -17q-145 -80 -145 -143q0 -29 17.5 -43t46.5 -14q48 0 110 31zM239 67q56 0 111.5 31t81.5 78v4q-88 22 -175 22q-46 0 -73.5 -18.5t-27.5 -53.5q0 -31 24 -47t59 -16z" />
    <glyph glyph-name="OE" unicode="&#x152;" horiz-adv-x="1333" 
d="M697 0v61q-98 -80 -231 -80q-175 0 -285.5 109.5t-110.5 266.5q0 168 113.5 265t282.5 97q131 0 231 -73v54h564v-82h-466v-224h418v-82h-418v-230h478v-82h-576zM466 63q69 0 129 28t102 79v369q-86 98 -231 98q-123 0 -209 -75t-86 -203q0 -130 86.5 -213t208.5 -83z
" />
    <glyph glyph-name="oe" unicode="&#x153;" horiz-adv-x="1116" 
d="M340 516q75 0 137.5 -27.5t101.5 -78.5q38 51 100 78.5t137 27.5q108 0 175 -67t67 -173q0 -15 -2 -39h-428q7 -77 60.5 -123.5t131.5 -46.5q95 0 204 48l29 -73q-131 -58 -236 -58q-78 0 -140 30.5t-99 84.5q-39 -54 -100.5 -85t-137.5 -31q-126 0 -207 79t-81 194
q0 121 82.5 190.5t205.5 69.5zM340 440q-88 0 -140 -48.5t-52 -135.5q0 -81 55.5 -139t136.5 -58q79 0 135.5 56t56.5 133q0 94 -52.5 143t-139.5 49zM633 312h329q-7 61 -48.5 94.5t-104.5 33.5q-70 0 -116 -32.5t-60 -95.5z" />
    <glyph glyph-name="Sacute" unicode="&#x15a;" horiz-adv-x="691" 
d="M328 637q-65 0 -116 -29t-51 -77q0 -19 7 -34.5t24.5 -28t32 -20.5t45.5 -17t48.5 -13l55.5 -13q45 -10 76.5 -19t69.5 -26t61 -37.5t39 -53t16 -72.5q0 -96 -83.5 -156t-200.5 -60q-74 0 -156 16.5t-141 43.5l24 79q134 -56 266 -56q82 0 138 34t56 99q0 22 -11.5 40
t-26.5 29t-44.5 22t-51.5 17t-61 15q-40 9 -58 13.5t-54 15.5t-54 20t-43.5 25.5t-38 34.5t-22 44t-9.5 57q0 82 79 135.5t184 53.5q148 0 286 -49l-27 -88q-141 55 -259 55zM454 959l-110 -194l-67 28l71 166h106z" />
    <glyph glyph-name="Scaron" unicode="&#x160;" horiz-adv-x="691" 
d="M328 637q-65 0 -116 -29t-51 -77q0 -19 7 -34.5t24.5 -28t32 -20.5t45.5 -17t48.5 -13l55.5 -13q45 -10 76.5 -19t69.5 -26t61 -37.5t39 -53t16 -72.5q0 -96 -83.5 -156t-200.5 -60q-74 0 -156 16.5t-141 43.5l24 79q134 -56 266 -56q82 0 138 34t56 99q0 22 -11.5 40
t-26.5 29t-44.5 22t-51.5 17t-61 15q-40 9 -58 13.5t-54 15.5t-54 20t-43.5 25.5t-38 34.5t-22 44t-9.5 57q0 82 79 135.5t184 53.5q148 0 286 -49l-27 -88q-141 55 -259 55zM505 923l-96 -158h-128l-96 158l62 36l98 -136l98 136z" />
    <glyph glyph-name="scaron" unicode="&#x161;" horiz-adv-x="574" 
d="M148 380q0 -21 12.5 -36t40 -24.5t50 -13.5t64.5 -10q209 -30 209 -150q0 -75 -70.5 -118.5t-161.5 -43.5q-58 0 -127 16t-115 37l22 77q116 -50 218 -50q58 0 98.5 17.5t40.5 57.5q0 34 -36 50t-103 26q-39 6 -66 11.5t-61.5 17.5t-56 28t-36.5 41.5t-15 58.5
q0 64 63.5 104t149.5 40q120 0 235 -45l-22 -80q-115 50 -216 50q-45 0 -81 -15.5t-36 -45.5zM447 733l-96 -158h-128l-96 158l62 36l98 -136l98 136z" />
    <glyph glyph-name="Tcaron" unicode="&#x164;" horiz-adv-x="694" 
d="M15 618v82h664v-82h-283v-618h-98v618h-283zM507 923l-96 -158h-128l-96 158l62 36l98 -136l98 136z" />
    <glyph glyph-name="tcaron" unicode="&#x165;" horiz-adv-x="531" 
d="M18 424v66l108 7l18 153h74v-150h206v-76h-206v-229q0 -127 108 -127q48 0 102 30l20 -77q-72 -37 -146 -37q-87 0 -132.5 54t-45.5 149v237h-106zM455 716q0 27 19 45.5t46 18.5q35 0 52 -26.5t17 -66.5q0 -52 -26 -108t-73 -93l-34 42q60 51 64 124q-27 0 -46 18.5
t-19 45.5z" />
    <glyph glyph-name="Ydieresis" unicode="&#x178;" horiz-adv-x="719" 
d="M124 701l241 -323l237 323h117l-308 -418v-283h-98v286l-313 415h124zM200 833q0 23 17 40t41 17t41.5 -17t17.5 -40t-17.5 -40t-41.5 -17t-41 17t-17 40zM409 833q0 23 17 40t41 17t41.5 -17t17.5 -40t-17.5 -40t-41.5 -17t-41 17t-17 40z" />
    <glyph glyph-name="Zacute" unicode="&#x179;" horiz-adv-x="699" 
d="M50 613v87h619v-102l-527 -511h527v-87h-639v102l524 511h-504zM488 959l-110 -194l-67 28l71 166h106z" />
    <glyph glyph-name="Zcaron" unicode="&#x17d;" horiz-adv-x="699" 
d="M50 613v87h619v-102l-527 -511h527v-87h-639v102l524 511h-504zM515 923l-96 -158h-128l-96 158l62 36l98 -136l98 136z" />
    <glyph glyph-name="zcaron" unicode="&#x17e;" horiz-adv-x="569" 
d="M65 418v82h449v-70l-348 -348h358v-82h-479v70l348 348h-328zM449 733l-96 -158h-128l-96 158l62 36l98 -136l98 136z" />
    <glyph glyph-name="florin" unicode="&#x192;" horiz-adv-x="449" 
d="M20 424v76h90v73q0 85 50.5 135t138.5 50q70 0 145 -25l-22 -82q-60 26 -126 26q-45 0 -71 -28t-26 -80v-69h227v-76h-222v-483q0 -87 -53 -139t-148 -52l-17 1v94q16 -2 24 -2q48 0 74.5 24t26.5 71v486h-91z" />
    <glyph glyph-name="circumflex" unicode="&#x2c6;" horiz-adv-x="320" 
d="M224 769l96 -158l-62 -36l-98 136l-98 -136l-62 36l96 158h128z" />
    <glyph glyph-name="caron" unicode="&#x2c7;" horiz-adv-x="320" 
d="M320 733l-96 -158h-128l-96 158l62 36l98 -136l98 136z" />
    <glyph glyph-name="ogonek" unicode="&#x2db;" horiz-adv-x="266" 
d="M240 -154l17 -55q-72 -34 -124 -34q-60 0 -95.5 28.5t-35.5 78.5q0 29 12 55.5t26.5 45t45 41t48.5 33l55 32.5q20 12 23 14l34 -51q-38 -20 -62.5 -35t-55.5 -37t-46.5 -44.5t-15.5 -45.5q0 -29 17.5 -43t46.5 -14q48 0 110 31z" />
    <glyph glyph-name="tilde" unicode="&#x2dc;" horiz-adv-x="381" 
d="M48 597l-48 58q62 70 112 70q22 0 76 -20.5t77 -20.5q33 0 68 41l48 -58q-62 -70 -112 -70q-22 0 -76 20.5t-77 20.5q-33 0 -68 -41z" />
    <glyph glyph-name="afii10023" unicode="&#x401;" horiz-adv-x="736" 
d="M100 0v700h564v-82h-466v-224h418v-82h-418v-230h478v-82h-576zM205 835q0 23 17 40t41 17t41.5 -17t17.5 -40t-17.5 -40t-41.5 -17t-41 17t-17 40zM414 835q0 23 17 40t41 17t41.5 -17t17.5 -40t-17.5 -40t-41.5 -17t-41 17t-17 40z" />
    <glyph glyph-name="afii10051" unicode="&#x402;" horiz-adv-x="912" 
d="M15 618v82h684v-82h-303v-266q32 51 94.5 87.5t133.5 36.5q101 0 157 -60t56 -163v-312q0 -87 -53 -139t-148 -52l-17 1v94q16 -2 24 -2q99 0 99 95v307q0 66 -37.5 106.5t-104.5 40.5q-80 0 -142 -55.5t-62 -144.5v-192h-98v618h-283z" />
    <glyph glyph-name="afii10052" unicode="&#x403;" horiz-adv-x="644" 
d="M100 0v700h534v-82h-436v-618h-98zM480 959l-110 -194l-67 28l71 166h106z" />
    <glyph glyph-name="afii10053" unicode="&#x404;" horiz-adv-x="798" 
d="M571 406v-86h-399q13 -112 97 -182t199 -70q123 0 245 53l25 -82q-128 -58 -270 -58q-178 0 -288 109t-110 267q0 168 113.5 265t284.5 97q64 0 138 -14.5t126 -34.5l-27 -88q-131 55 -237 55q-114 0 -196.5 -61.5t-98.5 -169.5h398z" />
    <glyph glyph-name="afii10054" unicode="&#x405;" horiz-adv-x="691" 
d="M328 637q-65 0 -116 -29t-51 -77q0 -19 7 -34.5t24.5 -28t32 -20.5t45.5 -17t48.5 -13l55.5 -13q45 -10 76.5 -19t69.5 -26t61 -37.5t39 -53t16 -72.5q0 -96 -83.5 -156t-200.5 -60q-74 0 -156 16.5t-141 43.5l24 79q134 -56 266 -56q82 0 138 34t56 99q0 22 -11.5 40
t-26.5 29t-44.5 22t-51.5 17t-61 15q-40 9 -58 13.5t-54 15.5t-54 20t-43.5 25.5t-38 34.5t-22 44t-9.5 57q0 82 79 135.5t184 53.5q148 0 286 -49l-27 -88q-141 55 -259 55z" />
    <glyph glyph-name="uni0406" unicode="&#x406;" horiz-adv-x="308" 
d="M203 700v-700h-98v700h98z" />
    <glyph glyph-name="afii10056" unicode="&#x407;" horiz-adv-x="308" 
d="M24 831q0 23 15.5 39t36.5 16q22 0 37.5 -16t15.5 -39t-15.5 -39t-37.5 -16q-21 0 -36.5 16t-15.5 39zM183 831q0 23 15.5 39t37.5 16q21 0 36.5 -16t15.5 -39t-15.5 -39t-36.5 -16q-22 0 -37.5 16t-15.5 39zM203 700v-700h-98v700h98z" />
    <glyph glyph-name="afii10057" unicode="&#x408;" horiz-adv-x="315" 
d="M39 -65l-24 82q97 34 97 130v553h98v-553q0 -80 -46.5 -133t-124.5 -79z" />
    <glyph glyph-name="afii10058" unicode="&#x409;" horiz-adv-x="1259" 
d="M7 -14l3 95q18 -2 24 -2q26 0 48 10t39 30.5t31.5 44.5t25 60.5t18.5 68.5t13.5 78t9 81t6.5 85.5t4 82.5t3 80h484v-275h260q102 0 172.5 -56.5t70.5 -148.5q0 -95 -76.5 -157.5t-191.5 -62.5h-333v618h-291q-2 -82 -7.5 -152t-18 -145t-35 -132.5t-54 -105t-79 -73
t-106.5 -25.5q-12 0 -20 1zM976 343h-260v-261h235q77 0 123.5 38t46.5 103q0 55 -40 87.5t-105 32.5z" />
    <glyph glyph-name="afii10059" unicode="&#x40a;" horiz-adv-x="1291" 
d="M198 700v-281h452v281h98v-281h260q102 0 172.5 -56t70.5 -146q0 -93 -77 -155t-191 -62h-333v337h-452v-337h-98v700h98zM1008 337h-260v-255h235q77 0 123.5 37.5t46.5 100.5q0 54 -40 85.5t-105 31.5z" />
    <glyph glyph-name="afii10060" unicode="&#x40b;" horiz-adv-x="912" 
d="M15 618v82h684v-82h-303v-266q32 51 94.5 87.5t133.5 36.5q101 0 157 -60t56 -163v-253h-95v245q0 66 -37.5 106.5t-104.5 40.5q-80 0 -142 -55.5t-62 -144.5v-192h-98v618h-283z" />
    <glyph glyph-name="afii10061" unicode="&#x40c;" horiz-adv-x="752" 
d="M747 20q-73 -32 -110 -32q-43 0 -96 48l-328 303l389 361h122l-387 -353l277 -247q22 -21 45 -21q25 0 65 21zM198 700v-700h-98v700h98zM484 959l-110 -194l-67 28l71 166h106z" />
    <glyph glyph-name="afii10062" unicode="&#x40e;" horiz-adv-x="791" 
d="M502 915h82q0 -74 -53.5 -124.5t-134.5 -50.5t-134.5 50.5t-53.5 124.5h82q0 -43 31 -74.5t75 -31.5t75 31.5t31 74.5zM166 -13l11 92q42 -8 75 -8q66 0 113 42l-325 587h110l278 -496l230 496h103l-252 -540q-41 -87 -108 -134.5t-155 -47.5q-38 0 -80 9z" />
    <glyph glyph-name="afii10145" unicode="&#x40f;" horiz-adv-x="845" 
d="M100 0v700h98v-618h449v618h98v-700h-274v-161h-96v161h-275z" />
    <glyph glyph-name="afii10017" unicode="&#x410;" horiz-adv-x="782" 
d="M658 0l-67 146h-404l-66 -146h-106l322 700h108l322 -700h-109zM389 589l-164 -361h329z" />
    <glyph glyph-name="afii10018" unicode="&#x411;" horiz-adv-x="770" 
d="M468 415q101 0 171.5 -55t70.5 -145q0 -94 -76.5 -154.5t-190.5 -60.5h-343v700h567v-82h-469v-203h270zM468 333h-270v-251h245q76 0 122.5 36t46.5 100q0 53 -40 84t-104 31z" />
    <glyph glyph-name="afii10019" unicode="&#x412;" horiz-adv-x="770" 
d="M100 0v700h345q93 0 158 -47.5t65 -127.5q0 -93 -94 -150q63 -18 102 -62t39 -107q0 -91 -71 -148.5t-178 -57.5h-366zM482 315h-284v-233h261q70 0 113.5 33t43.5 94q0 50 -37.5 78t-96.5 28zM437 618h-239v-221h222q65 0 107 32t42 89q0 47 -38 73.5t-94 26.5z" />
    <glyph glyph-name="afii10020" unicode="&#x413;" horiz-adv-x="644" 
d="M100 0v700h534v-82h-436v-618h-98z" />
    <glyph glyph-name="afii10021" unicode="&#x414;" horiz-adv-x="846" 
d="M833 82v-243h-96v161h-609v-161h-93v243q26 0 48 10t39 30.5t31 44t24.5 60t18.5 68t13.5 78l9.5 80.5t6.5 85t3.5 82t3 80h504v-618h97zM327 618q-8 -399 -120 -536h431v536h-311z" />
    <glyph glyph-name="afii10022" unicode="&#x415;" horiz-adv-x="736" 
d="M100 0v700h564v-82h-466v-224h418v-82h-418v-230h478v-82h-576z" />
    <glyph glyph-name="afii10024" unicode="&#x416;" horiz-adv-x="1040" 
d="M1030 0h-130l-326 339l336 361h117l-337 -356zM10 0h130l326 339l-336 361h-117l337 -356zM569 700v-700h-98v700h98z" />
    <glyph glyph-name="afii10025" unicode="&#x417;" horiz-adv-x="649" 
d="M50 39l23 83q124 -54 252 -54q75 0 122.5 35.5t47.5 96.5q0 57 -45 88.5t-118 31.5h-105v86h87q70 5 112.5 38t42.5 89q0 48 -42 76t-102 28q-111 0 -242 -55l-27 88q51 20 129 34.5t140 14.5q102 0 172.5 -50.5t70.5 -131.5q0 -52 -34.5 -94.5t-91.5 -69.5
q67 -23 109.5 -69t42.5 -107q0 -92 -77 -154t-192 -62q-66 0 -142.5 16.5t-132.5 41.5z" />
    <glyph glyph-name="afii10026" unicode="&#x418;" horiz-adv-x="888" 
d="M100 0v700h98v-605l462 605h128v-700h-98v608l-462 -608h-128z" />
    <glyph glyph-name="afii10027" unicode="&#x419;" horiz-adv-x="888" 
d="M552 915h82q0 -74 -53.5 -124.5t-134.5 -50.5t-134.5 50.5t-53.5 124.5h82q0 -43 31 -74.5t75 -31.5t75 31.5t31 74.5zM100 0v700h98v-605l462 605h128v-700h-98v608l-462 -608h-128z" />
    <glyph glyph-name="afii10028" unicode="&#x41a;" horiz-adv-x="752" 
d="M747 20q-73 -32 -110 -32q-43 0 -96 48l-328 303l389 361h122l-387 -353l277 -247q22 -21 45 -21q25 0 65 21zM198 700v-700h-98v700h98z" />
    <glyph glyph-name="afii10029" unicode="&#x41b;" horiz-adv-x="826" 
d="M7 -14l3 95q18 -2 24 -2q26 0 48 10t39 30.5t31.5 44.5t25 60.5t18.5 68.5t13.5 78t9 81t6.5 85.5t4 82.5t3 80h494v-700h-98v618h-301q-2 -82 -7.5 -152t-18 -145t-35 -132.5t-54 -105t-79 -73t-106.5 -25.5q-12 0 -20 1z" />
    <glyph glyph-name="afii10030" unicode="&#x41c;" horiz-adv-x="1045" 
d="M857 0l-23 563l-271 -498h-84l-268 492l-23 -557h-98l30 700h117l285 -530l286 530h117l30 -700h-98z" />
    <glyph glyph-name="afii10031" unicode="&#x41d;" horiz-adv-x="858" 
d="M758 700v-700h-98v326h-462v-326h-98v700h98v-292h462v292h98z" />
    <glyph glyph-name="afii10032" unicode="&#x41e;" horiz-adv-x="932" 
d="M466 -19q-175 0 -285.5 109.5t-110.5 266.5q0 168 113.5 265t282.5 97t282.5 -97t113.5 -265q0 -157 -110.5 -266.5t-285.5 -109.5zM466 637q-123 0 -209 -75t-86 -203q0 -130 86.5 -213t208.5 -83t208.5 83t86.5 213q0 128 -86 203t-209 75z" />
    <glyph glyph-name="afii10033" unicode="&#x41f;" horiz-adv-x="850" 
d="M750 700v-700h-98v618h-454v-618h-98v700h650z" />
    <glyph glyph-name="afii10034" unicode="&#x420;" horiz-adv-x="745" 
d="M461 700q103 0 173.5 -58.5t70.5 -153.5q0 -100 -76 -163.5t-193 -63.5h-238v-261h-98v700h361zM461 618h-263v-275h238q78 0 124.5 39.5t46.5 108.5q0 57 -40.5 92t-105.5 35z" />
    <glyph glyph-name="afii10035" unicode="&#x421;" horiz-adv-x="788" 
d="M722 670l-27 -88q-131 55 -232 55q-122 0 -207 -75t-85 -203q0 -126 86 -208.5t206 -82.5q118 0 242 54l23 -83q-128 -58 -265 -58q-175 0 -284 109.5t-109 266.5q0 168 112 265t281 97q61 0 134 -14.5t125 -34.5z" />
    <glyph glyph-name="afii10036" unicode="&#x422;" horiz-adv-x="694" 
d="M15 618v82h664v-82h-283v-618h-98v618h-283z" />
    <glyph glyph-name="afii10037" unicode="&#x423;" horiz-adv-x="791" 
d="M166 -13l11 92q42 -8 75 -8q66 0 113 42l-325 587h110l278 -496l230 496h103l-252 -540q-41 -87 -108 -134.5t-155 -47.5q-38 0 -80 9z" />
    <glyph glyph-name="afii10038" unicode="&#x424;" horiz-adv-x="951" 
d="M168 370q0 -102 70.5 -154t175.5 -52h13v412h-13q-105 0 -175.5 -52t-70.5 -154zM67 370q0 137 100 211t247 74h13v66h98v-66h13q147 0 247 -74t100 -211t-100 -211t-247 -74h-13v-85h-98v85h-13q-147 0 -247 74t-100 211zM538 164q105 0 175.5 52t70.5 154t-70.5 154
t-175.5 52h-13v-412h13z" />
    <glyph glyph-name="afii10039" unicode="&#x425;" horiz-adv-x="755" 
d="M146 700l232 -283l228 283h125l-285 -344l299 -356h-132l-241 294l-237 -294h-125l293 355l-289 345h132z" />
    <glyph glyph-name="afii10040" unicode="&#x426;" horiz-adv-x="854" 
d="M841 82v-243h-96v161h-645v700h98v-618h449v618h98v-618h96z" />
    <glyph glyph-name="afii10041" unicode="&#x427;" horiz-adv-x="769" 
d="M669 700v-700h-98v329q-133 -78 -259 -78q-111 0 -174 58.5t-63 179.5v211h98v-213q0 -152 151 -152q58 0 127 19.5t120 50.5v295h98z" />
    <glyph glyph-name="afii10042" unicode="&#x428;" horiz-adv-x="1076" 
d="M100 0v700h98v-618h291v618h98v-618h291v618h98v-700h-876z" />
    <glyph glyph-name="afii10043" unicode="&#x429;" horiz-adv-x="1085" 
d="M1072 82v-243h-96v161h-876v700h98v-618h291v618h98v-618h291v618h98v-618h96z" />
    <glyph glyph-name="afii10044" unicode="&#x42a;" horiz-adv-x="908" 
d="M356 700l-1 -275h270q102 0 172.5 -56.5t70.5 -148.5q0 -95 -76.5 -157.5t-191.5 -62.5h-343v618h-252v82h351zM625 343h-270v-261h245q77 0 123.5 38t46.5 103q0 55 -40 87.5t-105 32.5z" />
    <glyph glyph-name="afii10045" unicode="&#x42b;" horiz-adv-x="1004" 
d="M198 700v-275h255q102 0 172.5 -56.5t70.5 -148.5q0 -95 -76.5 -157.5t-191.5 -62.5h-328v700h98zM453 343h-255v-261h230q77 0 123.5 38t46.5 103q0 55 -40 87.5t-105 32.5zM904 700v-700h-98v700h98z" />
    <glyph glyph-name="afii10046" unicode="&#x42c;" horiz-adv-x="751" 
d="M198 700v-275h270q102 0 172.5 -56.5t70.5 -148.5q0 -95 -76.5 -157.5t-191.5 -62.5h-343v700h98zM468 343h-270v-261h245q77 0 123.5 38t46.5 103q0 55 -40 87.5t-105 32.5z" />
    <glyph glyph-name="afii10047" unicode="&#x42d;" horiz-adv-x="798" 
d="M227 320v86h397q-15 108 -97.5 169.5t-196.5 61.5q-106 0 -237 -55l-27 88q52 20 126 34.5t138 14.5q171 0 284.5 -97t113.5 -265q0 -158 -110 -267t-288 -109q-142 0 -270 58l25 82q122 -53 245 -53q115 0 198.5 70t97.5 182h-399z" />
    <glyph glyph-name="afii10048" unicode="&#x42e;" horiz-adv-x="1201" 
d="M198 700v-292h164q17 145 124.5 228t257.5 83q164 0 275 -97.5t111 -264.5q0 -157 -107.5 -266.5t-278.5 -109.5q-162 0 -267.5 99t-116.5 246h-162v-326h-98v700h98zM744 637q-119 0 -202 -75t-83 -203q0 -129 84 -212.5t201 -83.5t201 83.5t84 212.5q0 128 -83 203
t-202 75z" />
    <glyph glyph-name="afii10049" unicode="&#x42f;" horiz-adv-x="762" 
d="M156 0h-126l222 281q-80 21 -128 77.5t-48 133.5q0 93 70.5 150.5t171.5 57.5h351v-700h-98v269h-212zM571 618h-253q-64 0 -104 -33.5t-40 -89.5q0 -67 46.5 -105.5t122.5 -38.5h228v267z" />
    <glyph glyph-name="afii10065" unicode="&#x430;" horiz-adv-x="653" 
d="M432 79v12q-41 -47 -97.5 -77t-119.5 -30q-66 0 -110.5 38t-44.5 100q0 73 53.5 114.5t134.5 41.5q79 0 184 -35v70q0 56 -28.5 88.5t-87.5 32.5q-67 0 -205 -46l-23 84q147 44 241 44q97 0 147.5 -52.5t50.5 -153.5v-211q0 -28 22 -28q12 0 34 10l53 25l17 -74l-72 -34
q-28 -14 -68 -14q-41 0 -61 26.5t-20 68.5zM239 67q56 0 111.5 31t81.5 78v4q-88 22 -175 22q-46 0 -73.5 -18.5t-27.5 -53.5q0 -31 24 -47t59 -16z" />
    <glyph glyph-name="afii10066" unicode="&#x431;" horiz-adv-x="678" 
d="M386 496q103 0 171.5 -66.5t68.5 -183.5q0 -108 -82.5 -185.5t-204.5 -77.5q-127 0 -207 82t-80 211v80q0 380 525 394l8 -95q-110 -5 -185.5 -19t-135.5 -43.5t-93 -80t-43 -124.5l3 -2q50 47 118.5 78.5t136.5 31.5zM360 414q-44 0 -104 -29.5t-108 -73.5v-55
q0 -81 55 -139t136 -58q83 0 137 56t54 131q0 80 -47 124t-123 44z" />
    <glyph glyph-name="afii10067" unicode="&#x432;" horiz-adv-x="619" 
d="M368 0h-288v500h301q65 0 109.5 -35.5t44.5 -93.5q0 -67 -61 -102q46 -13 73 -43.5t27 -75.5q0 -75 -58 -112.5t-148 -37.5zM479 154q0 64 -80 64h-225v-142h196q50 0 79.5 19t29.5 59zM441 364q0 29 -23 44.5t-59 15.5h-185v-130h177q41 0 65.5 18.5t24.5 51.5z" />
    <glyph glyph-name="afii10068" unicode="&#x433;" horiz-adv-x="498" 
d="M80 0v500h398v-76h-304v-424h-94z" />
    <glyph glyph-name="afii10069" unicode="&#x434;" horiz-adv-x="664" 
d="M555 500v-424h89v-236h-90v160h-464v-160h-90v236h8q25 0 46 10.5t36 32.5t26.5 44.5t19.5 59t13 61.5t9 67t5.5 61.5t3.5 56.5q0 5 0.5 15.5t1.5 15.5h386zM253 424q-14 -253 -98 -348h306v348h-208z" />
    <glyph glyph-name="afii10070" unicode="&#x435;" horiz-adv-x="638" 
d="M341 -16q-127 0 -208 77t-81 195q0 121 82.5 190.5t205.5 69.5q108 0 177 -67.5t69 -172.5q0 -15 -2 -39h-436q7 -77 62 -123.5t134 -46.5q99 0 208 48l29 -73q-131 -58 -240 -58zM154 312h336q-8 61 -50.5 94.5t-106.5 33.5q-70 0 -117 -32.5t-62 -95.5z" />
    <glyph glyph-name="afii10072" unicode="&#x436;" horiz-adv-x="905" 
d="M492 500v-500h-94v500h94zM873 21q-67 -30 -104 -30q-47 0 -92 45l-182 203l249 261h114l-248 -254l137 -149q22 -20 43 -20t61 20zM52 414l-13 79q47 17 86 17q48 0 93 -45l180 -217l-249 -247h-114l252 249l-137 154q-17 20 -49 20q-19 0 -49 -10z" />
    <glyph glyph-name="afii10073" unicode="&#x437;" horiz-adv-x="557" 
d="M273 63q66 0 107.5 21t41.5 61q0 34 -33.5 52.5t-94.5 18.5h-96v74h72q59 1 91.5 23t32.5 57q0 30 -32.5 49.5t-79.5 19.5q-88 0 -201 -49l-26 78q120 48 227 48q90 0 148 -39t58 -99q0 -71 -84 -114q113 -35 113 -114q0 -77 -74 -121.5t-172 -44.5q-113 0 -231 54l28 76
q111 -51 205 -51z" />
    <glyph glyph-name="afii10074" unicode="&#x438;" horiz-adv-x="666" 
d="M586 500v-500h-94v394l-308 -394h-104v500h94v-394l308 394h104z" />
    <glyph glyph-name="afii10075" unicode="&#x439;" horiz-adv-x="666" 
d="M441 746h82q0 -74 -53.5 -124.5t-134.5 -50.5t-134.5 50.5t-53.5 124.5h82q0 -43 31 -74.5t75 -31.5t75 31.5t31 74.5zM586 500v-500h-94v394l-308 -394h-104v500h94v-394l308 394h104z" />
    <glyph glyph-name="afii10076" unicode="&#x43a;" horiz-adv-x="615" 
d="M585 21q-67 -30 -104 -30q-47 0 -92 45l-202 203l269 261h114l-266 -254l155 -149q22 -20 43 -20t61 20zM174 500v-500h-94v500h94z" />
    <glyph glyph-name="afii10077" unicode="&#x43b;" horiz-adv-x="621" 
d="M541 500v-500h-94v424h-187q-4 -73 -11.5 -130t-24 -116.5t-41.5 -98t-65.5 -63.5t-94.5 -25l-19 1l3 87q16 -2 22 -2q23 0 42 10t32.5 29.5t24.5 42.5t18 54.5t11.5 59t7.5 64t4.5 60.5t3 56.5t2.5 46.5h366z" />
    <glyph glyph-name="afii10078" unicode="&#x43c;" horiz-adv-x="806" 
d="M711 500l20 -500h-94l-15 368l-175 -328h-86l-177 331l-15 -371h-94l20 500h123l189 -358l189 358h115z" />
    <glyph glyph-name="afii10079" unicode="&#x43d;" horiz-adv-x="649" 
d="M569 500v-500h-94v216h-301v-216h-94v500h94v-208h301v208h94z" />
    <glyph glyph-name="afii10080" unicode="&#x43e;" horiz-adv-x="688" 
d="M344 516q123 0 207.5 -69.5t84.5 -190.5q0 -115 -83 -194t-209 -79t-209 79t-83 194q0 121 84.5 190.5t207.5 69.5zM344 440q-88 0 -142 -48.5t-54 -135.5q0 -80 57.5 -138.5t138.5 -58.5t138.5 58.5t57.5 138.5q0 87 -54 135.5t-142 48.5z" />
    <glyph glyph-name="afii10081" unicode="&#x43f;" horiz-adv-x="644" 
d="M564 500v-500h-94v424h-296v-424h-94v500h484z" />
    <glyph glyph-name="afii10082" unicode="&#x440;" horiz-adv-x="692" 
d="M388 516q106 0 179 -71t73 -189q0 -114 -85.5 -194t-212.5 -80q-67 0 -167 31v-253h-95v740h95v-102q25 51 82 84.5t131 33.5zM362 433q-77 0 -132 -50t-55 -134v-163q90 -28 169 -28q81 0 140.5 59t59.5 139q0 84 -49.5 130.5t-132.5 46.5z" />
    <glyph glyph-name="afii10083" unicode="&#x441;" horiz-adv-x="603" 
d="M338 -16q-127 0 -206.5 76.5t-79.5 195.5q0 121 81.5 190.5t204.5 69.5q90 0 220 -45l-22 -81q-127 50 -201 50q-84 0 -135.5 -48.5t-51.5 -135.5q0 -79 56.5 -133.5t138.5 -54.5q91 0 198 46l22 -77q-116 -53 -225 -53z" />
    <glyph glyph-name="afii10084" unicode="&#x442;" horiz-adv-x="534" 
d="M24 424v76h486v-76h-196v-424h-94v424h-196z" />
    <glyph glyph-name="afii10085" unicode="&#x443;" horiz-adv-x="597" 
d="M591 500l-238 -535q-17 -38 -25.5 -55t-25.5 -48t-32.5 -46.5t-38 -33t-50.5 -25t-61 -7.5q-10 0 -22 2l5 90q16 -2 24 -2q27 0 48 10.5t37.5 32.5t27 42t24.5 52l6 14l-260 509h104l202 -401l172 401h103z" />
    <glyph glyph-name="afii10086" unicode="&#x444;" horiz-adv-x="929" 
d="M254 -18q-86 0 -144 73t-58 187q0 113 67 193.5t181 80.5q49 0 117 -24v259h95v-325q26 39 69 64.5t94 25.5q86 0 144 -73t58 -187q0 -113 -67 -193.5t-181 -80.5q-49 0 -117 24v-246h-95v312q-27 -40 -69.5 -65t-93.5 -25zM280 65q41 0 79.5 30t57.5 78v245
q-61 22 -119 22q-72 0 -111 -58.5t-39 -139.5q0 -84 35 -130.5t97 -46.5zM649 433q-41 0 -79.5 -30.5t-57.5 -77.5v-245q61 -22 119 -22q72 0 111 58.5t39 139.5q0 84 -35 130.5t-97 46.5z" />
    <glyph glyph-name="afii10087" unicode="&#x445;" horiz-adv-x="609" 
d="M15 0l228 251l-228 249h124l168 -185l162 185h121l-226 -248l230 -252h-121l-172 188l-165 -188h-121z" />
    <glyph glyph-name="afii10088" unicode="&#x446;" horiz-adv-x="670" 
d="M80 0v500h94v-424h293v424h94v-424h89v-236h-90v160h-480z" />
    <glyph glyph-name="afii10089" unicode="&#x447;" horiz-adv-x="620" 
d="M241 166q-171 0 -171 183v151h95v-143q0 -61 26 -87.5t79 -26.5q83 0 176 51v206h94v-500h-94v229q-100 -63 -205 -63z" />
    <glyph glyph-name="afii10090" unicode="&#x448;" horiz-adv-x="894" 
d="M80 0v500h94v-424h231v424h94v-424h221v424h94v-500h-734z" />
    <glyph glyph-name="afii10091" unicode="&#x449;" horiz-adv-x="923" 
d="M80 0v500h94v-424h231v424h94v-424h221v424h94v-424h89v-236h-90v160h-733z" />
    <glyph glyph-name="afii10092" unicode="&#x44a;" horiz-adv-x="658" 
d="M251 500v-172h187q86 0 135.5 -41t49.5 -110q0 -82 -61.5 -129.5t-173.5 -47.5h-231v424h-147v76h241zM528 171q0 38 -24.5 59.5t-65.5 21.5h-187v-176h139q138 0 138 95z" />
    <glyph glyph-name="afii10093" unicode="&#x44b;" horiz-adv-x="804" 
d="M174 500v-172h182q86 0 135.5 -41t49.5 -110q0 -82 -61.5 -129.5t-173.5 -47.5h-226v500h94zM724 500v-500h-94v500h94zM446 171q0 38 -24.5 59.5t-65.5 21.5h-182v-176h134q138 0 138 95z" />
    <glyph glyph-name="afii10094" unicode="&#x44c;" horiz-adv-x="586" 
d="M174 500v-172h192q86 0 135.5 -41t49.5 -110q0 -82 -61.5 -129.5t-173.5 -47.5h-236v500h94zM456 171q0 38 -24.5 59.5t-65.5 21.5h-192v-176h144q138 0 138 95z" />
    <glyph glyph-name="afii10095" unicode="&#x44d;" horiz-adv-x="612" 
d="M268 -17q-118 0 -228 54l25 75q115 -51 205 -51q76 0 128.5 42.5t64.5 113.5h-267v74h267q-10 74 -62 111.5t-132 37.5q-74 0 -201 -50l-22 81q130 45 223 45q126 0 208.5 -69.5t82.5 -190.5q0 -115 -83 -194t-209 -79z" />
    <glyph glyph-name="afii10096" unicode="&#x44e;" horiz-adv-x="898" 
d="M560 516q119 0 202.5 -70t83.5 -190q0 -114 -82.5 -193.5t-203.5 -79.5q-109 0 -188 66.5t-93 166.5h-105v-216h-94v500h94v-208h104q13 104 93 164t189 60zM560 440q-84 0 -137 -49t-53 -135q0 -80 56 -138.5t134 -58.5t134 58.5t56 138.5q0 86 -53 135t-137 49z" />
    <glyph glyph-name="afii10097" unicode="&#x44f;" horiz-adv-x="605" 
d="M431 0v182h-132l-140 -181h-114l151 184q-66 10 -104 48t-38 95q0 79 63.5 125.5t171.5 46.5h236v-500h-94zM239 258h192v166h-144q-138 0 -138 -90q0 -36 25 -56t65 -20z" />
    <glyph glyph-name="afii10071" unicode="&#x451;" horiz-adv-x="638" 
d="M169 639q0 23 17 40t41 17t41.5 -17t17.5 -40t-17.5 -40t-41.5 -17t-41 17t-17 40zM378 639q0 23 17 40t41 17t41.5 -17t17.5 -40t-17.5 -40t-41.5 -17t-41 17t-17 40zM341 -16q109 0 240 58l-29 73q-109 -48 -208 -48q-79 0 -134 46.5t-62 123.5h436q2 24 2 39
q0 105 -69 172.5t-177 67.5q-123 0 -205.5 -69.5t-82.5 -190.5q0 -118 81 -195t208 -77zM154 312q15 63 62 95.5t117 32.5q64 0 106.5 -33.5t50.5 -94.5h-336z" />
    <glyph glyph-name="afii10099" unicode="&#x452;" horiz-adv-x="680" 
d="M-26 575v66l109 7l17 93h74v-90h216v-76h-216v-183q32 52 93 88t130 36q98 0 153 -60t55 -163v-352q0 -87 -53.5 -139t-148.5 -52l-17 1v94q16 -2 24 -2q48 0 74 24t26 71v347q0 66 -35.5 106.5t-101.5 40.5q-78 0 -138.5 -55.5t-60.5 -144.5v-232h-94v575h-106z" />
    <glyph glyph-name="afii10100" unicode="&#x453;" horiz-adv-x="498" 
d="M80 0v500h398v-76h-304v-424h-94zM397 769l-110 -194l-67 28l71 166h106z" />
    <glyph glyph-name="afii10101" unicode="&#x454;" horiz-adv-x="622" 
d="M354 -17q-126 0 -209 79t-83 194q0 121 82.5 190.5t208.5 69.5q93 0 223 -45l-22 -81q-127 50 -201 50q-81 0 -133 -37.5t-62 -111.5h268v-74h-267q12 -71 64 -113.5t129 -42.5q90 0 205 51l25 -75q-110 -54 -228 -54z" />
    <glyph glyph-name="afii10102" unicode="&#x455;" horiz-adv-x="574" 
d="M148 380q0 -21 12.5 -36t40 -24.5t50 -13.5t64.5 -10q209 -30 209 -150q0 -75 -70.5 -118.5t-161.5 -43.5q-58 0 -127 16t-115 37l22 77q116 -50 218 -50q58 0 98.5 17.5t40.5 57.5q0 34 -36 50t-103 26q-39 6 -66 11.5t-61.5 17.5t-56 28t-36.5 41.5t-15 58.5
q0 64 63.5 104t149.5 40q120 0 235 -45l-22 -80q-115 50 -216 50q-45 0 -81 -15.5t-36 -45.5z" />
    <glyph glyph-name="afii10103" unicode="&#x456;" horiz-adv-x="284" 
d="M189 500v-500h-94v500h94zM80 639q0 25 18 43t44 18t44 -18t18 -43t-18 -43t-44 -18t-44 18t-18 43z" />
    <glyph glyph-name="afii10104" unicode="&#x457;" horiz-adv-x="288" 
d="M191 500v-500h-94v500h94zM12 639q0 23 15.5 39t36.5 16q22 0 37.5 -16t15.5 -39t-15.5 -39t-37.5 -16q-21 0 -36.5 16t-15.5 39zM171 639q0 23 15.5 39t37.5 16q21 0 36.5 -16t15.5 -39t-15.5 -39t-36.5 -16q-22 0 -37.5 16t-15.5 39z" />
    <glyph glyph-name="afii10105" unicode="&#x458;" horiz-adv-x="285" 
d="M107 0v500h93v-559q0 -87 -53 -139t-148 -52l-17 1v94q16 -2 24 -2q48 0 74.5 24t26.5 71v62zM91 639q0 25 18 43t44 18t44 -18t18 -43t-18 -43t-44 -18t-44 18t-18 43z" />
    <glyph glyph-name="afii10106" unicode="&#x459;" horiz-adv-x="943" 
d="M442 0v424h-182q-4 -73 -11.5 -130t-24 -116.5t-41.5 -98t-65.5 -63.5t-94.5 -25l-19 1l3 87q16 -2 22 -2q23 0 42 10t32.5 29.5t24.5 42.5t18 54.5t11.5 59t7.5 64t4.5 60.5t3 56.5t2.5 46.5h361v-172h187q86 0 135.5 -41t49.5 -110q0 -82 -61.5 -129.5t-173.5 -47.5
h-231zM813 171q0 38 -24.5 59.5t-65.5 21.5h-187v-176h139q138 0 138 95z" />
    <glyph glyph-name="afii10107" unicode="&#x45a;" horiz-adv-x="971" 
d="M174 500v-197h296v197h94v-192h187q87 0 136 -37t49 -104q0 -80 -61 -123.5t-174 -43.5h-231v227h-296v-227h-94v500h94zM841 161q0 71 -90 71h-187v-156h139q73 0 105.5 20.5t32.5 64.5z" />
    <glyph glyph-name="afii10108" unicode="&#x45b;" horiz-adv-x="680" 
d="M-26 575v66l109 7l17 93h74v-90h216v-76h-216v-183q32 52 93 88t130 36q98 0 153 -60t55 -163v-293h-95v285q0 66 -35.5 106.5t-101.5 40.5q-78 0 -138.5 -55.5t-60.5 -144.5v-232h-94v575h-106z" />
    <glyph glyph-name="afii10109" unicode="&#x45c;" horiz-adv-x="615" 
d="M585 21q-67 -30 -104 -30q-47 0 -92 45l-202 203l269 261h114l-266 -254l155 -149q22 -20 43 -20t61 20zM174 500v-500h-94v500h94zM436 769l-110 -194l-67 28l71 166h106z" />
    <glyph glyph-name="afii10110" unicode="&#x45e;" horiz-adv-x="597" 
d="M409 746h82q0 -74 -53.5 -124.5t-134.5 -50.5t-134.5 50.5t-53.5 124.5h82q0 -43 31 -74.5t75 -31.5t75 31.5t31 74.5zM591 500l-238 -535q-17 -38 -25.5 -55t-25.5 -48t-32.5 -46.5t-38 -33t-50.5 -25t-61 -7.5q-10 0 -22 2l5 90q16 -2 24 -2q27 0 48 10.5t37.5 32.5
t27 42t24.5 52l6 14l-260 509h104l202 -401l172 401h103z" />
    <glyph glyph-name="afii10193" unicode="&#x45f;" horiz-adv-x="641" 
d="M80 0v500h94v-424h293v424h94v-500h-195v-160h-90v160h-196z" />
    <glyph glyph-name="afii10050" unicode="&#x490;" horiz-adv-x="624" 
d="M518 700v161h96v-243h-416v-618h-98v700h418z" />
    <glyph glyph-name="afii10098" unicode="&#x491;" horiz-adv-x="478" 
d="M458 660v-236h-284v-424h-94v500h288v160h90z" />
    <glyph glyph-name="endash" unicode="&#x2013;" horiz-adv-x="617" 
d="M80 254v78h457v-78h-457z" />
    <glyph glyph-name="emdash" unicode="&#x2014;" horiz-adv-x="896" 
d="M31 254v78h834v-78h-834z" />
    <glyph glyph-name="quoteleft" unicode="&#x2018;" 
d="M197 560q0 -27 -19 -45.5t-46 -18.5q-35 0 -52 26.5t-17 66.5q0 52 26 108t73 93l34 -42q-60 -51 -64 -124q27 0 46 -18.5t19 -45.5z" />
    <glyph glyph-name="quoteright" unicode="&#x2019;" 
d="M67 716q0 27 19 45.5t46 18.5q35 0 52 -26.5t17 -66.5q0 -52 -26 -108t-73 -93l-34 42q60 51 64 124q-27 0 -46 18.5t-19 45.5z" />
    <glyph glyph-name="quotesinglbase" unicode="&#x201a;" 
d="M67 51q0 27 19 45.5t46 18.5q35 0 52 -26.5t17 -66.5q0 -52 -26 -108t-73 -93l-34 42q60 51 64 124q-27 0 -46 18.5t-19 45.5z" />
    <glyph glyph-name="quotedblleft" unicode="&#x201c;" horiz-adv-x="448" 
d="M197 560q0 -27 -19 -45.5t-46 -18.5q-35 0 -52 26.5t-17 66.5q0 52 26 108t73 93l34 -42q-60 -51 -64 -124q27 0 46 -18.5t19 -45.5zM381 560q0 -27 -19 -45.5t-46 -18.5q-35 0 -52 26.5t-17 66.5q0 52 26 108t73 93l34 -42q-60 -51 -64 -124q27 0 46 -18.5t19 -45.5z
" />
    <glyph glyph-name="quotedblright" unicode="&#x201d;" horiz-adv-x="448" 
d="M251 716q0 27 19 45.5t46 18.5q35 0 52 -26.5t17 -66.5q0 -52 -26 -108t-73 -93l-34 42q60 51 64 124q-27 0 -46 18.5t-19 45.5zM67 716q0 27 19 45.5t46 18.5q35 0 52 -26.5t17 -66.5q0 -52 -26 -108t-73 -93l-34 42q60 51 64 124q-27 0 -46 18.5t-19 45.5z" />
    <glyph glyph-name="quotedblbase" unicode="&#x201e;" horiz-adv-x="448" 
d="M67 51q0 27 19 45.5t46 18.5q35 0 52 -26.5t17 -66.5q0 -52 -26 -108t-73 -93l-34 42q60 51 64 124q-27 0 -46 18.5t-19 45.5zM251 51q0 27 19 45.5t46 18.5q35 0 52 -26.5t17 -66.5q0 -52 -26 -108t-73 -93l-34 42q60 51 64 124q-27 0 -46 18.5t-19 45.5z" />
    <glyph glyph-name="dagger" unicode="&#x2020;" horiz-adv-x="420" 
d="M191 554l-25 146h88l-25 -146l146 25v-88l-146 25l27 -516h-92l27 516l-146 -25v88z" />
    <glyph glyph-name="daggerdbl" unicode="&#x2021;" horiz-adv-x="420" 
d="M229 146l25 -146h-88l25 146l-146 -25v88l146 -25l-23 166l23 166l-146 -25v88l146 -25l-25 146h88l-25 -146l146 25v-88l-146 25l23 -166l-23 -166l146 25v-88z" />
    <glyph glyph-name="bullet" unicode="&#x2022;" horiz-adv-x="482" 
d="M150 299q0 35 27 60t64 25t64 -25t27 -60t-27 -60t-64 -25t-64 25t-27 60z" />
    <glyph glyph-name="ellipsis" unicode="&#x2026;" horiz-adv-x="712" 
d="M67 51q0 27 19 45.5t46 18.5t46 -18.5t19 -45.5t-19 -45.5t-46 -18.5t-46 18.5t-19 45.5zM291 51q0 27 19 45.5t46 18.5t46 -18.5t19 -45.5t-19 -45.5t-46 -18.5t-46 18.5t-19 45.5zM515 51q0 27 19 45.5t46 18.5t46 -18.5t19 -45.5t-19 -45.5t-46 -18.5t-46 18.5
t-19 45.5z" />
    <glyph glyph-name="perthousand" unicode="&#x2030;" horiz-adv-x="1283" 
d="M219 711q63 0 108.5 -49t45.5 -132v-7q0 -83 -45.5 -132t-108.5 -49t-108.5 49t-45.5 132v7q0 83 45.5 132t108.5 49zM695 358q63 0 108.5 -49t45.5 -132v-7q0 -83 -45.5 -132t-108.5 -49t-108.5 49t-45.5 132v7q0 83 45.5 132t108.5 49zM920 177q0 83 45.5 132t108.5 49
t108.5 -49t45.5 -132v-7q0 -83 -45.5 -132t-108.5 -49t-108.5 49t-45.5 132v7zM216 0h-106l588 700h106zM695 288q-35 0 -59 -30t-24 -81v-7q0 -51 24 -81t59 -30q34 0 58 30t24 81v7q0 51 -24 81t-58 30zM1074 288q-35 0 -59 -30t-24 -81v-7q0 -51 24 -81t59 -30
q34 0 58 30t24 81v7q0 51 -24 81t-58 30zM219 641q-35 0 -59 -30t-24 -81v-7q0 -51 24 -81t59 -30q34 0 58 30t24 81v7q0 51 -24 81t-58 30z" />
    <glyph glyph-name="guilsinglleft" unicode="&#x2039;" horiz-adv-x="347" 
d="M70 199v86l163 145l49 -54l-129 -134l129 -134l-49 -54z" />
    <glyph glyph-name="guilsinglright" unicode="&#x203a;" horiz-adv-x="347" 
d="M277 285v-86l-163 -145l-49 54l129 134l-129 134l49 54z" />
    <glyph glyph-name="Euro" unicode="&#x20ac;" horiz-adv-x="813" 
d="M747 670l-27 -88q-131 55 -232 55q-92 0 -165.5 -44t-105.5 -123h411l-18 -78h-413q-1 -11 -1 -33q0 -23 3 -44h390l-18 -78h-350q35 -78 107.5 -123.5t159.5 -45.5q118 0 242 54l23 -83q-128 -58 -265 -58q-138 0 -237.5 71t-136.5 185h-89v78h72q-2 14 -2 42q0 23 1 35
h-71v78h86q35 118 137.5 183.5t239.5 65.5q61 0 134 -14.5t125 -34.5z" />
    <glyph glyph-name="afii61352" unicode="&#x2116;" horiz-adv-x="1386" 
d="M788 700v-700h-128l-462 589v-589h-98v700h128l462 -586v586h98zM1102 532q-86 0 -145 -48.5t-59 -133.5q0 -80 58 -135.5t146 -55.5t146 55.5t58 135.5q0 85 -59 133.5t-145 48.5zM1102 460q52 0 84.5 -29.5t32.5 -80.5q0 -48 -34.5 -83.5t-82.5 -35.5t-82.5 35.5
t-34.5 83.5q0 52 32 81t85 29zM912 0v77h381v-77h-381z" />
    <glyph glyph-name="trademark" unicode="&#x2122;" horiz-adv-x="1002" 
d="M896 277l-13 298l-141 -261h-60l-140 257l-13 -294h-76l18 423h82l159 -295l160 295h82l18 -423h-76zM10 633v67h402v-67h-163v-356h-75v356h-164z" />
    </font>
</defs>
</svg>
